<svg width="42" height="48" viewBox="0 0 42 48" fill="none" xmlns="http://www.w3.org/2000/svg">
<path d="M39.0732 11.0567H38.2952V6.38901C38.2952 5.77003 38.0493 5.17641 37.6116 4.73873C37.174 4.30105 36.5803 4.05516 35.9614 4.05516H35.1834V3.27721C35.1834 2.65823 34.9375 2.06461 34.4998 1.62693C34.0622 1.18925 33.4685 0.943359 32.8496 0.943359H3.28746C2.66849 0.943359 2.07486 1.18925 1.63718 1.62693C1.1995 2.06461 0.953613 2.65823 0.953613 3.27721V42.1747C0.953613 42.7937 1.1995 43.3873 1.63718 43.825C2.07486 44.2627 2.66849 44.5085 3.28746 44.5085H4.06541V45.2865C4.06541 45.9055 4.3113 46.4991 4.74898 46.9368C5.18666 47.3745 5.78029 47.6203 6.39926 47.6203H35.9614C36.5803 47.6203 37.174 47.3745 37.6116 46.9368C38.0493 46.4991 38.2952 45.9055 38.2952 45.2865V31.2834H39.0732C39.6921 31.2834 40.2858 31.0375 40.7234 30.5998C41.1611 30.1622 41.407 29.5685 41.407 28.9496V13.3906C41.407 12.7716 41.1611 12.178 40.7234 11.7403C40.2858 11.3026 39.6921 11.0567 39.0732 11.0567ZM35.9614 5.61106C36.1677 5.61106 36.3656 5.69302 36.5115 5.83891C36.6573 5.98481 36.7393 6.18268 36.7393 6.38901V11.0567H35.1834V5.61106H35.9614ZM7.17721 2.49926H8.73311V4.59972L8.60242 4.40368C8.52715 4.30306 8.42946 4.22137 8.31711 4.1651C8.20475 4.10883 8.08082 4.07953 7.95516 4.07953C7.8295 4.07953 7.70558 4.10883 7.59322 4.1651C7.48086 4.22137 7.38317 4.30306 7.30791 4.40368L7.17721 4.59972V2.49926ZM2.50951 42.1747V3.27721C2.50951 3.07088 2.59148 2.87301 2.73737 2.72712C2.88326 2.58122 3.08114 2.49926 3.28746 2.49926H5.62131V7.16696C5.62127 7.33393 5.67496 7.49649 5.77444 7.6306C5.87392 7.76471 6.0139 7.86325 6.17371 7.91167C6.33351 7.96008 6.50465 7.95579 6.66183 7.89943C6.81901 7.84308 6.95388 7.73764 7.04652 7.59872L7.95516 6.23342L8.86381 7.59639C8.95633 7.73515 9.091 7.8405 9.24795 7.89691C9.4049 7.95331 9.57582 7.95779 9.7355 7.90968C9.89519 7.86156 10.0352 7.7634 10.1348 7.62967C10.2345 7.49595 10.2886 7.33373 10.289 7.16696V2.49926H32.8496C33.0559 2.49926 33.2538 2.58122 33.3997 2.72712C33.5455 2.87301 33.6275 3.07088 33.6275 3.27721V11.0567H9.51106C8.89209 11.0567 8.29846 11.3026 7.86078 11.7403C7.4231 12.178 7.17721 12.7716 7.17721 13.3906V28.9496C7.17721 29.5685 7.4231 30.1622 7.86078 30.5998C8.29846 31.0375 8.89209 31.2834 9.51106 31.2834H33.6275V42.1747C33.6275 42.381 33.5455 42.5789 33.3997 42.7248C33.2538 42.8707 33.0559 42.9527 32.8496 42.9527H3.28746C3.08114 42.9527 2.88326 42.8707 2.73737 42.7248C2.59148 42.5789 2.50951 42.381 2.50951 42.1747ZM36.7393 45.2865C36.7393 45.4928 36.6573 45.6907 36.5115 45.8366C36.3656 45.9825 36.1677 46.0644 35.9614 46.0644H6.39926C6.19294 46.0644 5.99506 45.9825 5.84917 45.8366C5.70328 45.6907 5.62131 45.4928 5.62131 45.2865V44.5085H32.8496C33.4685 44.5085 34.0622 44.2627 34.4998 43.825C34.9375 43.3873 35.1834 42.7937 35.1834 42.1747V31.2834H36.7393V45.2865ZM39.8511 28.9496C39.8511 29.1559 39.7691 29.3538 39.6233 29.4996C39.4774 29.6455 39.2795 29.7275 39.0732 29.7275H9.51106C9.30474 29.7275 9.10686 29.6455 8.96097 29.4996C8.81507 29.3538 8.73311 29.1559 8.73311 28.9496V13.3906C8.73311 13.1842 8.81507 12.9864 8.96097 12.8405C9.10686 12.6946 9.30474 12.6126 9.51106 12.6126H39.0732C39.2795 12.6126 39.4774 12.6946 39.6233 12.8405C39.7691 12.9864 39.8511 13.1842 39.8511 13.3906V28.9496Z" fill="#EBB142"/>
<path d="M17.2906 16.5023H14.1788C13.9724 16.5023 13.7746 16.5842 13.6287 16.7301C13.4828 16.876 13.4008 17.0739 13.4008 17.2802V25.0597C13.4008 25.266 13.4828 25.4639 13.6287 25.6098C13.7746 25.7557 13.9724 25.8377 14.1788 25.8377H17.2906C17.9095 25.8377 18.5032 25.5918 18.9408 25.1541C19.3785 24.7164 19.6244 24.1228 19.6244 23.5038V18.8361C19.6244 18.2171 19.3785 17.6235 18.9408 17.1858C18.5032 16.7481 17.9095 16.5023 17.2906 16.5023ZM18.0685 23.5038C18.0685 23.7101 17.9865 23.908 17.8406 24.0539C17.6948 24.1998 17.4969 24.2818 17.2906 24.2818H14.9567V18.0582H17.2906C17.4969 18.0582 17.6948 18.1401 17.8406 18.286C17.9865 18.4319 18.0685 18.6298 18.0685 18.8361V23.5038Z" fill="#EBB142"/>
<path d="M25.0701 16.5023H23.5142C22.8952 16.5023 22.3016 16.7481 21.8639 17.1858C21.4262 17.6235 21.1803 18.2171 21.1803 18.8361V23.5038C21.1803 24.1228 21.4262 24.7164 21.8639 25.1541C22.3016 25.5918 22.8952 25.8377 23.5142 25.8377H25.0701C25.689 25.8377 26.2827 25.5918 26.7203 25.1541C27.158 24.7164 27.4039 24.1228 27.4039 23.5038V18.8361C27.4039 18.2171 27.158 17.6235 26.7203 17.1858C26.2827 16.7481 25.689 16.5023 25.0701 16.5023ZM25.848 23.5038C25.848 23.7101 25.766 23.908 25.6201 24.0539C25.4743 24.1998 25.2764 24.2818 25.0701 24.2818H23.5142C23.3078 24.2818 23.11 24.1998 22.9641 24.0539C22.8182 23.908 22.7362 23.7101 22.7362 23.5038V18.8361C22.7362 18.6298 22.8182 18.4319 22.9641 18.286C23.11 18.1401 23.3078 18.0582 23.5142 18.0582H25.0701C25.2764 18.0582 25.4743 18.1401 25.6201 18.286C25.766 18.4319 25.848 18.6298 25.848 18.8361V23.5038Z" fill="#EBB142"/>
<path d="M31.2937 18.0582H32.8496C33.0559 18.0582 33.2538 18.1401 33.3996 18.286C33.5455 18.4319 33.6275 18.6298 33.6275 18.8361H35.1834C35.1834 18.2171 34.9375 17.6235 34.4998 17.1858C34.0621 16.7481 33.4685 16.5023 32.8496 16.5023H31.2937C30.6747 16.5023 30.0811 16.7481 29.6434 17.1858C29.2057 17.6235 28.9598 18.2171 28.9598 18.8361V23.5038C28.9598 24.1228 29.2057 24.7164 29.6434 25.1541C30.0811 25.5918 30.6747 25.8377 31.2937 25.8377H32.8496C33.4685 25.8377 34.0621 25.5918 34.4998 25.1541C34.9375 24.7164 35.1834 24.1228 35.1834 23.5038H33.6275C33.6275 23.7101 33.5455 23.908 33.3996 24.0539C33.2538 24.1998 33.0559 24.2818 32.8496 24.2818H31.2937C31.0873 24.2818 30.8895 24.1998 30.7436 24.0539C30.5977 23.908 30.5157 23.7101 30.5157 23.5038V18.8361C30.5157 18.6298 30.5977 18.4319 30.7436 18.286C30.8895 18.1401 31.0873 18.0582 31.2937 18.0582Z" fill="#EBB142"/>
</svg>
