<svg width="20" height="13" viewBox="0 0 20 13" fill="none" xmlns="http://www.w3.org/2000/svg">
<path d="M19.0485 5.86039C18.8773 5.62612 14.7967 0.124023 9.58509 0.124023C4.37347 0.124023 0.292723 5.62612 0.12165 5.86017C-0.0405499 6.08243 -0.0405499 6.38387 0.12165 6.60613C0.292723 6.8404 4.37347 12.3425 9.58509 12.3425C14.7967 12.3425 18.8773 6.84037 19.0485 6.60632C19.211 6.3841 19.211 6.08242 19.0485 5.86039ZM9.58509 11.0785C5.74618 11.0785 2.42127 7.42667 1.43703 6.23283C2.42 5.03794 5.73794 1.388 9.58509 1.388C13.4238 1.388 16.7485 5.03921 17.7332 6.23369C16.7502 7.42855 13.4322 11.0785 9.58509 11.0785Z" fill="#BE9141"/>
<path d="M9.5849 2.44124C7.49406 2.44124 5.79295 4.14235 5.79295 6.2332C5.79295 8.32404 7.49406 10.0252 9.5849 10.0252C11.6758 10.0252 13.3769 8.32404 13.3769 6.2332C13.3769 4.14235 11.6758 2.44124 9.5849 2.44124ZM9.5849 8.76114C8.19093 8.76114 7.05696 7.62713 7.05696 6.2332C7.05696 4.83926 8.19097 3.70525 9.5849 3.70525C10.9788 3.70525 12.1129 4.83926 12.1129 6.2332C12.1129 7.62713 10.9789 8.76114 9.5849 8.76114Z" fill="#BE9141"/>
</svg>
