<svg width="18" height="16" viewBox="0 0 18 16" fill="none" xmlns="http://www.w3.org/2000/svg">
<path d="M6.59184 12.6663H2.69838C2.48548 12.6663 2.31289 12.8389 2.31289 13.0518C2.31289 13.2647 2.48548 13.4373 2.69838 13.4373H6.59184C6.80475 13.4373 6.97733 13.2647 6.97733 13.0518C6.97733 12.8389 6.80475 12.6663 6.59184 12.6663Z" fill="#BE9141"/>
<path d="M12.4129 12.6663H8.51942C8.30652 12.6663 8.13393 12.8389 8.13393 13.0518C8.13393 13.2647 8.30652 13.4373 8.51942 13.4373H12.4129C12.6257 13.4373 12.7984 13.2647 12.7984 13.0518C12.7984 12.8389 12.6257 12.6663 12.4129 12.6663Z" fill="#BE9141"/>
<path d="M12.4128 3.02902H2.69838C2.48548 3.02902 2.31289 3.2016 2.31289 3.41451C2.31289 3.62741 2.48548 3.8 2.69838 3.8H12.4128C12.6256 3.8 12.7982 3.62741 12.7982 3.41451C12.7982 3.2016 12.6256 3.02902 12.4128 3.02902Z" fill="#BE9141"/>
<path d="M12.4129 4.95649H8.51942C8.30652 4.95649 8.13393 5.12907 8.13393 5.34198C8.13393 5.55488 8.30652 5.72747 8.51942 5.72747H12.4129C12.6257 5.72747 12.7984 5.55488 12.7984 5.34198C12.7984 5.12907 12.6257 4.95649 12.4129 4.95649Z" fill="#BE9141"/>
<path d="M12.4129 6.8839H8.51942C8.30652 6.8839 8.13393 7.05648 8.13393 7.26939C8.13393 7.48229 8.30652 7.65488 8.51942 7.65488H12.4129C12.6257 7.65488 12.7984 7.48229 12.7984 7.26939C12.7984 7.05648 12.6257 6.8839 12.4129 6.8839Z" fill="#BE9141"/>
<path d="M12.4129 8.81137H8.51942C8.30652 8.81137 8.13393 8.98395 8.13393 9.19686C8.13393 9.40976 8.30652 9.58235 8.51942 9.58235H12.4129C12.6257 9.58235 12.7984 9.40976 12.7984 9.19686C12.7984 8.98395 12.6257 8.81137 12.4129 8.81137Z" fill="#BE9141"/>
<path d="M12.4129 10.7388H8.51942C8.30652 10.7388 8.13393 10.9114 8.13393 11.1243C8.13393 11.3372 8.30652 11.5098 8.51942 11.5098H12.4129C12.6257 11.5098 12.7984 11.3372 12.7984 11.1243C12.7984 10.9114 12.6257 10.7388 12.4129 10.7388Z" fill="#BE9141"/>
<path d="M6.59184 10.7388H2.69838C2.48548 10.7388 2.31289 10.9114 2.31289 11.1243C2.31289 11.3372 2.48548 11.5098 2.69838 11.5098H6.59184C6.80475 11.5098 6.97733 11.3372 6.97733 11.1243C6.97733 10.9114 6.80475 10.7388 6.59184 10.7388Z" fill="#BE9141"/>
<path d="M6.59184 4.95649H2.69838C2.48548 4.95649 2.31289 5.12907 2.31289 5.34198V9.23543C2.31289 9.44834 2.48548 9.62093 2.69838 9.62093H6.59184C6.80475 9.62093 6.97733 9.44834 6.97733 9.23543V5.34198C6.97733 5.12907 6.80475 4.95649 6.59184 4.95649ZM6.20635 8.84994H3.08388V5.72747H6.20635V8.84994Z" fill="#BE9141"/>
<path d="M16.2677 2.64352H15.1112V1.48705C15.1112 1.06193 14.7654 0.716064 14.3403 0.716064H0.770982C0.345862 0.716064 0 1.06193 0 1.48705V13.8228C0 14.8856 0.864656 15.7502 1.92745 15.7502H15.1112C16.174 15.7502 17.0387 14.8856 17.0387 13.8228V3.4145C17.0387 2.98938 16.6928 2.64352 16.2677 2.64352ZM16.2677 13.8228C16.2677 14.4604 15.7489 14.9792 15.1112 14.9792H1.92745C1.28978 14.9792 0.770982 14.4604 0.770982 13.8228V1.48705H14.3403V13.2445C14.3403 13.7759 14.7726 14.2082 15.304 14.2082C15.5169 14.2082 15.6895 14.0357 15.6895 13.8228C15.6895 13.6098 15.5169 13.4373 15.304 13.4373C15.1977 13.4373 15.1112 13.3508 15.1112 13.2445V3.4145H16.2677V13.8228Z" fill="#BE9141"/>
</svg>
