<svg width="30" height="24" viewBox="0 0 30 24" fill="none" xmlns="http://www.w3.org/2000/svg">
<rect x="0.709229" y="1.4375" width="28" height="22" stroke="url(#paint0_linear)" stroke-miterlimit="10"/>
<path d="M14.7091 3.89868C11.3986 3.89868 8.7052 6.59205 8.7052 9.90262C8.7052 11.0212 9.01504 12.1127 9.60142 13.0598L14.3674 20.74C14.4587 20.8872 14.6195 20.9766 14.7925 20.9766C14.7938 20.9766 14.7951 20.9766 14.7965 20.9766C14.9709 20.9752 15.1321 20.883 15.2217 20.7333L19.8662 12.9786C20.4203 12.0516 20.7131 10.988 20.7131 9.90262C20.7131 6.59205 18.0197 3.89868 14.7091 3.89868ZM19.0075 12.4649L14.7849 19.5151L10.4519 12.5325C9.96383 11.7443 9.69919 10.8349 9.69919 9.90262C9.69919 7.14381 11.9503 4.89267 14.7091 4.89267C17.4679 4.89267 19.7158 7.14381 19.7158 9.90262C19.7158 10.8072 19.4686 11.6934 19.0075 12.4649Z" fill="url(#paint1_linear)"/>
<path d="M14.7091 6.90088C13.0538 6.90088 11.7072 8.24756 11.7072 9.90285C11.7072 11.5476 13.0319 12.9048 14.7091 12.9048C16.407 12.9048 17.7111 11.5295 17.7111 9.90285C17.7111 8.24756 16.3644 6.90088 14.7091 6.90088ZM14.7091 11.9108C13.5998 11.9108 12.7011 11.0091 12.7011 9.90285C12.7011 8.79932 13.6056 7.89486 14.7091 7.89486C15.8126 7.89486 16.7138 8.79932 16.7138 9.90285C16.7138 10.993 15.836 11.9108 14.7091 11.9108Z" fill="url(#paint2_linear)"/>
<defs>
<linearGradient id="paint0_linear" x1="0.116008" y1="12.4363" x2="29.2995" y2="12.4363" gradientUnits="userSpaceOnUse">
<stop stop-color="#6A5538"/>
<stop offset="0.265625" stop-color="#BC975E"/>
<stop offset="0.40625" stop-color="#D9BE85"/>
<stop offset="0.541667" stop-color="#E7D491"/>
<stop offset="0.6735" stop-color="#C5A76C"/>
<stop offset="0.838542" stop-color="#BC975E"/>
<stop offset="1" stop-color="#6A5538"/>
</linearGradient>
<linearGradient id="paint1_linear" x1="8.70255" y1="12.4347" x2="20.7063" y2="12.4347" gradientUnits="userSpaceOnUse">
<stop stop-color="#6A5538"/>
<stop offset="0.213542" stop-color="#BC975E"/>
<stop offset="0.375" stop-color="#D9BE85"/>
<stop offset="0.552083" stop-color="#E7D491"/>
<stop offset="0.6735" stop-color="#C5A76C"/>
<stop offset="0.817708" stop-color="#BC975E"/>
<stop offset="1" stop-color="#6A5538"/>
</linearGradient>
<linearGradient id="paint2_linear" x1="11.7058" y1="9.90181" x2="17.7077" y2="9.90181" gradientUnits="userSpaceOnUse">
<stop stop-color="#6A5538"/>
<stop offset="0.213542" stop-color="#BC975E"/>
<stop offset="0.375" stop-color="#D9BE85"/>
<stop offset="0.552083" stop-color="#E7D491"/>
<stop offset="0.6735" stop-color="#C5A76C"/>
<stop offset="0.817708" stop-color="#BC975E"/>
<stop offset="1" stop-color="#6A5538"/>
</linearGradient>
</defs>
</svg>
