<svg width="30" height="24" viewBox="0 0 30 24" fill="none" xmlns="http://www.w3.org/2000/svg">
<path d="M19.8734 14.023C19.5453 13.7033 19.1496 13.5323 18.7303 13.5323C18.3143 13.5323 17.9153 13.7001 17.5737 14.0199L16.5051 15.0171C16.4171 14.9728 16.3292 14.9316 16.2447 14.8905C16.1229 14.8335 16.0079 14.7797 15.9099 14.7227C14.9088 14.1275 13.9991 13.3519 13.1266 12.3483C12.7039 11.8481 12.4198 11.427 12.2135 10.9997C12.4908 10.7622 12.7478 10.5153 12.9981 10.2778C13.0928 10.1892 13.1875 10.0974 13.2822 10.0087C13.9924 9.34391 13.9924 8.4828 13.2822 7.81797L12.3589 6.95369C12.2541 6.85555 12.1459 6.75424 12.0444 6.65294C11.8415 6.45665 11.6285 6.25404 11.4086 6.06409C11.0806 5.76017 10.6883 5.59871 10.2757 5.59871C9.86315 5.59871 9.4641 5.76017 9.12591 6.06409C9.12253 6.06725 9.12253 6.06725 9.11915 6.07042L7.96933 7.15631C7.53646 7.56154 7.28958 8.05541 7.23547 8.62843C7.15431 9.55286 7.44515 10.414 7.66835 10.9775C8.2162 12.361 9.0346 13.6431 10.2554 15.0171C11.7367 16.6729 13.5189 17.9804 15.5548 18.9016C16.3326 19.2467 17.3708 19.6551 18.5308 19.7247C18.6018 19.7279 18.6762 19.7311 18.7438 19.7311C19.525 19.7311 20.1811 19.4683 20.6951 18.9459C20.6985 18.9396 20.7053 18.9364 20.7087 18.9301C20.8845 18.7307 21.0874 18.5502 21.3005 18.3571C21.4459 18.2273 21.5947 18.0912 21.7401 17.9487C22.0749 17.6226 22.2508 17.2427 22.2508 16.8533C22.2508 16.4608 22.0715 16.084 21.73 15.7674L19.8734 14.023ZM21.084 17.3567C21.0807 17.3599 21.0807 17.3567 21.084 17.3567C20.9522 17.4897 20.8169 17.61 20.6715 17.7429C20.4516 17.9392 20.2284 18.145 20.0188 18.3761C19.6772 18.718 19.2748 18.8795 18.7472 18.8795C18.6965 18.8795 18.6424 18.8795 18.5916 18.8763C17.5872 18.8161 16.6539 18.4489 15.9538 18.1355C14.0397 17.268 12.3589 16.0365 10.9622 14.4758C9.80904 13.1746 9.03799 11.9716 8.52733 10.6799C8.21282 9.8916 8.09784 9.27743 8.14857 8.69808C8.18238 8.32767 8.33457 8.02059 8.61526 7.75782L9.76846 6.67826C9.93417 6.53263 10.11 6.45349 10.2825 6.45349C10.4956 6.45349 10.668 6.57379 10.7762 6.6751C10.7796 6.67826 10.783 6.68143 10.7864 6.6846C10.9927 6.86505 11.1888 7.05183 11.3951 7.25128C11.5 7.35259 11.6082 7.4539 11.7164 7.55837L12.6396 8.42265C12.9981 8.75823 12.9981 9.06848 12.6396 9.40406C12.5416 9.49587 12.4469 9.58768 12.3488 9.67633C12.0647 9.94859 11.7942 10.2019 11.5 10.4488C11.4932 10.4551 11.4864 10.4583 11.483 10.4646C11.1922 10.7369 11.2463 11.0028 11.3072 11.1833C11.3106 11.1928 11.314 11.2023 11.3173 11.2118C11.5574 11.7563 11.8956 12.2692 12.4097 12.8802L12.413 12.8833C13.3464 13.9597 14.3305 14.7987 15.4161 15.4413C15.5548 15.5237 15.6968 15.5901 15.8321 15.6535C15.9538 15.7104 16.0688 15.7643 16.1669 15.8212C16.1804 15.8276 16.1939 15.8371 16.2075 15.8434C16.3224 15.8972 16.4307 15.9226 16.5423 15.9226C16.8229 15.9226 16.9988 15.7579 17.0563 15.7041L18.2129 14.6214C18.3279 14.5138 18.5105 14.384 18.7235 14.384C18.9332 14.384 19.1057 14.5074 19.2105 14.6151C19.2139 14.6182 19.2139 14.6182 19.2173 14.6214L21.0807 16.3658C21.429 16.6887 21.429 17.0211 21.084 17.3567Z" fill="url(#paint0_linear)"/>
<path d="M15.8693 8.29918C16.7553 8.43848 17.5602 8.83104 18.2027 9.43256C18.8453 10.0341 19.2612 10.7875 19.4134 11.617C19.4506 11.8259 19.6434 11.9716 19.8632 11.9716C19.8903 11.9716 19.9139 11.9684 19.941 11.9652C20.1912 11.9272 20.357 11.7056 20.3164 11.4714C20.1338 10.4678 19.6265 9.55286 18.852 8.82788C18.0776 8.1029 17.1003 7.62802 16.0282 7.45706C15.778 7.41907 15.5446 7.5742 15.5007 7.80531C15.4567 8.03641 15.619 8.26119 15.8693 8.29918Z" fill="url(#paint1_linear)"/>
<path d="M23.2146 11.3479C22.9136 9.69532 22.0817 8.19154 20.8034 6.99485C19.525 5.79816 17.9187 5.01936 16.1533 4.73759C15.9065 4.69644 15.6731 4.85473 15.6292 5.08584C15.5886 5.32011 15.7543 5.53856 16.0045 5.57971C17.5805 5.82981 19.0178 6.52947 20.1608 7.59636C21.3039 8.66642 22.0479 10.0119 22.315 11.4872C22.3522 11.6961 22.545 11.8418 22.7648 11.8418C22.7919 11.8418 22.8155 11.8386 22.8426 11.8354C23.0895 11.8006 23.2586 11.579 23.2146 11.3479Z" fill="url(#paint2_linear)"/>
<rect x="1.22156" y="1.23108" width="28" height="22" stroke="url(#paint3_linear)" stroke-miterlimit="10"/>
<defs>
<linearGradient id="paint0_linear" x1="7.21803" y1="12.2285" x2="23.2125" y2="12.2285" gradientUnits="userSpaceOnUse">
<stop stop-color="#6A5538"/>
<stop offset="0.213542" stop-color="#BC975E"/>
<stop offset="0.375" stop-color="#D9BE85"/>
<stop offset="0.552083" stop-color="#E7D491"/>
<stop offset="0.6735" stop-color="#C5A76C"/>
<stop offset="0.817708" stop-color="#BC975E"/>
<stop offset="1" stop-color="#6A5538"/>
</linearGradient>
<linearGradient id="paint1_linear" x1="7.21803" y1="12.2285" x2="23.2125" y2="12.2285" gradientUnits="userSpaceOnUse">
<stop stop-color="#6A5538"/>
<stop offset="0.213542" stop-color="#BC975E"/>
<stop offset="0.375" stop-color="#D9BE85"/>
<stop offset="0.552083" stop-color="#E7D491"/>
<stop offset="0.6735" stop-color="#C5A76C"/>
<stop offset="0.817708" stop-color="#BC975E"/>
<stop offset="1" stop-color="#6A5538"/>
</linearGradient>
<linearGradient id="paint2_linear" x1="7.21803" y1="12.2285" x2="23.2125" y2="12.2285" gradientUnits="userSpaceOnUse">
<stop stop-color="#6A5538"/>
<stop offset="0.213542" stop-color="#BC975E"/>
<stop offset="0.375" stop-color="#D9BE85"/>
<stop offset="0.552083" stop-color="#E7D491"/>
<stop offset="0.6735" stop-color="#C5A76C"/>
<stop offset="0.817708" stop-color="#BC975E"/>
<stop offset="1" stop-color="#6A5538"/>
</linearGradient>
<linearGradient id="paint3_linear" x1="0.628337" y1="12.2299" x2="29.8118" y2="12.2299" gradientUnits="userSpaceOnUse">
<stop stop-color="#6A5538"/>
<stop offset="0.265625" stop-color="#BC975E"/>
<stop offset="0.40625" stop-color="#D9BE85"/>
<stop offset="0.541667" stop-color="#E7D491"/>
<stop offset="0.6735" stop-color="#C5A76C"/>
<stop offset="0.838542" stop-color="#BC975E"/>
<stop offset="1" stop-color="#6A5538"/>
</linearGradient>
</defs>
</svg>
