<svg width="61" height="74" viewBox="0 0 61 74" fill="none" xmlns="http://www.w3.org/2000/svg">
<path d="M39.1323 17.0481H39.2173C39.2173 17.0481 39.1512 16.8817 39.1323 17.0481Z" fill="url(#paint0_linear)"/>
<path d="M18.5848 17.0481H18.6699C18.651 16.8817 18.5848 17.0481 18.5848 17.0481Z" fill="url(#paint1_linear)"/>
<path d="M59.6548 22.2869C59.1774 21.5246 58.4318 20.9939 57.5553 20.7925L52.9388 19.7318L55.0703 19.1351C56.8365 18.6408 57.9005 16.7545 57.4054 14.9851C56.911 13.219 55.025 12.1552 53.2553 12.65L43.3165 15.4317C43.0578 14.9609 42.6898 14.558 42.2466 14.2582C44.2637 10.5044 47.1697 4.13448 47.1697 1.39405C47.1697 0.725694 46.5379 0.20853 45.8823 0.340666C41.938 1.13746 38.2605 1.50514 34.6442 1.46574C30.9271 1.42492 26.3009 0.963226 23.3942 0.343084C22.4956 0.151352 21.7744 1.15695 22.2484 1.94692C22.9567 3.12746 23.3906 4.37571 23.6292 5.63377C19.981 5.74557 16.1977 5.30351 13.3343 3.87163C12.5629 3.48589 11.6525 4.1608 11.7936 5.00951C12.6942 10.4126 14.5111 13.5804 16.3327 15.9738H16.2923C14.4357 15.9738 12.9252 17.4843 12.9252 19.3409C12.9252 21.0484 14.2032 22.4621 15.8525 22.6784C14.6502 24.6922 12.9332 26.6028 11.1291 28.6077C7.29257 32.8714 2.94404 37.7039 1.48101 45.5067C0.780938 49.2403 0.804264 52.7337 1.55057 55.8901C2.24723 58.8369 3.57413 61.5043 5.49416 63.8178C8.04285 66.889 11.5445 69.2718 15.9017 70.9007C19.8267 72.3678 24.3217 73.1433 28.9011 73.1433C33.4805 73.1433 37.9756 72.3678 41.9004 70.9007C46.2576 69.2718 49.7593 66.8888 52.308 63.8178C54.228 61.5043 55.5549 58.8371 56.2516 55.8901C56.9978 52.7337 57.0212 49.2401 56.3212 45.5067C54.8581 37.7041 50.5097 32.8715 46.6733 28.6079C45.3708 27.1604 44.1317 25.7803 43.0928 24.3795L56.0474 27.3559C57.4198 27.6713 58.8822 27.0709 59.6403 25.885C60.3342 24.7991 60.3383 23.3775 59.6548 22.2869ZM34.6206 3.61476C37.9294 3.65089 41.2782 3.36158 44.8154 2.7312C44.1668 5.38287 42.0841 10.0991 40.1086 13.6918C38.7396 13.7949 37.5969 14.7197 37.1733 15.9736H34.1898C34.1224 15.8284 34.0477 15.6693 33.9645 15.4925C33.042 13.5313 31.1221 9.45063 31.1221 5.97898C31.1221 5.31161 30.4918 4.79416 29.8367 4.9253C28.5862 5.17549 27.2103 5.37789 25.7788 5.50477C25.6287 4.60812 25.3959 3.71005 25.0573 2.82678C27.9447 3.27368 31.5818 3.58133 34.6206 3.61476ZM41.5816 17.0481V21.6331C41.5816 22.3046 41.0352 22.8511 40.3636 22.8511C39.692 22.8511 39.1457 22.3048 39.1457 21.6331V17.0481C39.1457 16.3764 39.692 15.8301 40.3636 15.8301C41.0352 15.8301 41.5816 16.3766 41.5816 17.0481ZM14.2986 6.59272C16.9851 7.5097 20.2899 7.91635 23.859 7.7909L25.9888 7.65635C26.9934 7.56418 28.0127 7.43147 29.0395 7.25781C29.3746 10.5824 30.8934 13.9986 31.8162 15.9736H19.0753C19.0512 15.9359 19.0253 15.899 18.9962 15.8637C17.1988 13.7013 15.3749 11.2001 14.2986 6.59272ZM45.0755 30.0452C48.7231 34.0986 52.8569 38.6927 54.209 45.9024C55.4531 52.538 54.257 58.1036 50.6541 62.4447C46.2116 67.7977 38.0796 70.9937 28.9012 70.9937C19.7228 70.9937 11.5907 67.7978 7.1482 62.4449C3.54526 58.1037 2.34936 52.5381 3.59334 45.9026C4.94527 38.6927 9.07931 34.0984 12.7268 30.0452C14.9076 27.6213 16.9681 25.3288 18.2886 22.7079H20.9131C21.5068 22.7079 21.9876 22.2267 21.9876 21.6333C21.9876 21.0397 21.5066 20.5587 20.9131 20.5587H16.2922C15.6205 20.5587 15.0742 20.0124 15.0742 19.3407C15.0742 18.6691 15.6205 18.1228 16.2922 18.1228H36.9963V20.5586H26.0352C25.4415 20.5586 24.9606 21.0397 24.9606 21.6331C24.9606 22.2265 25.4417 22.7077 26.0352 22.7077H37.1731C37.6228 24.0388 38.8825 25.0003 40.3635 25.0003C40.5346 25.0003 40.7024 24.9872 40.8668 24.9626C42.0661 26.6974 43.528 28.3256 45.0755 30.0452ZM43.7309 17.5476L53.8345 14.7198C54.4742 14.5405 55.157 14.9259 55.3356 15.5644C55.5145 16.2043 55.1298 16.8868 54.491 17.0654L48.7169 18.6815C48.6698 18.6947 48.6249 18.7118 48.5812 18.7307L43.7309 17.6163V17.5476ZM57.9883 24.3467C57.8378 25.0012 57.1841 25.4116 56.5285 25.261L43.6633 22.3051C43.7074 22.0879 43.7307 21.8631 43.7307 21.633V19.8212L57.0739 22.8869C57.7206 23.0356 58.1369 23.6994 57.9883 24.3467Z" fill="url(#paint2_linear)"/>
<path d="M35.7787 44.4866C37.3192 44.4866 38.5727 43.2333 38.5727 41.6926V39.9733C38.5727 35.9526 35.5738 32.6195 31.6951 32.0935V30.2301C31.6951 28.6895 30.4417 27.436 28.9011 27.436C27.3605 27.436 26.107 28.6894 26.107 30.2301V32.2357C22.1249 33.124 19.2294 36.664 19.2294 40.8329C19.2294 45.6918 23.1824 49.6448 28.0412 49.6448H29.7606C31.5381 49.6448 32.9845 51.0909 32.9845 52.8686C32.9845 54.6464 31.5382 56.0925 29.7606 56.0925H27.1814C25.8777 56.0925 24.8172 55.0319 24.8172 53.7283C24.8172 52.1878 23.5639 50.9343 22.0232 50.9343C20.4826 50.9343 19.2291 52.1876 19.2291 53.7283C19.2291 57.749 22.228 61.0821 26.1067 61.6081V63.4715C26.1067 65.012 27.3601 66.2655 28.9008 66.2655C30.4413 66.2655 31.6948 65.0122 31.6948 63.4715V61.4659C35.677 60.5776 38.5724 57.0375 38.5724 52.8686C38.5724 48.0098 34.6194 44.0568 29.7606 44.0568H28.0412C26.2637 44.0568 24.8174 42.6107 24.8174 40.8329C24.8174 39.0551 26.2636 37.609 28.0412 37.609H30.6204C31.9241 37.609 32.9846 38.6697 32.9846 39.9733V41.6926C32.9846 43.2331 34.2381 44.4866 35.7787 44.4866ZM30.6205 35.4599H28.0414C25.0786 35.4599 22.6683 37.8702 22.6683 40.8329C22.6683 43.7957 25.0786 46.206 28.0414 46.206H29.7607C33.4346 46.206 36.4234 49.1949 36.4234 52.8686C36.4234 56.2679 33.8775 59.1139 30.5019 59.4889C29.9577 59.5494 29.5459 60.0094 29.5459 60.557V63.4715C29.5459 63.8269 29.2566 64.1162 28.9012 64.1162C28.5458 64.1162 28.2564 63.8269 28.2564 63.4715V60.6059C28.2564 60.0124 27.7754 59.5313 27.1819 59.5313C23.982 59.5313 21.379 56.9282 21.379 53.7285C21.379 53.373 21.6683 53.0837 22.0237 53.0837C22.3792 53.0837 22.6685 53.373 22.6685 53.7285C22.6685 56.2171 24.6932 58.2418 27.1819 58.2418H29.761C32.7237 58.2418 35.134 55.8315 35.134 52.8688C35.134 49.906 32.7237 47.4957 29.761 47.4957H28.0417C24.3678 47.4957 21.379 44.5068 21.379 40.8331C21.379 37.4338 23.9248 34.5878 27.3005 34.2128C27.8447 34.1523 28.2564 33.6923 28.2564 33.1447V30.2302C28.2564 29.8748 28.5458 29.5855 28.9012 29.5855C29.2566 29.5855 29.5459 29.8748 29.5459 30.2302V33.0958C29.5459 33.6893 30.027 34.1704 30.6205 34.1704C33.8204 34.1704 36.4234 36.7736 36.4234 39.9733V41.6926C36.4234 42.048 36.1341 42.3373 35.7787 42.3373C35.4232 42.3373 35.1339 42.048 35.1339 41.6926V39.9733C35.1339 37.4846 33.1092 35.4599 30.6205 35.4599Z" fill="url(#paint3_linear)"/>
<defs>
<linearGradient id="paint0_linear" x1="-3.97335" y1="67.6151" x2="64.8195" y2="67.7867" gradientUnits="userSpaceOnUse">
<stop stop-color="#6A5538"/>
<stop offset="0.213542" stop-color="#BC975E"/>
<stop offset="0.375" stop-color="#D9BE85"/>
<stop offset="0.552083" stop-color="#E7D491"/>
<stop offset="0.689617" stop-color="#C5A76C"/>
<stop offset="0.817708" stop-color="#BC975E"/>
<stop offset="1" stop-color="#6A5538"/>
</linearGradient>
<linearGradient id="paint1_linear" x1="-3.97335" y1="67.6151" x2="64.8195" y2="67.7867" gradientUnits="userSpaceOnUse">
<stop stop-color="#6A5538"/>
<stop offset="0.213542" stop-color="#BC975E"/>
<stop offset="0.375" stop-color="#D9BE85"/>
<stop offset="0.552083" stop-color="#E7D491"/>
<stop offset="0.689617" stop-color="#C5A76C"/>
<stop offset="0.817708" stop-color="#BC975E"/>
<stop offset="1" stop-color="#6A5538"/>
</linearGradient>
<linearGradient id="paint2_linear" x1="-3.97335" y1="67.6151" x2="64.8195" y2="67.7867" gradientUnits="userSpaceOnUse">
<stop stop-color="#6A5538"/>
<stop offset="0.213542" stop-color="#BC975E"/>
<stop offset="0.375" stop-color="#D9BE85"/>
<stop offset="0.552083" stop-color="#E7D491"/>
<stop offset="0.689617" stop-color="#C5A76C"/>
<stop offset="0.817708" stop-color="#BC975E"/>
<stop offset="1" stop-color="#6A5538"/>
</linearGradient>
<linearGradient id="paint3_linear" x1="-3.97335" y1="67.6151" x2="64.8195" y2="67.7867" gradientUnits="userSpaceOnUse">
<stop stop-color="#6A5538"/>
<stop offset="0.213542" stop-color="#BC975E"/>
<stop offset="0.375" stop-color="#D9BE85"/>
<stop offset="0.552083" stop-color="#E7D491"/>
<stop offset="0.689617" stop-color="#C5A76C"/>
<stop offset="0.817708" stop-color="#BC975E"/>
<stop offset="1" stop-color="#6A5538"/>
</linearGradient>
</defs>
</svg>
