<svg width="65" height="65" viewBox="0 0 65 65" fill="none" xmlns="http://www.w3.org/2000/svg">
<path d="M63.6561 25.7299C64.175 25.7299 64.5955 25.3093 64.5955 24.7905V1.7039C64.5955 1.18515 64.175 0.764526 63.6561 0.764526H15.5622C15.0435 0.764526 14.6228 1.18515 14.6228 1.7039V40.8429H9.55046C6.82258 40.8429 4.60333 43.0623 4.60333 45.79V54.8703H1.53483C1.01608 54.8703 0.595459 55.2909 0.595459 55.8097V59.8175C0.595459 62.5452 2.81483 64.7645 5.54258 64.7645H39.6092C42.3371 64.7645 44.5563 62.5452 44.5563 59.8174V55.7469H57.6443C61.4772 55.7469 64.5955 52.6287 64.5955 48.7958V29.2994C64.5955 28.7807 64.175 28.36 63.6561 28.36C63.1372 28.36 62.7167 28.7807 62.7167 29.2994V48.7958C62.7167 51.5928 60.4412 53.8682 57.6443 53.8682C54.8473 53.8682 52.572 51.5927 52.572 48.7958V45.7899C52.572 43.062 50.3526 40.8428 47.6248 40.8428H16.5016V2.64315H62.7168V24.7905C62.7168 25.3094 63.1372 25.7299 63.6561 25.7299ZM44.5563 45.7899C44.5563 44.098 45.9327 42.7214 47.6248 42.7214C49.3168 42.7214 50.6933 44.098 50.6933 45.7899V48.7958C50.6933 50.7945 51.5413 52.5989 52.8963 53.8682H44.5563V45.7899ZM5.54258 62.8859C3.85071 62.8859 2.47408 61.5093 2.47408 59.8174V56.7489H34.662V59.8174C34.662 60.9755 35.062 62.042 35.7311 62.8859H5.54258ZM43.7467 42.7215C43.245 43.3544 42.8945 44.1125 42.7506 44.9407C42.7026 45.2167 42.6776 45.5005 42.6776 45.79V59.8174C42.6776 61.5093 41.3012 62.8859 39.6091 62.8859C37.9171 62.8859 36.5406 61.5093 36.5406 59.8174V55.8095C36.5406 55.2908 36.1201 54.8702 35.6012 54.8702H6.48196V45.7899C6.48196 44.098 7.85858 42.7214 9.55046 42.7214H43.7467V42.7215Z" fill="url(#paint0_linear)"/>
<path d="M35.6013 45.8525H13.5583C13.0396 45.8525 12.619 46.2732 12.619 46.7919C12.619 47.3106 13.0396 47.7313 13.5583 47.7313H35.6013C36.1202 47.7313 36.5407 47.3106 36.5407 46.7919C36.5407 46.2732 36.1202 45.8525 35.6013 45.8525Z" fill="url(#paint1_linear)"/>
<path d="M19.57 50.8624H13.5582C13.0395 50.8624 12.6188 51.283 12.6188 51.8018C12.6188 52.3205 13.0395 52.7411 13.5582 52.7411H19.57C20.0887 52.7411 20.5093 52.3205 20.5093 51.8018C20.5093 51.2829 20.0888 50.8624 19.57 50.8624Z" fill="url(#paint2_linear)"/>
<path d="M35.6013 50.8624H23.5778C23.0591 50.8624 22.6385 51.283 22.6385 51.8018C22.6385 52.3205 23.0591 52.7411 23.5778 52.7411H35.6013C36.1202 52.7411 36.5407 52.3205 36.5407 51.8018C36.5407 51.2829 36.1202 50.8624 35.6013 50.8624Z" fill="url(#paint3_linear)"/>
<path d="M51.9001 26.395C51.3871 25.1495 50.6442 24.035 49.6917 23.0825C48.8903 22.2813 47.9732 21.6303 46.961 21.1379V14.7293C46.961 14.7059 46.9592 14.6829 46.9575 14.66C46.9438 14.4819 46.8801 14.3092 46.7731 14.1657L40.7613 6.15003C40.3918 5.65715 39.628 5.65715 39.2585 6.15003L33.2467 14.1657C33.1265 14.3268 33.0588 14.528 33.0588 14.7293V21.1379C32.0465 21.6304 31.1293 22.2814 30.3281 23.0827C29.3756 24.0352 28.6326 25.1495 28.1197 26.3952C27.8693 27.0033 28.3318 27.692 28.9883 27.692H51.0313C51.6878 27.6922 52.1506 27.0032 51.9001 26.395ZM33.0588 25.8134H30.5296C30.8513 25.3085 31.228 24.8397 31.6566 24.411C32.0852 23.9824 32.554 23.6058 33.0588 23.2842V25.8134ZM40.01 8.27915L44.1431 13.7899H35.877L40.01 8.27915ZM45.0823 25.8135H34.9375V15.6687H45.0823V25.8135ZM46.961 25.8134V23.2844C47.4658 23.606 47.9347 23.9825 48.3632 24.4112C48.7918 24.8398 49.1685 25.3085 49.4901 25.8135L46.961 25.8134Z" fill="url(#paint4_linear)"/>
<path d="M40.01 17.7978C38.3871 17.7978 37.0667 19.1182 37.0667 20.741C37.0667 22.3639 38.3871 23.6843 40.01 23.6843C41.6328 23.6843 42.9532 22.3639 42.9532 20.741C42.9532 19.1182 41.6328 17.7978 40.01 17.7978ZM40.01 21.8057C39.423 21.8057 38.9453 21.3282 38.9453 20.741C38.9453 20.1539 39.4228 19.6764 40.01 19.6764C40.5971 19.6764 41.0746 20.1539 41.0746 20.741C41.0746 21.3282 40.597 21.8057 40.01 21.8057Z" fill="url(#paint5_linear)"/>
<path d="M40.6111 30.8233H25.5817C25.063 30.8233 24.6423 31.2439 24.6423 31.7627C24.6423 32.2814 25.063 32.702 25.5817 32.702H40.6111C41.13 32.702 41.5505 32.2814 41.5505 31.7627C41.5505 31.2438 41.13 30.8233 40.6111 30.8233Z" fill="url(#paint6_linear)"/>
<path d="M32.5955 35.833H25.5817C25.063 35.833 24.6423 36.2537 24.6423 36.7724C24.6423 37.2911 25.063 37.7118 25.5817 37.7118H32.5955C33.1143 37.7118 33.5348 37.2911 33.5348 36.7724C33.5348 36.2537 33.1143 35.833 32.5955 35.833Z" fill="url(#paint7_linear)"/>
<path d="M53.6366 35.833H36.6033C36.0845 35.833 35.664 36.2537 35.664 36.7724C35.664 37.2911 36.0845 37.7118 36.6033 37.7118H53.6366C54.1555 37.7118 54.576 37.2911 54.576 36.7724C54.576 36.2537 54.1555 35.833 53.6366 35.833Z" fill="url(#paint8_linear)"/>
<path d="M52.6346 30.8233H44.619C44.1001 30.8233 43.6796 31.2439 43.6796 31.7627C43.6796 32.2814 44.1001 32.702 44.619 32.702H52.6346C53.1535 32.702 53.574 32.2814 53.574 31.7627C53.574 31.2438 53.1535 30.8233 52.6346 30.8233Z" fill="url(#paint9_linear)"/>
<path d="M28.5876 15.2178C29.1063 15.2178 29.527 14.7972 29.527 14.2784V13.6272C29.527 12.1292 28.3823 10.8934 26.9218 10.7484V9.71953C26.9218 9.20078 26.5012 8.78015 25.9825 8.78015C25.4637 8.78015 25.0431 9.20078 25.0431 9.71953V10.7934C23.5608 11.0808 22.438 12.3878 22.438 13.9528C22.438 15.7277 23.882 17.1715 25.6567 17.1715H26.308C27.0468 17.1715 27.6481 17.7727 27.6481 18.5117C27.6481 19.2507 27.047 19.8518 26.308 19.8518H25.3311C24.7717 19.8518 24.3166 19.3967 24.3166 18.8373C24.3166 18.3185 23.896 17.8979 23.3772 17.8979C22.8585 17.8979 22.4378 18.3185 22.4378 18.8373C22.4378 20.3353 23.5825 21.571 25.043 21.716V22.7449C25.043 23.2637 25.4636 23.6843 25.9823 23.6843C26.5011 23.6843 26.9217 23.2637 26.9217 22.7449V21.671C28.4038 21.3837 29.5268 20.0767 29.5268 18.5117C29.5268 16.7368 28.0828 15.2929 26.3081 15.2929H25.6568C24.918 15.2929 24.3167 14.6918 24.3167 13.9528C24.3167 13.2139 24.9178 12.6127 25.6568 12.6127H26.6337C27.1931 12.6127 27.6482 13.0678 27.6482 13.6272V14.2784C27.6483 14.7972 28.0688 15.2178 28.5876 15.2178Z" fill="url(#paint10_linear)"/>
<path d="M56.6425 15.2178C57.1613 15.2178 57.5818 14.7972 57.5818 14.2784V13.6272C57.5818 12.1292 56.4373 10.8934 54.9767 10.7484V9.71953C54.9767 9.20078 54.5562 8.78015 54.0373 8.78015C53.5185 8.78015 53.098 9.20078 53.098 9.71953V10.7934C51.6157 11.0807 50.4928 12.3878 50.4928 13.9528C50.4928 15.7277 51.9367 17.1715 53.7115 17.1715H54.3627C55.1017 17.1715 55.7028 17.7727 55.7028 18.5117C55.7028 19.2507 55.1017 19.8518 54.3627 19.8518H53.3858C52.8265 19.8518 52.3713 19.3967 52.3713 18.8373C52.3713 18.3185 51.9508 17.8979 51.432 17.8979C50.9131 17.8979 50.4926 18.3185 50.4926 18.8373C50.4926 20.3353 51.6371 21.571 53.0977 21.716V22.7449C53.0977 23.2637 53.5182 23.6843 54.0371 23.6843C54.556 23.6843 54.9765 23.2637 54.9765 22.7449V21.671C56.4586 21.3837 57.5816 20.0767 57.5816 18.5117C57.5816 16.7368 56.1376 15.2929 54.3628 15.2929H53.7116C52.9727 15.2929 52.3716 14.6918 52.3716 13.9528C52.3716 13.2139 52.9727 12.6127 53.7116 12.6127H54.6886C55.248 12.6127 55.7031 13.0678 55.7031 13.6272V14.2784C55.7031 14.7972 56.1236 15.2178 56.6425 15.2178Z" fill="url(#paint11_linear)"/>
<defs>
<linearGradient id="paint0_linear" x1="0.581345" y1="32.7534" x2="64.5592" y2="32.7534" gradientUnits="userSpaceOnUse">
<stop stop-color="#6A5538"/>
<stop offset="0.213542" stop-color="#BC975E"/>
<stop offset="0.375" stop-color="#D9BE85"/>
<stop offset="0.552083" stop-color="#E7D491"/>
<stop offset="0.6735" stop-color="#C5A76C"/>
<stop offset="0.817708" stop-color="#BC975E"/>
<stop offset="1" stop-color="#6A5538"/>
</linearGradient>
<linearGradient id="paint1_linear" x1="0.581345" y1="32.7534" x2="64.5592" y2="32.7534" gradientUnits="userSpaceOnUse">
<stop stop-color="#6A5538"/>
<stop offset="0.213542" stop-color="#BC975E"/>
<stop offset="0.375" stop-color="#D9BE85"/>
<stop offset="0.552083" stop-color="#E7D491"/>
<stop offset="0.6735" stop-color="#C5A76C"/>
<stop offset="0.817708" stop-color="#BC975E"/>
<stop offset="1" stop-color="#6A5538"/>
</linearGradient>
<linearGradient id="paint2_linear" x1="0.581345" y1="32.7534" x2="64.5592" y2="32.7534" gradientUnits="userSpaceOnUse">
<stop stop-color="#6A5538"/>
<stop offset="0.213542" stop-color="#BC975E"/>
<stop offset="0.375" stop-color="#D9BE85"/>
<stop offset="0.552083" stop-color="#E7D491"/>
<stop offset="0.6735" stop-color="#C5A76C"/>
<stop offset="0.817708" stop-color="#BC975E"/>
<stop offset="1" stop-color="#6A5538"/>
</linearGradient>
<linearGradient id="paint3_linear" x1="0.581345" y1="32.7534" x2="64.5592" y2="32.7534" gradientUnits="userSpaceOnUse">
<stop stop-color="#6A5538"/>
<stop offset="0.213542" stop-color="#BC975E"/>
<stop offset="0.375" stop-color="#D9BE85"/>
<stop offset="0.552083" stop-color="#E7D491"/>
<stop offset="0.6735" stop-color="#C5A76C"/>
<stop offset="0.817708" stop-color="#BC975E"/>
<stop offset="1" stop-color="#6A5538"/>
</linearGradient>
<linearGradient id="paint4_linear" x1="0.581345" y1="32.7534" x2="64.5592" y2="32.7534" gradientUnits="userSpaceOnUse">
<stop stop-color="#6A5538"/>
<stop offset="0.213542" stop-color="#BC975E"/>
<stop offset="0.375" stop-color="#D9BE85"/>
<stop offset="0.552083" stop-color="#E7D491"/>
<stop offset="0.6735" stop-color="#C5A76C"/>
<stop offset="0.817708" stop-color="#BC975E"/>
<stop offset="1" stop-color="#6A5538"/>
</linearGradient>
<linearGradient id="paint5_linear" x1="0.581345" y1="32.7534" x2="64.5592" y2="32.7534" gradientUnits="userSpaceOnUse">
<stop stop-color="#6A5538"/>
<stop offset="0.213542" stop-color="#BC975E"/>
<stop offset="0.375" stop-color="#D9BE85"/>
<stop offset="0.552083" stop-color="#E7D491"/>
<stop offset="0.6735" stop-color="#C5A76C"/>
<stop offset="0.817708" stop-color="#BC975E"/>
<stop offset="1" stop-color="#6A5538"/>
</linearGradient>
<linearGradient id="paint6_linear" x1="0.581345" y1="32.7534" x2="64.5592" y2="32.7534" gradientUnits="userSpaceOnUse">
<stop stop-color="#6A5538"/>
<stop offset="0.213542" stop-color="#BC975E"/>
<stop offset="0.375" stop-color="#D9BE85"/>
<stop offset="0.552083" stop-color="#E7D491"/>
<stop offset="0.6735" stop-color="#C5A76C"/>
<stop offset="0.817708" stop-color="#BC975E"/>
<stop offset="1" stop-color="#6A5538"/>
</linearGradient>
<linearGradient id="paint7_linear" x1="0.581345" y1="32.7534" x2="64.5592" y2="32.7534" gradientUnits="userSpaceOnUse">
<stop stop-color="#6A5538"/>
<stop offset="0.213542" stop-color="#BC975E"/>
<stop offset="0.375" stop-color="#D9BE85"/>
<stop offset="0.552083" stop-color="#E7D491"/>
<stop offset="0.6735" stop-color="#C5A76C"/>
<stop offset="0.817708" stop-color="#BC975E"/>
<stop offset="1" stop-color="#6A5538"/>
</linearGradient>
<linearGradient id="paint8_linear" x1="0.581345" y1="32.7534" x2="64.5592" y2="32.7534" gradientUnits="userSpaceOnUse">
<stop stop-color="#6A5538"/>
<stop offset="0.213542" stop-color="#BC975E"/>
<stop offset="0.375" stop-color="#D9BE85"/>
<stop offset="0.552083" stop-color="#E7D491"/>
<stop offset="0.6735" stop-color="#C5A76C"/>
<stop offset="0.817708" stop-color="#BC975E"/>
<stop offset="1" stop-color="#6A5538"/>
</linearGradient>
<linearGradient id="paint9_linear" x1="0.581345" y1="32.7534" x2="64.5592" y2="32.7534" gradientUnits="userSpaceOnUse">
<stop stop-color="#6A5538"/>
<stop offset="0.213542" stop-color="#BC975E"/>
<stop offset="0.375" stop-color="#D9BE85"/>
<stop offset="0.552083" stop-color="#E7D491"/>
<stop offset="0.6735" stop-color="#C5A76C"/>
<stop offset="0.817708" stop-color="#BC975E"/>
<stop offset="1" stop-color="#6A5538"/>
</linearGradient>
<linearGradient id="paint10_linear" x1="0.581345" y1="32.7534" x2="64.5592" y2="32.7534" gradientUnits="userSpaceOnUse">
<stop stop-color="#6A5538"/>
<stop offset="0.213542" stop-color="#BC975E"/>
<stop offset="0.375" stop-color="#D9BE85"/>
<stop offset="0.552083" stop-color="#E7D491"/>
<stop offset="0.6735" stop-color="#C5A76C"/>
<stop offset="0.817708" stop-color="#BC975E"/>
<stop offset="1" stop-color="#6A5538"/>
</linearGradient>
<linearGradient id="paint11_linear" x1="0.581345" y1="32.7534" x2="64.5592" y2="32.7534" gradientUnits="userSpaceOnUse">
<stop stop-color="#6A5538"/>
<stop offset="0.213542" stop-color="#BC975E"/>
<stop offset="0.375" stop-color="#D9BE85"/>
<stop offset="0.552083" stop-color="#E7D491"/>
<stop offset="0.6735" stop-color="#C5A76C"/>
<stop offset="0.817708" stop-color="#BC975E"/>
<stop offset="1" stop-color="#6A5538"/>
</linearGradient>
</defs>
</svg>
