<svg width="67" height="60" viewBox="0 0 67 60" fill="none" xmlns="http://www.w3.org/2000/svg">
<path d="M62.7705 10.1708H48.5312V5.78947C48.5275 2.76608 46.078 0.316564 43.0546 0.31282H23.3386C20.3152 0.316564 17.8657 2.76608 17.862 5.78947V10.1708H3.62266C1.80799 10.1708 0.33667 11.6421 0.33667 13.4568V37.8386C0.343623 39.2281 1.21914 40.4641 2.52733 40.931V56.1747C2.52733 57.9894 3.99865 59.4607 5.81332 59.4607H60.5799C62.3945 59.4607 63.8659 57.9894 63.8659 56.1747V40.932C65.174 40.4646 66.0501 39.2281 66.0565 37.8386V13.4568C66.0565 11.6421 64.5852 10.1708 62.7705 10.1708ZM20.0526 5.78947C20.0526 3.9748 21.5239 2.50348 23.3386 2.50348H43.0546C44.8692 2.50348 46.3406 3.9748 46.3406 5.78947V10.1708H44.1499V5.78947C44.1499 5.18458 43.6595 4.69414 43.0546 4.69414H23.3386C22.7337 4.69414 22.2433 5.18458 22.2433 5.78947V10.1708H20.0526V5.78947ZM41.9592 10.1708H24.4339V6.8848H41.9592V10.1708ZM61.6752 56.1747C61.6752 56.7796 61.1847 57.27 60.5799 57.27H5.81332C5.20843 57.27 4.71799 56.7796 4.71799 56.1747V41.3075L28.8153 44.6309V47.412C28.8153 49.2267 30.2866 50.698 32.1013 50.698H34.2919C36.1066 50.698 37.5779 49.2267 37.5779 47.412V44.6309L61.6752 41.3075V56.1747ZM35.3873 47.412C35.3873 48.0169 34.8968 48.5074 34.2919 48.5074H32.1013C31.4964 48.5074 31.0059 48.0169 31.0059 47.412V40.8401C31.0059 40.2352 31.4964 39.7447 32.1013 39.7447H34.2919C34.8968 39.7447 35.3873 40.2352 35.3873 40.8401V47.412ZM63.8659 37.8386C63.8664 38.3847 63.4647 38.8478 62.924 38.9243L62.6202 38.966L37.5779 42.4194V40.8401C37.5779 39.0254 36.1066 37.5541 34.2919 37.5541H32.1013C30.2866 37.5541 28.8153 39.0254 28.8153 40.8401V42.4194L3.47024 38.9243C2.92952 38.8484 2.5268 38.3852 2.52733 37.8386V13.4568C2.52733 12.8519 3.01777 12.3615 3.62266 12.3615H62.7705C63.3754 12.3615 63.8659 12.8519 63.8659 13.4568V37.8386Z" fill="url(#paint0_linear)"/>
<defs>
<linearGradient id="paint0_linear" x1="-5.15507" y1="54.9707" x2="71.225" y2="55.2312" gradientUnits="userSpaceOnUse">
<stop stop-color="#6A5538"/>
<stop offset="0.213542" stop-color="#BC975E"/>
<stop offset="0.375" stop-color="#D9BE85"/>
<stop offset="0.552083" stop-color="#E7D491"/>
<stop offset="0.689617" stop-color="#C5A76C"/>
<stop offset="0.817708" stop-color="#BC975E"/>
<stop offset="1" stop-color="#6A5538"/>
</linearGradient>
</defs>
</svg>
