<svg width="62" height="61" viewBox="0 0 62 61" fill="none" xmlns="http://www.w3.org/2000/svg">
<path d="M19.6333 34.5841C17.98 34.5841 16.6367 33.365 16.5333 31.7394C20.46 30.1138 22.8367 26.253 22.7333 22.0874C22.7333 21.8842 22.7333 21.4778 22.7333 21.3762C22.7333 16.2962 18.6 12.2323 13.4333 12.2323H1.03333C0.413333 12.2323 0 12.6387 0 13.2483C0 15.585 0.93 17.8202 2.48 19.4458C2.27333 20.4618 2.06667 21.3762 2.06667 22.3922C2.06667 26.4562 4.54667 30.1138 8.26667 31.7394C8.16333 33.365 6.82 34.5841 5.16667 34.5841C2.27333 34.5841 0 36.8193 0 39.6641V59.984C0 60.5936 0.413333 61 1.03333 61H23.7667C24.3867 61 24.8 60.5936 24.8 59.984V39.6641C24.8 36.8193 22.5267 34.5841 19.6333 34.5841ZM2.17 14.2643H13.4333C17.05 14.2643 20.0467 16.9058 20.5633 20.3602H9.3C5.68333 20.3602 2.68667 17.7186 2.17 14.2643ZM4.13333 22.3922C4.13333 21.8842 4.13333 21.3762 4.23667 20.9698C5.78667 21.8842 7.54333 22.3922 9.3 22.3922H20.6667C20.6667 25.8466 18.4967 28.8946 15.19 30.0122C14.7767 30.1138 14.4667 30.5202 14.4667 30.9266V31.5362C14.4667 32.857 14.9833 34.1777 16.0167 35.1937L13.33 35.6001H11.47L8.78333 35.1937C9.81667 34.2793 10.3333 32.9586 10.3333 31.5362V31.0282C10.3333 30.6218 10.0233 30.2154 9.61 30.1138C6.30333 28.8946 4.13333 25.8466 4.13333 22.3922ZM14.4667 49.5193L12.4 51.4497L10.4367 49.5193L12.2967 37.6321H12.6067L14.4667 49.5193ZM2.06667 39.6641C2.06667 38.0385 3.41 36.6161 5.06333 36.6161L10.1267 37.4289L8.16333 49.6209C8.16333 49.9257 8.26667 50.2305 8.47333 50.5353L11.5733 53.5832C11.9867 53.9896 12.6067 53.9896 13.02 53.5832L16.12 50.5353C16.3267 50.3321 16.43 50.0273 16.43 49.6209L14.4667 37.4289L19.53 36.6161C21.1833 36.6161 22.5267 38.0385 22.5267 39.6641V54.904H2.06667V39.6641ZM22.7333 58.968H2.06667V56.936H22.7333V58.968Z" fill="url(#paint0_linear)"/>
<path d="M57.8667 8.16829H53.2167L52.08 6.4411C51.5633 5.6283 50.53 5.1203 49.4967 5.1203H47.2233C46.7067 5.1203 46.2933 4.8155 46.19 4.30751C45.1567 1.05632 41.7467 -0.670866 38.44 0.243529C36.4767 0.853126 34.9267 2.37712 34.3067 4.30751C34.2033 4.7139 33.79 5.1203 33.2733 5.1203H31C29.9667 5.1203 29.0367 5.6283 28.4167 6.4411L27.3833 8.16829H22.7333C20.46 8.16829 18.6 9.99708 18.6 12.2323H20.6667C20.6667 11.1147 21.5967 10.2003 22.7333 10.2003H26.04C25.42 11.1147 25.8333 12.4355 26.7633 12.9435C27.0733 13.1467 27.4867 13.2483 27.7967 13.2483H52.9067C54.0433 13.2483 54.9733 12.3339 54.9733 11.2163C54.9733 10.8099 54.87 10.5051 54.6633 10.2003H57.8667C59.0033 10.2003 59.9333 11.1147 59.9333 12.2323V56.936C59.9333 58.0536 59.0033 58.968 57.8667 58.968H26.8667V61H57.8667C60.14 61 62 59.1712 62 56.936V12.2323C62 9.99708 60.14 8.16829 57.8667 8.16829ZM27.7967 11.2163L30.1733 7.55869C30.38 7.35549 30.69 7.15229 31.1033 7.15229H33.3767C34.72 7.15229 35.96 6.2379 36.3733 4.9171C37.0967 2.78352 39.37 1.56432 41.54 2.27552C42.8833 2.68192 43.8133 3.69791 44.2267 4.9171C44.64 6.2379 45.88 7.15229 47.2233 7.15229H49.4967C49.8067 7.15229 50.1167 7.35549 50.3233 7.55869L52.8033 11.2163H27.7967Z" fill="url(#paint1_linear)"/>
<path d="M41.3333 4.10431H39.2667V6.1363H41.3333V4.10431Z" fill="url(#paint2_linear)"/>
<path d="M35.8567 25.1354L34.41 23.713L32.0333 26.0498L29.6567 23.713L28.21 25.1354L30.5867 27.4722L28.21 29.809L29.6567 31.2314L32.0333 28.8946L34.41 31.2314L35.8567 29.809L33.48 27.4722L35.8567 25.1354Z" fill="url(#paint3_linear)"/>
<path d="M47.2233 45.4553L45.7767 44.0329L43.4 46.3697L41.0233 44.0329L39.5767 45.4553L41.9533 47.7921L39.5767 50.1289L41.0233 51.5513L43.4 49.2145L45.7767 51.5513L47.2233 50.1289L44.8467 47.7921L47.2233 45.4553Z" fill="url(#paint4_linear)"/>
<path d="M48.2567 28.793C47.8433 28.3866 47.2233 28.3866 46.81 28.793L42.6767 32.857L44.1233 34.2793L46.5 31.9426V34.0761C46.5 36.6161 44.4333 38.6481 41.85 38.6481C38.13 38.6481 35.1333 41.5945 35.1333 45.2521V46.2681C35.1333 48.8081 33.0667 50.8401 30.4833 50.8401H27.9V52.872H30.4833C34.2033 52.872 37.2 49.9257 37.2 46.2681V45.2521C37.2 42.7121 39.2667 40.6801 41.85 40.6801C45.57 40.6801 48.5667 37.7337 48.5667 34.0761V31.9426L50.9433 34.2793L52.39 32.857L48.2567 28.793Z" fill="url(#paint5_linear)"/>
<path d="M54.4567 17.109L53.01 15.585L51.6667 16.9058C49.1867 14.6706 45.26 14.8738 42.9867 17.4138C40.7133 19.9538 40.92 23.713 43.5033 25.9482C46.0867 28.1834 49.91 27.9802 52.1833 25.4402C53.94 23.5098 54.25 20.7666 53.01 18.5314L54.4567 17.109ZM47.5333 25.4402C45.26 25.4402 43.4 23.6114 43.4 21.3762C43.4 19.141 45.26 17.3122 47.5333 17.3122C48.5667 17.3122 49.4967 17.7186 50.22 18.3282L47.5333 20.9698L46.19 19.649L44.7433 21.0714L46.81 23.1034C47.2233 23.5098 47.8433 23.5098 48.2567 23.1034L51.3567 20.0554C51.5633 20.4618 51.6667 20.8682 51.6667 21.3762C51.6667 23.6114 49.8067 25.4402 47.5333 25.4402Z" fill="url(#paint6_linear)"/>
<path d="M19.6333 41.6961H16.5333V43.7281H19.6333V41.6961Z" fill="url(#paint7_linear)"/>
<path d="M55.8 13.2483V54.904H26.8667V56.936H56.8333C57.4533 56.936 57.8667 56.5296 57.8667 55.92V13.2483H55.8Z" fill="url(#paint8_linear)"/>
<defs>
<linearGradient id="paint0_linear" x1="-5.1809" y1="56.3694" x2="66.876" y2="56.5942" gradientUnits="userSpaceOnUse">
<stop stop-color="#6A5538"/>
<stop offset="0.213542" stop-color="#BC975E"/>
<stop offset="0.375" stop-color="#D9BE85"/>
<stop offset="0.552083" stop-color="#E7D491"/>
<stop offset="0.689617" stop-color="#C5A76C"/>
<stop offset="0.817708" stop-color="#BC975E"/>
<stop offset="1" stop-color="#6A5538"/>
</linearGradient>
<linearGradient id="paint1_linear" x1="-5.1809" y1="56.3694" x2="66.876" y2="56.5942" gradientUnits="userSpaceOnUse">
<stop stop-color="#6A5538"/>
<stop offset="0.213542" stop-color="#BC975E"/>
<stop offset="0.375" stop-color="#D9BE85"/>
<stop offset="0.552083" stop-color="#E7D491"/>
<stop offset="0.689617" stop-color="#C5A76C"/>
<stop offset="0.817708" stop-color="#BC975E"/>
<stop offset="1" stop-color="#6A5538"/>
</linearGradient>
<linearGradient id="paint2_linear" x1="-5.1809" y1="56.3694" x2="66.876" y2="56.5942" gradientUnits="userSpaceOnUse">
<stop stop-color="#6A5538"/>
<stop offset="0.213542" stop-color="#BC975E"/>
<stop offset="0.375" stop-color="#D9BE85"/>
<stop offset="0.552083" stop-color="#E7D491"/>
<stop offset="0.689617" stop-color="#C5A76C"/>
<stop offset="0.817708" stop-color="#BC975E"/>
<stop offset="1" stop-color="#6A5538"/>
</linearGradient>
<linearGradient id="paint3_linear" x1="-5.1809" y1="56.3694" x2="66.876" y2="56.5942" gradientUnits="userSpaceOnUse">
<stop stop-color="#6A5538"/>
<stop offset="0.213542" stop-color="#BC975E"/>
<stop offset="0.375" stop-color="#D9BE85"/>
<stop offset="0.552083" stop-color="#E7D491"/>
<stop offset="0.689617" stop-color="#C5A76C"/>
<stop offset="0.817708" stop-color="#BC975E"/>
<stop offset="1" stop-color="#6A5538"/>
</linearGradient>
<linearGradient id="paint4_linear" x1="-5.1809" y1="56.3694" x2="66.876" y2="56.5942" gradientUnits="userSpaceOnUse">
<stop stop-color="#6A5538"/>
<stop offset="0.213542" stop-color="#BC975E"/>
<stop offset="0.375" stop-color="#D9BE85"/>
<stop offset="0.552083" stop-color="#E7D491"/>
<stop offset="0.689617" stop-color="#C5A76C"/>
<stop offset="0.817708" stop-color="#BC975E"/>
<stop offset="1" stop-color="#6A5538"/>
</linearGradient>
<linearGradient id="paint5_linear" x1="-5.1809" y1="56.3694" x2="66.876" y2="56.5942" gradientUnits="userSpaceOnUse">
<stop stop-color="#6A5538"/>
<stop offset="0.213542" stop-color="#BC975E"/>
<stop offset="0.375" stop-color="#D9BE85"/>
<stop offset="0.552083" stop-color="#E7D491"/>
<stop offset="0.689617" stop-color="#C5A76C"/>
<stop offset="0.817708" stop-color="#BC975E"/>
<stop offset="1" stop-color="#6A5538"/>
</linearGradient>
<linearGradient id="paint6_linear" x1="-5.1809" y1="56.3694" x2="66.876" y2="56.5942" gradientUnits="userSpaceOnUse">
<stop stop-color="#6A5538"/>
<stop offset="0.213542" stop-color="#BC975E"/>
<stop offset="0.375" stop-color="#D9BE85"/>
<stop offset="0.552083" stop-color="#E7D491"/>
<stop offset="0.689617" stop-color="#C5A76C"/>
<stop offset="0.817708" stop-color="#BC975E"/>
<stop offset="1" stop-color="#6A5538"/>
</linearGradient>
<linearGradient id="paint7_linear" x1="-5.1809" y1="56.3694" x2="66.876" y2="56.5942" gradientUnits="userSpaceOnUse">
<stop stop-color="#6A5538"/>
<stop offset="0.213542" stop-color="#BC975E"/>
<stop offset="0.375" stop-color="#D9BE85"/>
<stop offset="0.552083" stop-color="#E7D491"/>
<stop offset="0.689617" stop-color="#C5A76C"/>
<stop offset="0.817708" stop-color="#BC975E"/>
<stop offset="1" stop-color="#6A5538"/>
</linearGradient>
<linearGradient id="paint8_linear" x1="-5.1809" y1="56.3694" x2="66.876" y2="56.5942" gradientUnits="userSpaceOnUse">
<stop stop-color="#6A5538"/>
<stop offset="0.213542" stop-color="#BC975E"/>
<stop offset="0.375" stop-color="#D9BE85"/>
<stop offset="0.552083" stop-color="#E7D491"/>
<stop offset="0.689617" stop-color="#C5A76C"/>
<stop offset="0.817708" stop-color="#BC975E"/>
<stop offset="1" stop-color="#6A5538"/>
</linearGradient>
</defs>
</svg>
