<svg width="62" height="65" viewBox="0 0 62 65" fill="none" xmlns="http://www.w3.org/2000/svg">
<path d="M8.14285 16.7911C12.1646 16.7911 15.4937 13.8037 16.0514 9.934H60.7143C61.3463 9.934 61.8571 9.42314 61.8571 8.79114C61.8571 8.15914 61.3463 7.64828 60.7143 7.64828H16.0514C15.4937 3.77857 12.1646 0.791138 8.14285 0.791138C3.73142 0.791138 0.142853 4.38085 0.142853 8.79114C0.142853 13.2014 3.73142 16.7911 8.14285 16.7911ZM8.14285 3.07685C11.2937 3.07685 13.8571 5.64028 13.8571 8.79114C13.8571 11.942 11.2937 14.5054 8.14285 14.5054C4.992 14.5054 2.42857 11.942 2.42857 8.79114C2.42857 5.64028 4.992 3.07685 8.14285 3.07685Z" fill="url(#paint0_linear)"/>
<path d="M53.8571 48.7911C49.8354 48.7911 46.5063 51.7786 45.9486 55.6483H1.28571C0.654853 55.6483 0.142853 56.1591 0.142853 56.7911C0.142853 57.4231 0.654853 57.934 1.28571 57.934H45.9486C46.5063 61.8037 49.8354 64.7911 53.8571 64.7911C58.2674 64.7911 61.8571 61.2014 61.8571 56.7911C61.8571 52.3809 58.2674 48.7911 53.8571 48.7911ZM53.8571 62.5054C50.7063 62.5054 48.1429 59.942 48.1429 56.7911C48.1429 53.6403 50.7063 51.0769 53.8571 51.0769C57.008 51.0769 59.5714 53.6403 59.5714 56.7911C59.5714 59.942 57.008 62.5054 53.8571 62.5054Z" fill="url(#paint1_linear)"/>
<path d="M60.7143 31.6483H39.4206C38.968 27.5317 35.472 24.318 31.2366 24.318C27.0011 24.318 23.5051 27.5329 23.0526 31.6483H1.28571C0.654853 31.6483 0.142853 32.1591 0.142853 32.7911C0.142853 33.4231 0.654853 33.934 1.28571 33.934H23.1246C23.784 37.8197 27.1657 40.7911 31.2366 40.7911C35.3074 40.7911 38.688 37.8197 39.3474 33.934H60.7143C61.3463 33.934 61.8571 33.4231 61.8571 32.7911C61.8571 32.1591 61.3463 31.6483 60.7143 31.6483ZM31.2366 38.5054C27.9554 38.5054 25.2857 35.8357 25.2857 32.5546C25.2857 29.2734 27.9554 26.6037 31.2366 26.6037C34.5177 26.6037 37.1874 29.2734 37.1874 32.5546C37.1874 35.8357 34.5177 38.5054 31.2366 38.5054Z" fill="url(#paint2_linear)"/>
<defs>
<linearGradient id="paint0_linear" x1="-5.01417" y1="39.5406" x2="66.7019" y2="40.3654" gradientUnits="userSpaceOnUse">
<stop stop-color="#6A5538"/>
<stop offset="0.213542" stop-color="#BC975E"/>
<stop offset="0.375" stop-color="#D9BE85"/>
<stop offset="0.552083" stop-color="#E7D491"/>
<stop offset="0.689617" stop-color="#C5A76C"/>
<stop offset="0.817708" stop-color="#BC975E"/>
<stop offset="1" stop-color="#6A5538"/>
</linearGradient>
<linearGradient id="paint1_linear" x1="-5.01417" y1="39.5406" x2="66.7019" y2="40.3654" gradientUnits="userSpaceOnUse">
<stop stop-color="#6A5538"/>
<stop offset="0.213542" stop-color="#BC975E"/>
<stop offset="0.375" stop-color="#D9BE85"/>
<stop offset="0.552083" stop-color="#E7D491"/>
<stop offset="0.689617" stop-color="#C5A76C"/>
<stop offset="0.817708" stop-color="#BC975E"/>
<stop offset="1" stop-color="#6A5538"/>
</linearGradient>
<linearGradient id="paint2_linear" x1="-5.01417" y1="39.5406" x2="66.7019" y2="40.3654" gradientUnits="userSpaceOnUse">
<stop stop-color="#6A5538"/>
<stop offset="0.213542" stop-color="#BC975E"/>
<stop offset="0.375" stop-color="#D9BE85"/>
<stop offset="0.552083" stop-color="#E7D491"/>
<stop offset="0.689617" stop-color="#C5A76C"/>
<stop offset="0.817708" stop-color="#BC975E"/>
<stop offset="1" stop-color="#6A5538"/>
</linearGradient>
</defs>
</svg>
