<svg width="64" height="58" viewBox="0 0 64 58" fill="none" xmlns="http://www.w3.org/2000/svg">
<path d="M63.1485 31.8388C62.2509 30.6026 60.7551 29.7718 59.2455 29.6706C58.0136 29.5871 56.8966 29.9988 56.102 30.8277C55.9278 31.0096 55.7396 31.2093 55.5406 31.4232C54.6618 30.6297 53.5101 30.1191 52.3491 30.0413C51.1294 29.9588 50.0228 30.3622 49.2298 31.1747C48.3098 30.4544 47.1656 30.0364 46.0438 30.031C46.0366 30.031 46.0296 30.031 46.0224 30.031C44.9153 30.031 43.9089 30.4452 43.1868 31.1984C42.0291 32.4063 40.141 34.524 37.5764 37.4907C32.257 35.3963 22.1985 31.7288 16.9903 31.7288H0.940375C0.420875 31.7288 0 32.1436 0 32.6557C0 33.1677 0.420875 33.5825 0.940375 33.5825H16.9903C23.7373 33.5825 40.1385 40.5354 40.3034 40.6056C40.3338 40.6184 40.3648 40.6299 40.3963 40.6395C42.0133 41.1367 42.9184 42.838 42.4138 44.432C42.1693 45.2039 41.6345 45.836 40.9078 46.2116C40.1811 46.587 39.3498 46.6613 38.5661 46.4203C38.556 46.4172 38.5459 46.4143 38.5356 46.4116L28.2743 43.6262C27.7803 43.4922 27.2541 43.7869 27.1179 44.2736C26.9819 44.7605 27.2808 45.2792 27.7748 45.4134L38.0216 48.1949C39.2666 48.5734 40.6274 48.4497 41.7809 47.8533C42.9526 47.2478 43.815 46.2287 44.2089 44.9841C44.3386 44.5743 44.4099 44.1599 44.4285 43.7498L47.1819 43.4642C47.4254 43.4388 47.6495 43.3209 47.8063 43.1355C47.8741 43.0552 54.6228 35.0699 57.4689 32.1006C57.9833 31.5639 58.649 31.4885 59.1175 31.52C60.0665 31.5836 61.0483 32.1321 61.6186 32.9176C62.9324 34.7267 61.2998 36.7016 60.7681 37.2639C58.1556 40.0267 53.365 45.7184 52.5039 46.7444L33.8574 55.9336C33.3165 56.2001 32.6864 56.2202 32.1291 55.989L14.3455 48.6091C14.23 48.5612 14.106 48.5364 13.9806 48.5364H0.940375C0.420875 48.5364 0 48.9512 0 49.4632C0 49.9753 0.420875 50.3901 0.940375 50.3901H13.791L31.3996 57.6974C32.4548 58.1354 33.6749 58.0961 34.6989 57.5916L53.5233 48.3149C53.6406 48.2571 53.7444 48.1755 53.828 48.0758C53.883 48.01 59.3668 41.4654 62.1445 38.5277C64.1895 36.3652 64.5743 33.8022 63.1485 31.8388ZM42.0093 39.3334C41.6985 39.1514 41.3638 38.9998 41.0061 38.8857C40.8215 38.8073 40.2569 38.5693 39.4125 38.2256C41.7239 35.5588 43.4953 33.5762 44.554 32.4717C45.0179 31.9879 45.6061 31.8849 46.0224 31.8849C46.0264 31.8849 46.0305 31.8849 46.0345 31.8849C46.6878 31.888 47.38 32.1332 47.9524 32.5469C46.2138 34.458 43.9071 37.1192 42.0093 39.3334ZM46.6059 41.6602L44.1526 41.9146C43.9796 41.4305 43.7295 40.9757 43.4136 40.5673C45.4616 38.1779 48.7914 34.3301 50.5726 32.4716C51.0871 31.9347 51.7526 31.8602 52.2213 31.8908C52.9584 31.9402 53.7144 32.2831 54.2829 32.8015C51.4615 35.9411 47.6201 40.4629 46.6059 41.6602Z" fill="url(#paint0_linear)"/>
<path d="M48.9669 18.3963C48.8305 18.0391 48.4744 17.7961 48.087 17.7961H43.0088V10.3605C43.0088 9.84844 42.5879 9.43363 42.0684 9.43363C41.5489 9.43363 41.128 9.84844 41.128 10.3605V18.7231C41.128 19.2351 41.5489 19.6499 42.0684 19.6499H45.4384L32.0373 30.3816L18.6361 19.6498H22.0061C22.5256 19.6498 22.9465 19.235 22.9465 18.723V1.85356H41.128V5.91131C41.128 6.42333 41.5489 6.83815 42.0684 6.83815C42.5879 6.83815 43.0088 6.42333 43.0088 5.91131V0.926841C43.0088 0.414818 42.5879 0 42.0684 0H22.0059C21.4864 0 21.0655 0.414818 21.0655 0.926841V17.7963H15.9873C15.5999 17.7963 15.2439 18.0392 15.1074 18.3964C14.9663 18.7654 15.0834 19.1936 15.3943 19.4425L31.4441 32.2953C31.7856 32.5687 32.2888 32.5687 32.6303 32.2953L48.6801 19.4425C48.9909 19.1936 49.108 18.7654 48.9669 18.3963Z" fill="url(#paint1_linear)"/>
<path d="M36.0496 12.7293C36.5691 12.7293 36.99 12.3144 36.99 11.8024V10.8137C36.99 8.66719 35.2181 6.92082 33.0403 6.92082H32.9775V4.88159C32.9775 4.36957 32.5566 3.95475 32.0371 3.95475C31.5176 3.95475 31.0968 4.36957 31.0968 4.88159V6.94226C28.8475 7.16032 27.0843 9.03483 27.0843 11.308C27.0843 13.7272 29.0811 15.6953 31.5356 15.6953H32.5388C33.9561 15.6953 35.1093 16.8318 35.1093 18.2288C35.1093 19.6258 33.9561 20.7623 32.5388 20.7623H31.0341C29.8934 20.7623 28.9653 19.8476 28.9653 18.7232C28.9653 18.2112 28.5444 17.7964 28.0249 17.7964C27.5054 17.7964 27.0845 18.2112 27.0845 18.7232C27.0845 20.8698 28.8564 22.6161 31.0343 22.6161H31.097V24.6552C31.097 25.1673 31.5179 25.5821 32.0374 25.5821C32.5569 25.5821 32.9778 25.1673 32.9778 24.6552V22.5946C35.227 22.3766 36.9903 20.502 36.9903 18.2288C36.9903 15.8096 34.9934 13.8415 32.5389 13.8415H31.5358C30.1184 13.8415 28.9653 12.705 28.9653 11.308C28.9653 9.91103 30.1184 8.7745 31.5358 8.7745H33.0404C34.1811 8.7745 35.1093 9.68927 35.1093 10.8137V11.8024C35.1091 12.3142 35.5301 12.7293 36.0496 12.7293Z" fill="url(#paint2_linear)"/>
<defs>
<linearGradient id="paint0_linear" x1="-5.34802" y1="53.5971" x2="69.0332" y2="53.8491" gradientUnits="userSpaceOnUse">
<stop stop-color="#6A5538"/>
<stop offset="0.213542" stop-color="#BC975E"/>
<stop offset="0.375" stop-color="#D9BE85"/>
<stop offset="0.552083" stop-color="#E7D491"/>
<stop offset="0.689617" stop-color="#C5A76C"/>
<stop offset="0.817708" stop-color="#BC975E"/>
<stop offset="1" stop-color="#6A5538"/>
</linearGradient>
<linearGradient id="paint1_linear" x1="-5.34802" y1="53.5971" x2="69.0332" y2="53.8491" gradientUnits="userSpaceOnUse">
<stop stop-color="#6A5538"/>
<stop offset="0.213542" stop-color="#BC975E"/>
<stop offset="0.375" stop-color="#D9BE85"/>
<stop offset="0.552083" stop-color="#E7D491"/>
<stop offset="0.689617" stop-color="#C5A76C"/>
<stop offset="0.817708" stop-color="#BC975E"/>
<stop offset="1" stop-color="#6A5538"/>
</linearGradient>
<linearGradient id="paint2_linear" x1="-5.34802" y1="53.5971" x2="69.0332" y2="53.8491" gradientUnits="userSpaceOnUse">
<stop stop-color="#6A5538"/>
<stop offset="0.213542" stop-color="#BC975E"/>
<stop offset="0.375" stop-color="#D9BE85"/>
<stop offset="0.552083" stop-color="#E7D491"/>
<stop offset="0.689617" stop-color="#C5A76C"/>
<stop offset="0.817708" stop-color="#BC975E"/>
<stop offset="1" stop-color="#6A5538"/>
</linearGradient>
</defs>
</svg>
