<svg width="63" height="62" viewBox="0 0 63 62" fill="none" xmlns="http://www.w3.org/2000/svg">
<path d="M49.7841 24.424C50.2819 24.424 50.6855 24.0206 50.6855 23.5227V4.29445C50.6855 2.20708 48.9872 0.508804 46.8998 0.508804H7.48157C5.3942 0.508804 3.69592 2.20708 3.69592 4.29445V18.7759H1.71302C1.21525 18.7759 0.811646 19.1794 0.811646 19.6773C0.811646 20.1752 1.21525 20.5787 1.71302 20.5787H3.69592V30.3131H1.71302C1.21525 30.3129 0.811646 30.7164 0.811646 31.2143C0.811646 31.7122 1.21525 32.1156 1.71302 32.1156H3.69592V41.8501H1.71302C1.21525 41.8501 0.811646 42.2536 0.811646 42.7515C0.811646 43.2494 1.21525 43.6529 1.71302 43.6529H3.69592V58.1343C3.69592 60.2217 5.3942 61.92 7.48157 61.92H46.8998C48.9872 61.92 50.6855 60.2217 50.6855 58.1343V27.9098C50.6855 27.412 50.2819 27.0085 49.7841 27.0085C49.2863 27.0085 48.8827 27.412 48.8827 27.9098V58.1343C48.8827 59.2279 47.9931 60.1172 46.8998 60.1172H7.48157C6.38817 60.1172 5.49867 59.2279 5.49867 58.1343V58.0742H41.1314C41.6292 58.0742 42.0328 57.6708 42.0328 57.1729V50.3828H44.0157C45.5729 50.3828 46.8399 49.1158 46.8399 47.5586V41.79C46.8399 40.2328 45.5729 38.9658 44.0157 38.9658H42.0328V36.9229H44.0157C45.5729 36.9229 46.8399 35.6559 46.8399 34.0987V28.3301C46.8399 26.7729 45.5729 25.5059 44.0157 25.5059H42.0328V23.4629H44.0157C45.5729 23.4629 46.8399 22.196 46.8399 20.6388V14.8702C46.8399 13.313 45.5729 12.046 44.0157 12.046H42.0328V5.2558C42.0328 4.75791 41.6292 4.35442 41.1314 4.35442H5.49855V4.29433C5.49855 3.20081 6.38817 2.31143 7.48145 2.31143H46.8998C47.9932 2.31143 48.8827 3.20081 48.8827 4.29433V23.5227C48.8829 24.0207 49.2863 24.424 49.7841 24.424ZM42.0327 13.8485H44.0156C44.5788 13.8485 45.0371 14.3067 45.0371 14.8701V20.6386C45.0371 21.2019 44.5789 21.6602 44.0156 21.6602H42.0327V13.8485ZM42.0327 27.3084H44.0156C44.5788 27.3084 45.0371 27.7666 45.0371 28.33V34.0985C45.0371 34.6618 44.5789 35.1201 44.0156 35.1201H42.0327V27.3084ZM42.0327 40.7685H44.0156C44.5788 40.7685 45.0371 41.2267 45.0371 41.79V47.5586C45.0371 48.1218 44.5789 48.5801 44.0156 48.5801H42.0327V40.7685ZM40.23 6.15717V56.2714H5.49855V43.6527H6.68934C7.09487 45.3063 8.58889 46.537 10.3657 46.537C12.4531 46.537 14.1514 44.8387 14.1514 42.7514C14.1514 40.664 12.4531 38.9657 10.3657 38.9657C8.58889 38.9657 7.09499 40.1965 6.68934 41.85H5.49855V32.1155H6.68934C7.09487 33.7691 8.58889 34.9998 10.3657 34.9998C12.4531 34.9998 14.1514 33.3015 14.1514 31.2142C14.1514 29.1268 12.4531 27.4285 10.3657 27.4285C8.58889 27.4285 7.09499 28.6592 6.68934 30.3128H5.49855V20.5783H6.68934C7.09487 22.2318 8.58889 23.4626 10.3657 23.4626C12.4531 23.4626 14.1514 21.7643 14.1514 19.6769C14.1514 17.5896 12.4532 15.8915 10.3658 15.8915C8.58901 15.8915 7.09511 17.1223 6.68946 18.7758H5.49867V6.15717H40.23ZM9.40438 41.85H8.60184C8.93072 41.209 9.59713 40.7684 10.3658 40.7684C11.4592 40.7684 12.3487 41.658 12.3487 42.7513C12.3487 43.8445 11.4591 44.7342 10.3658 44.7342C9.59713 44.7342 8.93084 44.2936 8.60184 43.6525H9.40438C9.90214 43.6525 10.3058 43.249 10.3058 42.7511C10.3058 42.2533 9.90214 41.85 9.40438 41.85ZM9.40438 30.3129H8.60184C8.93072 29.6719 9.59713 29.2313 10.3658 29.2313C11.4592 29.2313 12.3487 30.1209 12.3487 31.2142C12.3487 32.3076 11.4591 33.1971 10.3658 33.1971C9.59713 33.1971 8.93084 32.7565 8.60184 32.1154H9.40438C9.90214 32.1154 10.3058 31.7119 10.3058 31.214C10.3058 30.7161 9.90214 30.3129 9.40438 30.3129ZM9.40438 18.7758H8.60184C8.93072 18.1348 9.59713 17.6942 10.3658 17.6942C11.4592 17.6942 12.3487 18.5838 12.3487 19.6771C12.3487 20.7703 11.4591 21.66 10.3658 21.66C9.59713 21.66 8.93084 21.2194 8.60184 20.5783H9.40438C9.90214 20.5783 10.3058 20.1748 10.3058 19.6769C10.3058 19.179 9.90214 18.7758 9.40438 18.7758Z" fill="url(#paint0_linear)"/>
<path d="M36.3242 18.7758H19.0186C18.5208 18.7758 18.1172 19.1793 18.1172 19.6772C18.1172 20.1751 18.5208 20.5785 19.0186 20.5785H36.3242C36.822 20.5785 37.2256 20.1751 37.2256 19.6772C37.2256 19.1793 36.822 18.7758 36.3242 18.7758Z" fill="url(#paint1_linear)"/>
<path d="M36.3242 30.3129H19.0186C18.5208 30.3129 18.1172 30.7164 18.1172 31.2143C18.1172 31.7122 18.5208 32.1156 19.0186 32.1156H36.3242C36.822 32.1156 37.2256 31.7122 37.2256 31.2143C37.2256 30.7164 36.822 30.3129 36.3242 30.3129Z" fill="url(#paint2_linear)"/>
<path d="M36.3242 41.85H19.0186C18.5208 41.85 18.1172 42.2535 18.1172 42.7514C18.1172 43.2493 18.5208 43.6527 19.0186 43.6527H36.3242C36.822 43.6527 37.2256 43.2493 37.2256 42.7514C37.2256 42.2535 36.822 41.85 36.3242 41.85Z" fill="url(#paint3_linear)"/>
<path d="M61.3212 36.2016C60.8234 36.2016 60.4198 36.6051 60.4198 37.103V50.4195L59.3382 50.4646V12.4665C59.3382 10.9567 58.32 9.6811 56.9347 9.28757V6.21726C56.9347 5.71938 56.531 5.31589 56.0333 5.31589C55.5355 5.31589 55.1319 5.71938 55.1319 6.21726V9.28757C53.7464 9.68086 52.7284 10.9567 52.7284 12.4665V53.327C52.7284 54.8842 53.9953 56.1512 55.5525 56.1512H56.514C58.0712 56.1512 59.3382 54.8842 59.3382 53.327V52.2687L61.3586 52.1845C61.8415 52.1645 62.2225 51.7671 62.2225 51.284V37.103C62.2226 36.6051 61.819 36.2016 61.3212 36.2016ZM57.5357 53.327C57.5357 53.8903 57.0775 54.3486 56.5141 54.3486H55.5527C54.9894 54.3486 54.5311 53.8904 54.5311 53.327V39.807H57.5356V53.327H57.5357ZM57.5357 38.0044H54.5312V12.4665C54.5312 11.6382 55.2051 10.9644 56.0334 10.9644C56.8617 10.9644 57.5356 11.6382 57.5356 12.4665V38.0044H57.5357Z" fill="url(#paint4_linear)"/>
<defs>
<linearGradient id="paint0_linear" x1="-4.32002" y1="57.2581" x2="67.0522" y2="57.4772" gradientUnits="userSpaceOnUse">
<stop stop-color="#6A5538"/>
<stop offset="0.213542" stop-color="#BC975E"/>
<stop offset="0.375" stop-color="#D9BE85"/>
<stop offset="0.552083" stop-color="#E7D491"/>
<stop offset="0.689617" stop-color="#C5A76C"/>
<stop offset="0.817708" stop-color="#BC975E"/>
<stop offset="1" stop-color="#6A5538"/>
</linearGradient>
<linearGradient id="paint1_linear" x1="-4.32002" y1="57.2581" x2="67.0522" y2="57.4772" gradientUnits="userSpaceOnUse">
<stop stop-color="#6A5538"/>
<stop offset="0.213542" stop-color="#BC975E"/>
<stop offset="0.375" stop-color="#D9BE85"/>
<stop offset="0.552083" stop-color="#E7D491"/>
<stop offset="0.689617" stop-color="#C5A76C"/>
<stop offset="0.817708" stop-color="#BC975E"/>
<stop offset="1" stop-color="#6A5538"/>
</linearGradient>
<linearGradient id="paint2_linear" x1="-4.32002" y1="57.2581" x2="67.0522" y2="57.4772" gradientUnits="userSpaceOnUse">
<stop stop-color="#6A5538"/>
<stop offset="0.213542" stop-color="#BC975E"/>
<stop offset="0.375" stop-color="#D9BE85"/>
<stop offset="0.552083" stop-color="#E7D491"/>
<stop offset="0.689617" stop-color="#C5A76C"/>
<stop offset="0.817708" stop-color="#BC975E"/>
<stop offset="1" stop-color="#6A5538"/>
</linearGradient>
<linearGradient id="paint3_linear" x1="-4.32002" y1="57.2581" x2="67.0522" y2="57.4772" gradientUnits="userSpaceOnUse">
<stop stop-color="#6A5538"/>
<stop offset="0.213542" stop-color="#BC975E"/>
<stop offset="0.375" stop-color="#D9BE85"/>
<stop offset="0.552083" stop-color="#E7D491"/>
<stop offset="0.689617" stop-color="#C5A76C"/>
<stop offset="0.817708" stop-color="#BC975E"/>
<stop offset="1" stop-color="#6A5538"/>
</linearGradient>
<linearGradient id="paint4_linear" x1="-4.32002" y1="57.2581" x2="67.0522" y2="57.4772" gradientUnits="userSpaceOnUse">
<stop stop-color="#6A5538"/>
<stop offset="0.213542" stop-color="#BC975E"/>
<stop offset="0.375" stop-color="#D9BE85"/>
<stop offset="0.552083" stop-color="#E7D491"/>
<stop offset="0.689617" stop-color="#C5A76C"/>
<stop offset="0.817708" stop-color="#BC975E"/>
<stop offset="1" stop-color="#6A5538"/>
</linearGradient>
</defs>
</svg>
