<svg width="65" height="66" viewBox="0 0 65 66" fill="none" xmlns="http://www.w3.org/2000/svg">
<path d="M64.1109 4.97606C63.9468 4.78128 63.712 4.65962 63.4582 4.63796L49.2631 3.42556L49.0057 1.37988C48.9395 0.853622 48.458 0.480615 47.9331 0.546732L34.7648 2.20233C34.713 2.18883 34.6598 2.17864 34.6046 2.17392L16.505 0.627881C15.9839 0.58202 15.5107 0.982799 15.4664 1.50294L15.1966 4.6623L1.17709 6.42491C0.658349 6.49013 0.278845 6.97843 0.343943 7.49756L7.50013 64.4178C7.53261 64.6775 7.47694 64.9269 7.58306 65.178C7.73186 65.5297 8.08601 65.7645 8.46806 65.7645H55.5919C56.1225 65.7645 56.5524 65.3347 56.5524 64.8041V63.5532L58.4124 63.7121C58.9336 63.7573 59.4067 63.3574 59.4511 62.837L64.3332 5.67686C64.3549 5.42296 64.2751 5.17098 64.1109 4.97606ZM7.50764 49.0788L2.36975 8.21083L7.50764 7.56495V49.0788ZM17.2986 2.6235L25.704 3.34136L17.1454 4.41745L17.2986 2.6235ZM47.2198 2.57241L47.7105 6.47536H16.1742L47.2198 2.57241ZM57.619 61.7165L56.5524 61.6254V33.5588C56.5524 33.0283 56.1225 32.5983 55.5919 32.5983C55.0613 32.5983 54.6315 33.0282 54.6315 33.5588V63.8436H9.42848V8.39619H54.6317V29.0769C54.6317 29.6075 55.0615 30.0374 55.5921 30.0374C56.1227 30.0374 56.5525 29.6075 56.5525 29.0769V7.43577C56.5525 6.90531 56.1227 6.47536 55.5921 6.47536H49.6465L49.508 5.3743L62.3377 6.47013L57.619 61.7165Z" fill="url(#paint0_linear)"/>
<path d="M50.4698 11.5976H45.3476C45.0264 11.5976 44.7265 11.758 44.5486 12.0252L42.3747 15.286C40.0349 13.6099 37.1702 12.6219 34.0789 12.6219C33.5484 12.6219 33.1185 13.0518 33.1185 13.5824V26.9C33.1185 27.4305 33.5483 27.8605 34.0789 27.8605H47.3966C47.9272 27.8605 48.357 27.4306 48.357 26.9C48.357 22.8111 46.6288 19.1187 43.8651 16.5133L45.8617 13.5184H50.4699C51.0004 13.5184 51.4304 13.0886 51.4304 12.558C51.4304 12.0274 51.0003 11.5976 50.4698 11.5976ZM46.3992 25.9396H35.0393V14.5797C37.3684 14.7596 39.5172 15.5902 41.3078 16.8864L40.4509 18.172C40.1832 18.5732 40.2617 19.1291 40.6314 19.4395C41.0642 19.8031 41.7357 19.7072 42.049 19.2375L42.7824 18.1373C44.8244 20.1657 46.1643 22.9 46.3992 25.9396Z" fill="url(#paint1_linear)"/>
<path d="M50.4698 43.3549H41.7822L40.2514 40.9058C42.7311 38.3363 44.2591 34.8421 44.2591 30.9978C44.2591 30.4672 43.8293 30.0374 43.2987 30.0374H30.9414V17.6801C30.9414 17.1496 30.5114 16.7197 29.981 16.7197C22.1081 16.7197 15.7029 23.1249 15.7029 30.9978C15.7029 38.8707 22.1081 45.2759 29.981 45.2759C33.3089 45.2759 36.3742 44.1314 38.8047 42.2155L40.4354 44.8245C40.6109 45.1053 40.9187 45.2759 41.2498 45.2759H50.4698C51.0002 45.2759 51.4302 44.8461 51.4302 44.3155C51.4302 43.7849 51.0002 43.3549 50.4698 43.3549ZM36.9423 35.6109C36.6612 35.1609 36.0685 35.0243 35.6188 35.3055C35.1689 35.5865 35.0321 36.1791 35.3133 36.6289L37.7801 40.5758C35.6515 42.3123 32.9359 43.3552 29.9811 43.3552C23.1674 43.3552 17.6238 37.8117 17.6238 30.9979C17.6238 24.5072 22.654 19.1693 29.0207 18.6776V30.9979C29.0207 31.5284 29.4506 31.9583 29.9811 31.9583H42.3014C42.0869 34.7356 40.95 37.2584 39.1979 39.2202L36.9423 35.6109Z" fill="url(#paint2_linear)"/>
<path d="M21.7855 48.4771H13.5901C13.0597 48.4771 12.6297 48.907 12.6297 49.4376C12.6297 49.9681 13.0596 50.398 13.5901 50.398H21.7855C22.316 50.398 22.746 49.9681 22.746 49.4376C22.746 48.907 22.316 48.4771 21.7855 48.4771Z" fill="url(#paint3_linear)"/>
<path d="M34.0788 48.4771H25.8833C25.3529 48.4771 24.9229 48.907 24.9229 49.4376C24.9229 49.9681 25.3529 50.398 25.8833 50.398H34.0788C34.6093 50.398 35.0392 49.9681 35.0392 49.4376C35.0392 48.907 34.6093 48.4771 34.0788 48.4771Z" fill="url(#paint4_linear)"/>
<path d="M26.9078 53.5994H13.5901C13.0597 53.5994 12.6297 54.0292 12.6297 54.5598C12.6297 55.0904 13.0596 55.5202 13.5901 55.5202H26.9078C27.4382 55.5202 27.8682 55.0904 27.8682 54.5598C27.8682 54.0292 27.4381 53.5994 26.9078 53.5994Z" fill="url(#paint5_linear)"/>
<path d="M34.0789 53.5994H31.0055C30.4752 53.5994 30.0451 54.0292 30.0451 54.5598C30.0451 55.0904 30.4751 55.5202 31.0055 55.5202H34.0789C34.6094 55.5202 35.0393 55.0904 35.0393 54.5598C35.0392 54.0292 34.6094 53.5994 34.0789 53.5994Z" fill="url(#paint6_linear)"/>
<path d="M17.6878 58.7215H13.5901C13.0597 58.7215 12.6297 59.1513 12.6297 59.6819C12.6297 60.2125 13.0596 60.6423 13.5901 60.6423H17.6878C18.2183 60.6423 18.6482 60.2125 18.6482 59.6819C18.6482 59.1513 18.2183 58.7215 17.6878 58.7215Z" fill="url(#paint7_linear)"/>
<path d="M34.0788 58.7215H21.7856C21.2553 58.7215 20.8252 59.1513 20.8252 59.6819C20.8252 60.2125 21.2552 60.6423 21.7856 60.6423H34.0788C34.6093 60.6423 35.0392 60.2125 35.0392 59.6819C35.0392 59.1513 34.6093 58.7215 34.0788 58.7215Z" fill="url(#paint8_linear)"/>
<defs>
<linearGradient id="paint0_linear" x1="-5.01135" y1="60.8131" x2="69.3701" y2="61.0372" gradientUnits="userSpaceOnUse">
<stop stop-color="#6A5538"/>
<stop offset="0.213542" stop-color="#BC975E"/>
<stop offset="0.375" stop-color="#D9BE85"/>
<stop offset="0.552083" stop-color="#E7D491"/>
<stop offset="0.689617" stop-color="#C5A76C"/>
<stop offset="0.817708" stop-color="#BC975E"/>
<stop offset="1" stop-color="#6A5538"/>
</linearGradient>
<linearGradient id="paint1_linear" x1="-5.01135" y1="60.8131" x2="69.3701" y2="61.0372" gradientUnits="userSpaceOnUse">
<stop stop-color="#6A5538"/>
<stop offset="0.213542" stop-color="#BC975E"/>
<stop offset="0.375" stop-color="#D9BE85"/>
<stop offset="0.552083" stop-color="#E7D491"/>
<stop offset="0.689617" stop-color="#C5A76C"/>
<stop offset="0.817708" stop-color="#BC975E"/>
<stop offset="1" stop-color="#6A5538"/>
</linearGradient>
<linearGradient id="paint2_linear" x1="-5.01135" y1="60.8131" x2="69.3701" y2="61.0372" gradientUnits="userSpaceOnUse">
<stop stop-color="#6A5538"/>
<stop offset="0.213542" stop-color="#BC975E"/>
<stop offset="0.375" stop-color="#D9BE85"/>
<stop offset="0.552083" stop-color="#E7D491"/>
<stop offset="0.689617" stop-color="#C5A76C"/>
<stop offset="0.817708" stop-color="#BC975E"/>
<stop offset="1" stop-color="#6A5538"/>
</linearGradient>
<linearGradient id="paint3_linear" x1="-5.01135" y1="60.8131" x2="69.3701" y2="61.0372" gradientUnits="userSpaceOnUse">
<stop stop-color="#6A5538"/>
<stop offset="0.213542" stop-color="#BC975E"/>
<stop offset="0.375" stop-color="#D9BE85"/>
<stop offset="0.552083" stop-color="#E7D491"/>
<stop offset="0.689617" stop-color="#C5A76C"/>
<stop offset="0.817708" stop-color="#BC975E"/>
<stop offset="1" stop-color="#6A5538"/>
</linearGradient>
<linearGradient id="paint4_linear" x1="-5.01135" y1="60.8131" x2="69.3701" y2="61.0372" gradientUnits="userSpaceOnUse">
<stop stop-color="#6A5538"/>
<stop offset="0.213542" stop-color="#BC975E"/>
<stop offset="0.375" stop-color="#D9BE85"/>
<stop offset="0.552083" stop-color="#E7D491"/>
<stop offset="0.689617" stop-color="#C5A76C"/>
<stop offset="0.817708" stop-color="#BC975E"/>
<stop offset="1" stop-color="#6A5538"/>
</linearGradient>
<linearGradient id="paint5_linear" x1="-5.01135" y1="60.8131" x2="69.3701" y2="61.0372" gradientUnits="userSpaceOnUse">
<stop stop-color="#6A5538"/>
<stop offset="0.213542" stop-color="#BC975E"/>
<stop offset="0.375" stop-color="#D9BE85"/>
<stop offset="0.552083" stop-color="#E7D491"/>
<stop offset="0.689617" stop-color="#C5A76C"/>
<stop offset="0.817708" stop-color="#BC975E"/>
<stop offset="1" stop-color="#6A5538"/>
</linearGradient>
<linearGradient id="paint6_linear" x1="-5.01135" y1="60.8131" x2="69.3701" y2="61.0372" gradientUnits="userSpaceOnUse">
<stop stop-color="#6A5538"/>
<stop offset="0.213542" stop-color="#BC975E"/>
<stop offset="0.375" stop-color="#D9BE85"/>
<stop offset="0.552083" stop-color="#E7D491"/>
<stop offset="0.689617" stop-color="#C5A76C"/>
<stop offset="0.817708" stop-color="#BC975E"/>
<stop offset="1" stop-color="#6A5538"/>
</linearGradient>
<linearGradient id="paint7_linear" x1="-5.01135" y1="60.8131" x2="69.3701" y2="61.0372" gradientUnits="userSpaceOnUse">
<stop stop-color="#6A5538"/>
<stop offset="0.213542" stop-color="#BC975E"/>
<stop offset="0.375" stop-color="#D9BE85"/>
<stop offset="0.552083" stop-color="#E7D491"/>
<stop offset="0.689617" stop-color="#C5A76C"/>
<stop offset="0.817708" stop-color="#BC975E"/>
<stop offset="1" stop-color="#6A5538"/>
</linearGradient>
<linearGradient id="paint8_linear" x1="-5.01135" y1="60.8131" x2="69.3701" y2="61.0372" gradientUnits="userSpaceOnUse">
<stop stop-color="#6A5538"/>
<stop offset="0.213542" stop-color="#BC975E"/>
<stop offset="0.375" stop-color="#D9BE85"/>
<stop offset="0.552083" stop-color="#E7D491"/>
<stop offset="0.689617" stop-color="#C5A76C"/>
<stop offset="0.817708" stop-color="#BC975E"/>
<stop offset="1" stop-color="#6A5538"/>
</linearGradient>
</defs>
</svg>
