<svg width="28" height="27" viewBox="0 0 28 27" fill="none" xmlns="http://www.w3.org/2000/svg">
<rect x="3.18359" y="2.60449" width="21.6665" height="21.6665" fill="#EBB142"/>
<rect x="1.44482" y="0.865723" width="25.144" height="25.144" stroke="#BE9141"/>
<path d="M11.7291 8.50006C11.7291 8.90625 11.7291 10.7193 11.7291 10.7193H9.98718V13.4329H11.7291V21.4969H15.3075V13.4331H17.7088C17.7088 13.4331 17.9336 12.132 18.0427 10.7093C17.7301 10.7093 15.321 10.7093 15.321 10.7093C15.321 10.7093 15.321 9.13054 15.321 8.85382C15.321 8.57651 15.7112 8.20348 16.0968 8.20348C16.4817 8.20348 17.294 8.20348 18.0464 8.20348C18.0464 7.83401 18.0464 6.55742 18.0464 5.37842C17.042 5.37842 15.8993 5.37842 15.3956 5.37842C11.6407 5.37823 11.7291 8.09458 11.7291 8.50006Z" fill="#1A1A1A"/>
</svg>
