<svg width="27" height="27" viewBox="0 0 27 27" fill="none" xmlns="http://www.w3.org/2000/svg">
<rect x="0.900391" y="0.865723" width="25.144" height="25.144" stroke="#BE9141"/>
<path d="M13.4382 11.3509C14.653 11.3509 15.6422 12.3096 15.6422 13.4876C15.6422 14.6661 14.653 15.6253 13.4382 15.6253C12.2229 15.6253 11.2342 14.6661 11.2342 13.4876C11.2342 12.3096 12.2229 11.3509 13.4382 11.3509ZM13.4382 11.3509C14.653 11.3509 15.6422 12.3096 15.6422 13.4876C15.6422 14.6661 14.653 15.6253 13.4382 15.6253C12.2229 15.6253 11.2342 14.6661 11.2342 13.4876C11.2342 12.3096 12.2229 11.3509 13.4382 11.3509ZM9.76649 7.86638H17.1094C18.2814 7.86638 19.2351 8.79115 19.2351 9.92766V17.048C19.2351 18.1846 18.2814 19.1093 17.1094 19.1093H9.76649C8.59446 19.1093 7.64079 18.1846 7.64079 17.048V9.92766C7.64079 8.79115 8.59446 7.86638 9.76649 7.86638ZM13.4382 17.1891C15.5425 17.1891 17.2548 15.5286 17.2548 13.4876C17.2548 11.4471 15.5425 9.78666 13.4382 9.78666C11.3334 9.78666 9.62108 11.4471 9.62108 13.4876C9.62108 15.5286 11.3334 17.1891 13.4382 17.1891ZM9.49853 10.552C9.99652 10.552 10.4016 10.1592 10.4016 9.67631C10.4016 9.19341 9.99652 8.80058 9.49853 8.80058C9.00054 8.80058 8.59544 9.19341 8.59544 9.67631C8.59544 10.1592 9.00054 10.552 9.49853 10.552ZM13.4382 11.3509C14.653 11.3509 15.6422 12.3096 15.6422 13.4876C15.6422 14.6661 14.653 15.6253 13.4382 15.6253C12.2229 15.6253 11.2342 14.6661 11.2342 13.4876C11.2342 12.3096 12.2229 11.3509 13.4382 11.3509ZM9.76649 7.86638H17.1094C18.2814 7.86638 19.2351 8.79115 19.2351 9.92766V17.048C19.2351 18.1846 18.2814 19.1093 17.1094 19.1093H9.76649C8.59446 19.1093 7.64079 18.1846 7.64079 17.048V9.92766C7.64079 8.79115 8.59446 7.86638 9.76649 7.86638ZM13.4382 17.1891C15.5425 17.1891 17.2548 15.5286 17.2548 13.4876C17.2548 11.4471 15.5425 9.78666 13.4382 9.78666C11.3334 9.78666 9.62108 11.4471 9.62108 13.4876C9.62108 15.5286 11.3334 17.1891 13.4382 17.1891ZM9.49853 10.552C9.99652 10.552 10.4016 10.1592 10.4016 9.67631C10.4016 9.19341 9.99652 8.80058 9.49853 8.80058C9.00054 8.80058 8.59544 9.19341 8.59544 9.67631C8.59544 10.1592 9.00054 10.552 9.49853 10.552ZM13.4382 11.3509C14.653 11.3509 15.6422 12.3096 15.6422 13.4876C15.6422 14.6661 14.653 15.6253 13.4382 15.6253C12.2229 15.6253 11.2342 14.6661 11.2342 13.4876C11.2342 12.3096 12.2229 11.3509 13.4382 11.3509ZM24.5194 2.74219V24.2335H2.35647V2.74219H24.5194ZM6.02817 17.048C6.02817 19.0471 7.70499 20.6731 9.76649 20.6731H17.1094C19.1709 20.6731 20.8477 19.0471 20.8477 17.048V9.92766C20.8477 7.92863 19.1709 6.30262 17.1094 6.30262H9.76649C7.70499 6.30262 6.02817 7.92863 6.02817 9.92766V17.048ZM9.76649 7.86638H17.1094C18.2814 7.86638 19.2351 8.79115 19.2351 9.92766V17.048C19.2351 18.1846 18.2814 19.1093 17.1094 19.1093H9.76649C8.59446 19.1093 7.64079 18.1846 7.64079 17.048V9.92766C7.64079 8.79115 8.59446 7.86638 9.76649 7.86638ZM13.4382 17.1891C15.5425 17.1891 17.2548 15.5286 17.2548 13.4876C17.2548 11.4471 15.5425 9.78666 13.4382 9.78666C11.3334 9.78666 9.62108 11.4471 9.62108 13.4876C9.62108 15.5286 11.3334 17.1891 13.4382 17.1891ZM9.49853 10.552C9.99652 10.552 10.4016 10.1592 10.4016 9.67631C10.4016 9.19341 9.99652 8.80058 9.49853 8.80058C9.00054 8.80058 8.59544 9.19341 8.59544 9.67631C8.59544 10.1592 9.00054 10.552 9.49853 10.552ZM13.4382 11.3509C14.653 11.3509 15.6422 12.3096 15.6422 13.4876C15.6422 14.6661 14.653 15.6253 13.4382 15.6253C12.2229 15.6253 11.2342 14.6661 11.2342 13.4876C11.2342 12.3096 12.2229 11.3509 13.4382 11.3509ZM13.4382 11.3509C14.653 11.3509 15.6422 12.3096 15.6422 13.4876C15.6422 14.6661 14.653 15.6253 13.4382 15.6253C12.2229 15.6253 11.2342 14.6661 11.2342 13.4876C11.2342 12.3096 12.2229 11.3509 13.4382 11.3509ZM13.4382 11.3509C14.653 11.3509 15.6422 12.3096 15.6422 13.4876C15.6422 14.6661 14.653 15.6253 13.4382 15.6253C12.2229 15.6253 11.2342 14.6661 11.2342 13.4876C11.2342 12.3096 12.2229 11.3509 13.4382 11.3509ZM9.76649 7.86638H17.1094C18.2814 7.86638 19.2351 8.79115 19.2351 9.92766V17.048C19.2351 18.1846 18.2814 19.1093 17.1094 19.1093H9.76649C8.59446 19.1093 7.64079 18.1846 7.64079 17.048V9.92766C7.64079 8.79115 8.59446 7.86638 9.76649 7.86638ZM13.4382 17.1891C15.5425 17.1891 17.2548 15.5286 17.2548 13.4876C17.2548 11.4471 15.5425 9.78666 13.4382 9.78666C11.3334 9.78666 9.62108 11.4471 9.62108 13.4876C9.62108 15.5286 11.3334 17.1891 13.4382 17.1891ZM9.49853 10.552C9.99652 10.552 10.4016 10.1592 10.4016 9.67631C10.4016 9.19341 9.99652 8.80058 9.49853 8.80058C9.00054 8.80058 8.59544 9.19341 8.59544 9.67631C8.59544 10.1592 9.00054 10.552 9.49853 10.552ZM13.4382 11.3509C14.653 11.3509 15.6422 12.3096 15.6422 13.4876C15.6422 14.6661 14.653 15.6253 13.4382 15.6253C12.2229 15.6253 11.2342 14.6661 11.2342 13.4876C11.2342 12.3096 12.2229 11.3509 13.4382 11.3509ZM13.4382 11.3509C14.653 11.3509 15.6422 12.3096 15.6422 13.4876C15.6422 14.6661 14.653 15.6253 13.4382 15.6253C12.2229 15.6253 11.2342 14.6661 11.2342 13.4876C11.2342 12.3096 12.2229 11.3509 13.4382 11.3509ZM13.4382 11.3509C14.653 11.3509 15.6422 12.3096 15.6422 13.4876C15.6422 14.6661 14.653 15.6253 13.4382 15.6253C12.2229 15.6253 11.2342 14.6661 11.2342 13.4876C11.2342 12.3096 12.2229 11.3509 13.4382 11.3509ZM9.76649 7.86638H17.1094C18.2814 7.86638 19.2351 8.79115 19.2351 9.92766V17.048C19.2351 18.1846 18.2814 19.1093 17.1094 19.1093H9.76649C8.59446 19.1093 7.64079 18.1846 7.64079 17.048V9.92766C7.64079 8.79115 8.59446 7.86638 9.76649 7.86638ZM13.4382 17.1891C15.5425 17.1891 17.2548 15.5286 17.2548 13.4876C17.2548 11.4471 15.5425 9.78666 13.4382 9.78666C11.3334 9.78666 9.62108 11.4471 9.62108 13.4876C9.62108 15.5286 11.3334 17.1891 13.4382 17.1891ZM9.49853 10.552C9.99652 10.552 10.4016 10.1592 10.4016 9.67631C10.4016 9.19341 9.99652 8.80058 9.49853 8.80058C9.00054 8.80058 8.59544 9.19341 8.59544 9.67631C8.59544 10.1592 9.00054 10.552 9.49853 10.552ZM13.4382 11.3509C14.653 11.3509 15.6422 12.3096 15.6422 13.4876C15.6422 14.6661 14.653 15.6253 13.4382 15.6253C12.2229 15.6253 11.2342 14.6661 11.2342 13.4876C11.2342 12.3096 12.2229 11.3509 13.4382 11.3509Z" fill="#EBB142"/>
</svg>
