<svg width="27" height="27" viewBox="0 0 27 27" fill="none" xmlns="http://www.w3.org/2000/svg">
<rect x="3.09473" y="2.60449" width="21.6665" height="21.6665" fill="#EBB142"/>
<rect x="1.35596" y="0.865723" width="25.144" height="25.144" stroke="#BE9141"/>
<path d="M20.9707 9.15048C20.5517 8.39633 20.097 8.25761 19.1711 8.20486C18.2463 8.14137 15.9205 8.11499 13.9057 8.11499C11.887 8.11499 9.56027 8.14137 8.63635 8.20389C7.71244 8.25761 7.25675 8.39535 6.83389 9.15048C6.40235 9.90366 6.1803 11.201 6.1803 13.4849C6.1803 13.4868 6.1803 13.4878 6.1803 13.4878C6.1803 13.4898 6.1803 13.4908 6.1803 13.4908V13.4927C6.1803 15.7669 6.40235 17.0739 6.83389 17.8193C7.25675 18.5735 7.71147 18.7102 8.63539 18.7737C9.56027 18.8284 11.887 18.8607 13.9057 18.8607C15.9205 18.8607 18.2463 18.8284 19.1721 18.7747C20.098 18.7112 20.5527 18.5744 20.9717 17.8203C21.4071 17.0749 21.6272 15.7679 21.6272 13.4937C21.6272 13.4937 21.6272 13.4908 21.6272 13.4888C21.6272 13.4888 21.6272 13.4868 21.6272 13.4859C21.6272 11.201 21.4071 9.90366 20.9707 9.15048ZM11.9729 16.4185V10.5572L16.8 13.4878L11.9729 16.4185Z" fill="#1A1A1A"/>
</svg>
