<svg width="50" height="72" viewBox="0 0 50 72" fill="none" xmlns="http://www.w3.org/2000/svg">
<path d="M0.558545 61.4094L20.7585 41.3094C23.9585 38.176 26.5252 35.0427 28.4585 31.9094C30.3919 28.7094 31.3585 25.2094 31.3585 21.4094V18.7094C31.3585 14.776 30.2919 11.776 28.1585 9.70937C26.0919 7.57604 23.2919 6.50937 19.7585 6.50937C18.4252 6.50937 17.1919 6.64271 16.0585 6.90937C14.9252 7.10937 13.9585 7.37604 13.1585 7.70937V8.20937C14.2252 8.80937 15.0919 9.64271 15.7585 10.7094C16.4919 11.776 16.8585 13.0094 16.8585 14.4094C16.8585 16.6094 16.1252 18.4427 14.6585 19.9094C13.2585 21.376 11.3919 22.1094 9.05855 22.1094C6.72521 22.1094 4.82521 21.376 3.35855 19.9094C1.95855 18.4427 1.25854 16.6094 1.25854 14.4094C1.25854 12.4094 1.75855 10.576 2.75855 8.90937C3.75855 7.17604 5.15855 5.70937 6.95855 4.50937C8.82521 3.30937 11.0585 2.37604 13.6585 1.70937C16.2585 0.976037 19.1919 0.609371 22.4585 0.609371C30.3919 0.609371 36.4919 2.30937 40.7585 5.70937C45.0919 9.04271 47.2585 13.7427 47.2585 19.8094C47.2585 22.676 46.7585 25.3094 45.7585 27.7094C44.7585 30.0427 43.4252 32.2427 41.7585 34.3094C40.0919 36.3094 38.1585 38.2427 35.9585 40.1094C33.7585 41.9094 31.4919 43.7094 29.1585 45.5094L11.2585 59.1094V59.5094H42.6585V50.7094H49.5586V71.6094H0.558545V61.4094Z" fill="url(#paint0_linear)"/>
<defs>
<linearGradient id="paint0_linear" x1="-3.75469" y1="33.5868" x2="56.2246" y2="33.5868" gradientUnits="userSpaceOnUse">
<stop stop-color="#6A5538"/>
<stop offset="0.213542" stop-color="#BC975E"/>
<stop offset="0.375" stop-color="#D9BE85"/>
<stop offset="0.552083" stop-color="#E7D491"/>
<stop offset="0.6735" stop-color="#C5A76C"/>
<stop offset="0.817708" stop-color="#BC975E"/>
<stop offset="1" stop-color="#6A5538"/>
</linearGradient>
</defs>
</svg>
