<svg width="51" height="73" viewBox="0 0 51 73" fill="none" xmlns="http://www.w3.org/2000/svg">
<path d="M23.4171 72.8094C16.2171 72.8094 10.6504 71.5094 6.71709 68.9094C2.85042 66.3094 0.91709 63.0094 0.91709 59.0094C0.91709 56.8094 1.61709 54.976 3.01709 53.5094C4.48376 52.0427 6.38376 51.3094 8.71709 51.3094C11.0504 51.3094 12.9171 52.0427 14.3171 53.5094C15.7838 54.976 16.5171 56.8094 16.5171 59.0094C16.5171 61.676 15.2838 63.7427 12.8171 65.2094V65.7094C13.6838 66.0427 14.7171 66.3427 15.9171 66.6094C17.1838 66.8094 18.6838 66.9094 20.4171 66.9094C25.1504 66.9094 28.6504 65.9427 30.9171 64.0094C33.2504 62.076 34.4171 58.876 34.4171 54.4094V51.0094C34.4171 46.876 33.2504 43.776 30.9171 41.7094C28.6504 39.576 24.9504 38.5094 19.8171 38.5094H13.3171V31.7094H19.6171C24.4838 31.7094 27.9838 30.676 30.1171 28.6094C32.3171 26.476 33.4171 23.7094 33.4171 20.3094V17.6094C33.4171 14.0094 32.3504 11.276 30.2171 9.40937C28.1504 7.47604 25.3171 6.50937 21.7171 6.50937C20.1171 6.50937 18.7504 6.64271 17.6171 6.90937C16.4838 7.10937 15.5171 7.37604 14.7171 7.70937V8.20937C15.7838 8.80937 16.6504 9.64271 17.3171 10.7094C18.0504 11.776 18.4171 13.0094 18.4171 14.4094C18.4171 16.6094 17.6838 18.4427 16.2171 19.9094C14.8171 21.376 12.9504 22.1094 10.6171 22.1094C8.28376 22.1094 6.38376 21.376 4.91709 19.9094C3.51709 18.4427 2.81709 16.6094 2.81709 14.4094C2.81709 12.476 3.28376 10.676 4.21709 9.00937C5.15042 7.34271 6.51709 5.87604 8.31709 4.60937C10.1838 3.34271 12.4504 2.37604 15.1171 1.70937C17.7838 0.976037 20.8504 0.609371 24.3171 0.609371C32.4504 0.609371 38.6504 2.0427 42.9171 4.90937C47.1838 7.70937 49.3171 11.9427 49.3171 17.6094C49.3171 19.876 48.7838 21.976 47.7171 23.9094C46.6504 25.776 45.2504 27.4427 43.5171 28.9094C41.8504 30.376 39.9171 31.576 37.7171 32.5094C35.5838 33.4427 33.4171 34.076 31.2171 34.4094V35.0094C33.6171 35.3427 35.9504 35.9427 38.2171 36.8094C40.5504 37.6094 42.6171 38.7094 44.4171 40.1094C46.2171 41.5094 47.6504 43.2427 48.7171 45.3094C49.8504 47.3094 50.4171 49.676 50.4171 52.4094C50.4171 58.6094 48.1171 63.576 43.5171 67.3094C38.9171 70.976 32.2171 72.8094 23.4171 72.8094Z" fill="url(#paint0_linear)"/>
<defs>
<linearGradient id="paint0_linear" x1="-3.49614" y1="33.5868" x2="56.4831" y2="33.5868" gradientUnits="userSpaceOnUse">
<stop stop-color="#6A5538"/>
<stop offset="0.213542" stop-color="#BC975E"/>
<stop offset="0.375" stop-color="#D9BE85"/>
<stop offset="0.552083" stop-color="#E7D491"/>
<stop offset="0.6735" stop-color="#C5A76C"/>
<stop offset="0.817708" stop-color="#BC975E"/>
<stop offset="1" stop-color="#6A5538"/>
</linearGradient>
</defs>
</svg>
