<svg width="50" height="72" viewBox="0 0 50 72" fill="none" xmlns="http://www.w3.org/2000/svg">
<path d="M22.1585 71.3406C18.7585 71.3406 15.6919 70.974 12.9585 70.2406C10.2919 69.574 8.02521 68.6406 6.15855 67.4406C4.29188 66.2406 2.85854 64.8406 1.85854 63.2406C0.925212 61.6406 0.458545 59.9406 0.458545 58.1406C0.458545 55.7406 1.12521 53.8073 2.45855 52.3406C3.85855 50.874 5.72521 50.1406 8.05855 50.1406C10.3919 50.1406 12.1919 50.874 13.4585 52.3406C14.7919 53.7406 15.4585 55.5073 15.4585 57.6406C15.4585 58.974 15.0919 60.2073 14.3585 61.3406C13.6919 62.474 12.8252 63.274 11.7585 63.7406V64.2406C13.8252 65.1073 16.4919 65.5406 19.7585 65.5406C24.4252 65.5406 27.9919 64.374 30.4585 62.0406C32.9252 59.6406 34.1585 56.0073 34.1585 51.1406V48.6406C34.1585 44.174 33.0919 40.774 30.9585 38.4406C28.8252 36.1073 25.6585 34.9406 21.4585 34.9406C18.8585 34.9406 16.5919 35.5406 14.6585 36.7406C12.7919 37.9406 11.3919 39.3406 10.4585 40.9406L3.75855 39.5406L6.35855 0.340624H45.8585V13.0406H11.8585L10.1585 36.0406H10.5585C11.1585 34.9073 11.9252 33.8073 12.8585 32.7406C13.7919 31.6073 14.9252 30.6073 16.2585 29.7406C17.6585 28.874 19.2252 28.174 20.9585 27.6406C22.7585 27.1073 24.8252 26.8406 27.1585 26.8406C30.4252 26.8406 33.3919 27.3406 36.0585 28.3406C38.7252 29.274 41.0252 30.674 42.9585 32.5406C44.8919 34.3406 46.3919 36.6073 47.4585 39.3406C48.5252 42.074 49.0585 45.174 49.0585 48.6406C49.0585 52.1073 48.4252 55.2406 47.1586 58.0406C45.9585 60.8406 44.1919 63.2406 41.8585 65.2406C39.5252 67.174 36.6919 68.674 33.3585 69.7406C30.0252 70.8073 26.2919 71.3406 22.1585 71.3406Z" fill="url(#paint0_linear)"/>
<defs>
<linearGradient id="paint0_linear" x1="-4.75469" y1="32.1181" x2="55.2246" y2="32.1181" gradientUnits="userSpaceOnUse">
<stop stop-color="#6A5538"/>
<stop offset="0.213542" stop-color="#BC975E"/>
<stop offset="0.375" stop-color="#D9BE85"/>
<stop offset="0.552083" stop-color="#E7D491"/>
<stop offset="0.6735" stop-color="#C5A76C"/>
<stop offset="0.817708" stop-color="#BC975E"/>
<stop offset="1" stop-color="#6A5538"/>
</linearGradient>
</defs>
</svg>
