<svg width="51" height="73" viewBox="0 0 51 73" fill="none" xmlns="http://www.w3.org/2000/svg">
<path d="M25.6171 72.3406C21.6171 72.3406 18.0504 71.7073 14.9171 70.4406C11.7838 69.1073 9.11709 67.2406 6.91709 64.8406C4.78376 62.4406 3.15042 59.5406 2.01709 56.1406C0.883757 52.674 0.31709 48.774 0.31709 44.4406C0.31709 37.574 1.35042 31.5406 3.41709 26.3406C5.55042 21.074 8.45042 16.6073 12.1171 12.9406C15.7838 9.20729 20.1171 6.30729 25.1171 4.24062C30.1838 2.10729 35.6504 0.740621 41.5171 0.140621L43.0171 5.24062C38.6838 6.24062 34.8171 7.67395 31.4171 9.54062C28.0838 11.4073 25.2171 13.674 22.8171 16.3406C20.4171 18.9406 18.5171 21.9073 17.1171 25.2406C15.7171 28.5073 14.8838 32.074 14.6171 35.9406L15.0171 36.0406C15.4838 34.8406 16.1504 33.674 17.0171 32.5406C17.9504 31.3406 19.0838 30.274 20.4171 29.3406C21.7504 28.4073 23.2838 27.674 25.0171 27.1406C26.7504 26.5406 28.7171 26.2406 30.9171 26.2406C37.3171 26.2406 42.2171 28.174 45.6171 32.0406C49.0171 35.8406 50.7171 41.2406 50.7171 48.2406C50.7171 51.774 50.1171 55.0406 48.9171 58.0406C47.7838 60.974 46.1504 63.5073 44.0171 65.6406C41.8838 67.774 39.2504 69.4406 36.1171 70.6406C32.9838 71.774 29.4838 72.3406 25.6171 72.3406ZM25.5171 65.8406C27.5838 65.8406 29.2838 65.5073 30.6171 64.8406C32.0171 64.1073 33.1171 63.1073 33.9171 61.8406C34.7171 60.574 35.2838 59.074 35.6171 57.3406C35.9504 55.5406 36.1171 53.5406 36.1171 51.3406V49.0406C36.1171 46.8406 35.9504 44.874 35.6171 43.1406C35.2838 41.3406 34.7171 39.8073 33.9171 38.5406C33.1171 37.274 32.0171 36.3073 30.6171 35.6406C29.2838 34.9073 27.5838 34.5406 25.5171 34.5406C23.3838 34.5406 21.6171 34.9073 20.2171 35.6406C18.8838 36.3073 17.8171 37.274 17.0171 38.5406C16.2171 39.8073 15.6504 41.3406 15.3171 43.1406C15.0504 44.874 14.9171 46.8406 14.9171 49.0406V51.3406C14.9171 53.5406 15.0504 55.5406 15.3171 57.3406C15.6504 59.074 16.2171 60.574 17.0171 61.8406C17.8171 63.1073 18.8838 64.1073 20.2171 64.8406C21.6171 65.5073 23.3838 65.8406 25.5171 65.8406Z" fill="url(#paint0_linear)"/>
<defs>
<linearGradient id="paint0_linear" x1="-4.49614" y1="33.1181" x2="55.4831" y2="33.1181" gradientUnits="userSpaceOnUse">
<stop stop-color="#6A5538"/>
<stop offset="0.213542" stop-color="#BC975E"/>
<stop offset="0.375" stop-color="#D9BE85"/>
<stop offset="0.552083" stop-color="#E7D491"/>
<stop offset="0.6735" stop-color="#C5A76C"/>
<stop offset="0.817708" stop-color="#BC975E"/>
<stop offset="1" stop-color="#6A5538"/>
</linearGradient>
</defs>
</svg>
