<svg width="86" height="71" viewBox="0 0 86 71" fill="none" xmlns="http://www.w3.org/2000/svg">
<path d="M82.1852 21.3188C83.7746 21.3188 85.0673 20.026 85.0673 18.4367V14.862C85.0673 13.2726 83.7746 11.9792 82.1852 11.9792H82.0029C82.7796 10.7891 83.2328 9.36923 83.2328 7.84536C83.2328 3.66083 79.8282 0.256836 75.6436 0.256836C71.4597 0.256836 68.0551 3.66083 68.0551 7.84536C68.0551 9.36923 68.5083 10.7891 69.285 11.9792H69.1033C67.514 11.9792 66.2206 13.2726 66.2206 14.862V18.4367C66.2206 20.026 67.514 21.3188 69.1033 21.3188H71.0284V24.2818H69.0642C68.2027 24.2818 67.3522 24.5071 66.6044 24.934L66.1512 25.1927L65.7751 24.5906C64.9663 23.2946 63.2807 22.8594 61.9378 23.6008C56.7262 26.4784 50.0004 28.0626 42.9999 28.0626C35.9987 28.0626 29.2735 26.4778 24.0619 23.6008C22.7184 22.8594 21.0328 23.2946 20.224 24.5906L19.8478 25.1927L19.3953 24.934C18.6475 24.5071 17.7963 24.2818 16.9356 24.2818H14.9707V21.3188H16.8964C18.4857 21.3188 19.7785 20.026 19.7785 18.4367V14.862C19.7785 13.2726 18.4857 11.9792 16.8964 11.9792H16.7141C17.4908 10.7891 17.944 9.36923 17.944 7.84536C17.944 3.66083 14.54 0.256836 10.3554 0.256836C9.54666 0.256836 8.74621 0.385216 7.97721 0.638766C7.33082 0.851876 6.9797 1.54898 7.19281 2.19537C7.40592 2.84176 8.10303 3.19288 8.74942 2.97977C9.26871 2.80838 9.80919 2.72173 10.3554 2.72173C13.1804 2.72173 15.4791 5.02037 15.4791 7.84536C15.4791 10.6704 13.1804 12.969 10.3554 12.969C7.53045 12.969 5.23181 10.6704 5.23181 7.84536C5.23181 7.32543 5.30884 6.81319 5.46161 6.32214C5.66317 5.67189 5.3005 4.98121 4.65025 4.77965C4.00129 4.57746 3.30997 4.94013 3.10777 5.59037C2.88182 6.31829 2.76692 7.07701 2.76692 7.84536C2.76692 9.36923 3.2201 10.7891 3.99616 11.9792H3.8145C2.22516 11.9792 0.932373 13.2726 0.932373 14.862V18.4367C0.932373 20.026 2.22516 21.3188 3.8145 21.3188H5.7402V24.2825C5.06941 24.2934 4.52829 24.8403 4.52829 25.5143C4.52829 26.1876 5.06941 26.7345 5.7402 26.7454V61.105C3.00827 61.6127 0.932373 64.0128 0.932373 66.8904V67.4617C0.932373 69.0511 2.22516 70.3438 3.8145 70.3438H16.8964C18.4857 70.3438 19.7785 69.0511 19.7785 67.4617V66.8904C19.7785 64.0128 17.7033 61.6127 14.9713 61.105V26.7467H16.9356C17.3688 26.7467 17.797 26.8603 18.1731 27.0747L18.5429 27.2859L18.0473 28.0799C17.632 28.7449 17.5056 29.5621 17.7007 30.3215C17.8971 31.0872 18.3843 31.7221 19.0731 32.1072C21.2722 33.339 23.6838 34.4007 26.2412 35.2634C26.8856 35.481 27.5853 35.1344 27.8029 34.4893C28.0199 33.8442 27.6739 33.1452 27.0288 32.9276C24.6152 32.1136 22.3442 31.1142 20.2773 29.9569C20.156 29.8888 20.1078 29.7848 20.0886 29.7091C20.0719 29.6442 20.0565 29.5165 20.1386 29.3849L22.316 25.8956C22.4315 25.7107 22.6754 25.651 22.8712 25.7588C28.441 28.8342 35.5898 30.5275 43.0005 30.5275C50.4106 30.5275 57.5594 28.8342 63.1298 25.7588C63.3256 25.651 63.5695 25.7107 63.6851 25.8962L65.8624 29.3849C65.9445 29.5165 65.9291 29.6442 65.9124 29.7091C65.8932 29.7848 65.8444 29.8888 65.7231 29.9569C59.3895 33.504 51.3202 35.4573 43.0005 35.4573C39.4367 35.4573 35.912 35.1042 32.526 34.4078C31.8591 34.2711 31.2075 34.6998 31.0702 35.3668C30.9334 36.0331 31.3622 36.6846 32.0292 36.822C35.5789 37.5524 39.2704 37.9222 43.0005 37.9222C51.7348 37.9222 60.2323 35.8572 66.9279 32.1072C67.616 31.7221 68.1039 31.0879 68.3003 30.3215C68.4948 29.5621 68.369 28.7449 67.9537 28.0799L67.4581 27.2859L67.8272 27.0754C68.2034 26.8603 68.6315 26.7467 69.0648 26.7467H71.0297V46.6892C71.0297 47.3696 71.581 47.9217 72.2621 47.9217C72.9425 47.9217 73.4946 47.3696 73.4946 46.6892V26.7467H77.7953V61.0042H73.4946V52.5048C73.4946 51.8244 72.9425 51.2724 72.2621 51.2724C71.581 51.2724 71.0297 51.8244 71.0297 52.5048V61.105C68.2971 61.6127 66.2218 64.0128 66.2218 66.8904V67.4617C66.2218 69.0511 67.5146 70.3438 69.104 70.3438H82.1859C83.7752 70.3438 85.068 69.0511 85.068 67.4617V66.8904C85.068 64.0128 82.9927 61.6127 80.2602 61.105V26.7454C80.9316 26.7345 81.4721 26.1876 81.4721 25.5136C81.4721 24.8396 80.9316 24.2934 80.2602 24.2825V21.3188H82.1852ZM3.39726 18.4367V14.862C3.39726 14.6315 3.5847 14.4441 3.8145 14.4441H6.51946C6.54899 14.4441 6.57787 14.4422 6.6074 14.4396C7.71404 15.0712 8.9927 15.4339 10.3554 15.4339C11.715 15.4339 12.9911 15.0731 14.0958 14.4441H16.8964C17.1268 14.4441 17.3136 14.6315 17.3136 14.862V18.4367C17.3136 18.6671 17.1268 18.8539 16.8964 18.8539H3.8145C3.5847 18.8539 3.39726 18.6671 3.39726 18.4367ZM12.5058 21.3188V24.2818H8.20509V21.3188H12.5058ZM17.3136 66.8904V67.4617C17.3136 67.6915 17.1262 67.879 16.8964 67.879H3.8145C3.5847 67.879 3.39726 67.6915 3.39726 67.4617V66.8904C3.39726 65.0039 4.93205 63.4691 6.81794 63.4691H13.893C15.7789 63.4691 17.3136 65.0039 17.3136 66.8904ZM12.5058 61.0042H8.20509V26.7467H12.5058V61.0042ZM75.6443 2.72173C78.4693 2.72173 80.7679 5.02037 80.7679 7.84536C80.7679 10.671 78.4693 12.9696 75.6443 12.9696C72.8186 12.9696 70.52 10.671 70.52 7.84536C70.52 5.02037 72.8186 2.72173 75.6443 2.72173ZM68.6861 18.4367V14.862C68.6861 14.6315 68.8735 14.4441 69.1033 14.4441H71.8802C71.8872 14.4441 71.8943 14.4434 71.902 14.4428C73.0067 15.0725 74.2841 15.4339 75.6443 15.4339C77.0038 15.4339 78.2799 15.0731 79.3846 14.4441H82.1852C82.415 14.4441 82.6025 14.6315 82.6025 14.862V18.4367C82.6025 18.6671 82.415 18.8539 82.1852 18.8539H69.1033C68.8735 18.8539 68.6861 18.6671 68.6861 18.4367ZM82.6025 66.8904V67.4617C82.6025 67.6915 82.415 67.879 82.1852 67.879H69.1033C68.8729 67.879 68.6861 67.6915 68.6861 67.4617V66.8904C68.6861 65.0039 70.2202 63.4691 72.1068 63.4691H79.1811C81.0677 63.4691 82.6025 65.0039 82.6025 66.8904ZM77.7946 24.2818H73.4939V21.3188H77.7946V24.2818Z" fill="url(#paint0_linear)"/>
<defs>
<linearGradient id="paint0_linear" x1="0.913819" y1="35.2882" x2="85.0204" y2="35.2882" gradientUnits="userSpaceOnUse">
<stop stop-color="#6A5538"/>
<stop offset="0.213542" stop-color="#BC975E"/>
<stop offset="0.375" stop-color="#D9BE85"/>
<stop offset="0.552083" stop-color="#E7D491"/>
<stop offset="0.6735" stop-color="#C5A76C"/>
<stop offset="0.817708" stop-color="#BC975E"/>
<stop offset="1" stop-color="#6A5538"/>
</linearGradient>
</defs>
</svg>
