<svg width="84" height="85" viewBox="0 0 84 85" fill="none" xmlns="http://www.w3.org/2000/svg">
<path d="M81.4772 29.2505C74.6614 7.47872 51.4096 -4.68824 29.6336 2.12477C7.86037 8.94058 -4.30807 32.198 2.50642 53.9697L5.182 53.1317C-1.17139 32.8358 10.1729 11.1536 30.4717 4.79887C40.305 1.7225 50.748 2.65867 59.8736 7.43386C69.0033 12.2118 75.7253 20.2567 78.8031 30.0887C81.8795 39.9206 80.9447 50.3623 76.1682 59.4906C71.393 68.6203 63.3481 75.3423 53.5148 78.4202C37.0563 83.5709 19.0154 77.0663 9.63198 62.5994L7.28013 64.1244C15.0364 76.0853 28.3119 82.9725 42.0738 82.9711C46.1664 82.9711 50.3052 82.3627 54.3516 81.093C64.8982 77.7923 73.5277 70.5813 78.6518 60.79C83.7759 50.9985 84.7779 39.7973 81.4772 29.2505Z" fill="url(#paint0_linear)"/>
<path d="M33.869 19.8544L34.6735 17.169L20.6579 12.9643C20.1674 12.8158 19.6305 12.9503 19.2647 13.3161L16.4616 16.1192C16.1351 16.4458 15.9907 16.9124 16.0748 17.3666C16.1589 17.8207 16.4616 18.2034 16.8834 18.3912L29.4976 23.9974L30.6357 21.4354L19.8872 16.6574L20.6553 15.8893L33.869 19.8544Z" fill="url(#paint1_linear)"/>
<path d="M46.8881 11.5054C46.8881 10.7318 46.2615 10.1039 45.4865 10.1039C45.485 10.1039 45.485 10.1039 45.4837 10.1039C42.4003 10.1039 39.5004 11.3049 37.3196 13.4859L25.4345 25.3697L20.5977 24.1601C20.1198 24.041 19.6151 24.1797 19.2661 24.5287L16.463 27.3318C16.1575 27.6373 16.009 28.0662 16.0622 28.4937C16.1155 28.9212 16.3621 29.3024 16.7322 29.5239L23.44 33.5491L27.4652 40.257C27.6867 40.627 28.0665 40.8737 28.4954 40.9269C28.5514 40.934 28.6089 40.9368 28.6665 40.9368C29.035 40.9368 29.3925 40.791 29.6588 40.5276L32.4619 37.7245C32.8095 37.3755 32.9496 36.871 32.8305 36.393L31.6224 31.5617L43.6968 19.6064C45.757 17.4493 46.8909 14.6155 46.8881 11.5054ZM29.0812 30.1293C28.7294 30.4768 28.5879 30.9843 28.707 31.4649L29.9167 36.3018L28.944 37.2744L25.6629 31.8056C25.5437 31.6079 25.3797 31.4426 25.1822 31.3249L19.7134 28.0438L20.6861 27.0712L25.5229 28.2808C26.0007 28.3999 26.5054 28.2612 26.8544 27.9122L39.3003 15.4664C40.5897 14.1756 42.2126 13.3388 43.9731 13.0346C43.6955 14.767 42.9064 16.3731 41.6955 17.6416L29.0812 30.1293Z" fill="url(#paint2_linear)"/>
<path d="M44.0246 36.5162L39.82 22.3185L37.1318 23.1147L41.0827 36.4548L40.232 37.2061L35.5592 26.3664L32.9845 27.4764L38.4226 40.0905C38.6005 40.5026 38.965 40.8053 39.4036 40.9034C39.506 40.9258 39.6082 40.9371 39.7106 40.9371C40.0484 40.9371 40.379 40.8152 40.637 40.5868L43.6084 37.9659C44.0176 37.6052 44.1788 37.0404 44.0246 36.5162Z" fill="url(#paint3_linear)"/>
<path d="M27.3096 77.5134C17.3277 82.2435 9.49715 82.8547 5.83068 79.1897C-0.524024 72.835 6.37723 54.3723 21.8827 36.2417L19.7523 34.4196C2.74593 54.3049 -3.79513 73.5301 3.84758 81.1714C5.98219 83.3046 8.99694 84.3684 12.7362 84.3684C17.095 84.3684 22.4378 82.9235 28.5093 80.046L27.3096 77.5134Z" fill="url(#paint4_linear)"/>
<path d="M74.7539 48.6845C74.5101 48.2289 74.035 47.9445 73.5177 47.9445H68.7777L64.9599 40.3102C64.7216 39.8351 64.2367 39.535 63.7054 39.535H49.6897C48.9146 39.535 48.2882 40.1629 48.2882 40.9366V52.1491C48.2882 52.9243 48.9148 53.5507 49.6897 53.5507H53.8944V68.9679C53.8944 69.743 54.5208 70.3694 55.2959 70.3694H62.3037C62.6751 70.3694 63.0312 70.2222 63.2961 69.9573L68.9022 64.3511C69.1657 64.089 69.3129 63.7331 69.3129 63.3602V58.1786L74.6836 50.1225C74.9697 49.6936 74.9978 49.14 74.7539 48.6845ZM66.744 56.9776C66.5911 57.2075 66.5085 57.4793 66.5085 57.7555V62.7814L61.7236 67.5663H56.6962V52.1491C56.6962 51.374 56.0698 50.7476 55.2946 50.7476H51.09V42.3383H62.8379L66.6557 49.9726C66.894 50.4477 67.3789 50.7478 67.91 50.7478H70.8982L66.744 56.9776Z" fill="url(#paint5_linear)"/>
<path d="M75.7308 36.732L70.5282 27.6275C70.2787 27.1902 69.8134 26.921 69.3117 26.921H60.9024C60.4342 26.921 59.9969 27.155 59.7363 27.5446L57.3495 31.1257H53.8946V24.1179H60.9024C61.2752 24.1179 61.6299 23.9707 61.8933 23.7073L67.0888 18.5117H73.5163V15.7086H66.5086C66.1357 15.7086 65.7811 15.8559 65.5177 16.1193L60.3221 21.3148H52.4931C51.718 21.3148 51.0915 21.9427 51.0915 22.7164V32.5272C51.0915 33.3009 51.7181 33.9288 52.4931 33.9288H58.0993C58.5675 33.9288 59.0047 33.6948 59.2653 33.3051L61.6522 29.7241H68.4989L73.7015 38.8287C73.951 39.2659 74.4163 39.5351 74.918 39.5351H80.5242V36.732H75.7308Z" fill="url(#paint6_linear)"/>
<path d="M41.2805 50.7477H33.4514L29.6574 46.9537C29.3953 46.6901 29.0379 46.543 28.6665 46.543H21.6588C20.8851 46.543 20.2572 47.1696 20.2572 47.9446V57.7554C20.2572 58.5306 20.8851 59.157 21.6588 59.157H27.265V73.1726C27.265 73.7039 27.5649 74.1888 28.0401 74.4269C28.2378 74.525 28.4536 74.5742 28.6667 74.5742C28.9638 74.5742 29.2596 74.4803 29.5076 74.2938L35.1138 70.0892C35.4669 69.8243 35.6744 69.408 35.6744 68.968V65.4361L42.1567 60.2517C42.4888 59.9855 42.6822 59.5832 42.6822 59.1571V52.1494C42.682 51.3743 42.0541 50.7477 41.2805 50.7477ZM39.8789 58.4844L33.3967 63.6687C33.0646 63.9351 32.8712 64.3372 32.8712 64.7633V68.2673L30.0681 70.3697V57.7556C30.0681 56.9804 29.4402 56.354 28.6665 56.354H23.0603V49.3463H28.0863L31.8803 53.1403C32.1424 53.4037 32.4998 53.5509 32.8712 53.5509H39.8789V58.4844Z" fill="url(#paint7_linear)"/>
<path d="M13.0488 30.4041L8.84412 23.3963C8.59188 22.9745 8.13488 22.7165 7.64305 22.7165H6.2415V25.5196H6.84984L10.0833 30.9086L6.65232 34.3396C6.38874 34.6017 6.24167 34.9591 6.24167 35.3305V39.5351H2.03669V42.3382H7.64289C8.41654 42.3382 9.04443 41.7103 9.04443 40.9366V35.9107L12.8384 32.1167C13.2926 31.6612 13.3796 30.9562 13.0488 30.4041Z" fill="url(#paint8_linear)"/>
<path d="M44.085 1.69315V3.40297L39.5397 4.53963C39.384 4.5789 39.2355 4.64479 39.1024 4.73304L35.5746 7.08489L27.8926 3.24325L26.6383 5.75055L35.0476 9.9552C35.2453 10.0533 35.4597 10.1024 35.6742 10.1024C35.9462 10.1024 36.2166 10.0226 36.4506 9.86696L40.4535 7.19844L45.8257 5.85572C46.4493 5.70011 46.8881 5.13959 46.8881 4.49624V1.69315H44.085Z" fill="url(#paint9_linear)"/>
<defs>
<linearGradient id="paint0_linear" x1="0.595272" y1="42.2858" x2="83.3397" y2="42.2858" gradientUnits="userSpaceOnUse">
<stop stop-color="#6A5538"/>
<stop offset="0.213542" stop-color="#BC975E"/>
<stop offset="0.375" stop-color="#D9BE85"/>
<stop offset="0.552083" stop-color="#E7D491"/>
<stop offset="0.6735" stop-color="#C5A76C"/>
<stop offset="0.817708" stop-color="#BC975E"/>
<stop offset="1" stop-color="#6A5538"/>
</linearGradient>
<linearGradient id="paint1_linear" x1="0.595272" y1="42.2858" x2="83.3397" y2="42.2858" gradientUnits="userSpaceOnUse">
<stop stop-color="#6A5538"/>
<stop offset="0.213542" stop-color="#BC975E"/>
<stop offset="0.375" stop-color="#D9BE85"/>
<stop offset="0.552083" stop-color="#E7D491"/>
<stop offset="0.6735" stop-color="#C5A76C"/>
<stop offset="0.817708" stop-color="#BC975E"/>
<stop offset="1" stop-color="#6A5538"/>
</linearGradient>
<linearGradient id="paint2_linear" x1="0.595272" y1="42.2858" x2="83.3397" y2="42.2858" gradientUnits="userSpaceOnUse">
<stop stop-color="#6A5538"/>
<stop offset="0.213542" stop-color="#BC975E"/>
<stop offset="0.375" stop-color="#D9BE85"/>
<stop offset="0.552083" stop-color="#E7D491"/>
<stop offset="0.6735" stop-color="#C5A76C"/>
<stop offset="0.817708" stop-color="#BC975E"/>
<stop offset="1" stop-color="#6A5538"/>
</linearGradient>
<linearGradient id="paint3_linear" x1="0.595272" y1="42.2858" x2="83.3397" y2="42.2858" gradientUnits="userSpaceOnUse">
<stop stop-color="#6A5538"/>
<stop offset="0.213542" stop-color="#BC975E"/>
<stop offset="0.375" stop-color="#D9BE85"/>
<stop offset="0.552083" stop-color="#E7D491"/>
<stop offset="0.6735" stop-color="#C5A76C"/>
<stop offset="0.817708" stop-color="#BC975E"/>
<stop offset="1" stop-color="#6A5538"/>
</linearGradient>
<linearGradient id="paint4_linear" x1="0.595272" y1="42.2858" x2="83.3397" y2="42.2858" gradientUnits="userSpaceOnUse">
<stop stop-color="#6A5538"/>
<stop offset="0.213542" stop-color="#BC975E"/>
<stop offset="0.375" stop-color="#D9BE85"/>
<stop offset="0.552083" stop-color="#E7D491"/>
<stop offset="0.6735" stop-color="#C5A76C"/>
<stop offset="0.817708" stop-color="#BC975E"/>
<stop offset="1" stop-color="#6A5538"/>
</linearGradient>
<linearGradient id="paint5_linear" x1="0.595272" y1="42.2858" x2="83.3397" y2="42.2858" gradientUnits="userSpaceOnUse">
<stop stop-color="#6A5538"/>
<stop offset="0.213542" stop-color="#BC975E"/>
<stop offset="0.375" stop-color="#D9BE85"/>
<stop offset="0.552083" stop-color="#E7D491"/>
<stop offset="0.6735" stop-color="#C5A76C"/>
<stop offset="0.817708" stop-color="#BC975E"/>
<stop offset="1" stop-color="#6A5538"/>
</linearGradient>
<linearGradient id="paint6_linear" x1="0.595272" y1="42.2858" x2="83.3397" y2="42.2858" gradientUnits="userSpaceOnUse">
<stop stop-color="#6A5538"/>
<stop offset="0.213542" stop-color="#BC975E"/>
<stop offset="0.375" stop-color="#D9BE85"/>
<stop offset="0.552083" stop-color="#E7D491"/>
<stop offset="0.6735" stop-color="#C5A76C"/>
<stop offset="0.817708" stop-color="#BC975E"/>
<stop offset="1" stop-color="#6A5538"/>
</linearGradient>
<linearGradient id="paint7_linear" x1="0.595272" y1="42.2858" x2="83.3397" y2="42.2858" gradientUnits="userSpaceOnUse">
<stop stop-color="#6A5538"/>
<stop offset="0.213542" stop-color="#BC975E"/>
<stop offset="0.375" stop-color="#D9BE85"/>
<stop offset="0.552083" stop-color="#E7D491"/>
<stop offset="0.6735" stop-color="#C5A76C"/>
<stop offset="0.817708" stop-color="#BC975E"/>
<stop offset="1" stop-color="#6A5538"/>
</linearGradient>
<linearGradient id="paint8_linear" x1="0.595272" y1="42.2858" x2="83.3397" y2="42.2858" gradientUnits="userSpaceOnUse">
<stop stop-color="#6A5538"/>
<stop offset="0.213542" stop-color="#BC975E"/>
<stop offset="0.375" stop-color="#D9BE85"/>
<stop offset="0.552083" stop-color="#E7D491"/>
<stop offset="0.6735" stop-color="#C5A76C"/>
<stop offset="0.817708" stop-color="#BC975E"/>
<stop offset="1" stop-color="#6A5538"/>
</linearGradient>
<linearGradient id="paint9_linear" x1="0.595272" y1="42.2858" x2="83.3397" y2="42.2858" gradientUnits="userSpaceOnUse">
<stop stop-color="#6A5538"/>
<stop offset="0.213542" stop-color="#BC975E"/>
<stop offset="0.375" stop-color="#D9BE85"/>
<stop offset="0.552083" stop-color="#E7D491"/>
<stop offset="0.6735" stop-color="#C5A76C"/>
<stop offset="0.817708" stop-color="#BC975E"/>
<stop offset="1" stop-color="#6A5538"/>
</linearGradient>
</defs>
</svg>
