<svg width="80" height="79" viewBox="0 0 80 79" fill="none" xmlns="http://www.w3.org/2000/svg">
<path d="M74.1789 75.518H71.5496V63.6864H75.4935V61.0572H71.5496V58.4279H78.1227C78.3827 58.4279 78.6368 58.3507 78.853 58.2063C79.0691 58.0618 79.2375 57.8565 79.337 57.6164C79.4365 57.3762 79.4625 57.1119 79.4118 56.8569C79.3611 56.6019 79.236 56.3677 79.0522 56.1839L71.1645 48.2961C70.918 48.0496 70.5836 47.911 70.235 47.9109H9.76241C9.41378 47.911 9.07946 48.0496 8.83297 48.2961L0.945243 56.1839C0.761446 56.3677 0.636286 56.6019 0.585584 56.8569C0.534882 57.1119 0.560916 57.3762 0.660393 57.6164C0.759871 57.8565 0.928326 58.0618 1.14446 58.2063C1.3606 58.3507 1.61471 58.4279 1.87468 58.4279H7.13317V75.518H0.560059V78.1472H74.1789V75.518ZM68.9204 75.518H53.1449V63.6864H68.9204V75.518ZM24.2232 54.4841V75.518H21.594V55.0283L25.5379 51.0844L32.4962 58.0427C32.7426 58.2893 33.077 58.4278 33.4256 58.4279H43.9426V61.0572H38.6841V63.6864H43.9426V75.518H26.8525V54.4841H24.2232ZM17.6501 58.4279C17.9988 58.4278 18.3331 58.2893 18.5796 58.0427L18.9648 57.6576V75.518H15.0209V58.4279H17.6501ZM50.5157 58.4279V61.0572H46.5718V58.4279H50.5157ZM46.5718 63.6864H50.5157V75.518H46.5718V63.6864ZM68.9204 61.0572H53.1449V58.4279H68.9204V61.0572ZM69.6908 50.5402L74.9492 55.7987H33.9699L28.7114 50.5402H69.6908ZM10.3067 50.5402H22.3644L17.1059 55.7987H5.04818L10.3067 50.5402ZM9.76241 58.4279H12.3917V75.518H9.76241V58.4279Z" fill="url(#paint0_linear)"/>
<path d="M36.0548 61.0572H33.4256V63.6864H36.0548V61.0572Z" fill="url(#paint1_linear)"/>
<path d="M79.4374 75.518H76.8081V78.1473H79.4374V75.518Z" fill="url(#paint2_linear)"/>
<path d="M10.237 31.6097C10.7286 32.1043 11.3488 32.4513 12.0275 32.6114C12.7063 32.7715 13.4162 32.7383 14.077 32.5154L16.797 31.6097C17.0369 31.5297 17.2968 31.533 17.5346 31.6192C17.7724 31.7054 17.9741 31.8693 18.107 32.0844C18.24 32.2996 18.2965 32.5533 18.2672 32.8045C18.238 33.0557 18.1248 33.2897 17.946 33.4685L17.6738 33.7407C17.4631 33.951 17.1775 34.0691 16.8798 34.0691C16.5821 34.0691 16.2965 33.951 16.0858 33.7407L15.9543 33.6092L14.0954 35.4681L14.2269 35.5995C14.7886 36.1657 15.518 36.5355 16.3068 36.654C17.0955 36.7724 17.9014 36.6331 18.6046 36.2569L19.6694 37.3217L21.5283 35.4628L20.4635 34.398C20.8113 33.7372 20.9532 32.9874 20.871 32.2453C20.7887 31.5031 20.486 30.8026 20.0019 30.234C19.5178 29.6655 18.8745 29.255 18.155 29.0554C17.4354 28.8559 16.6726 28.8765 15.9648 29.1145L13.2449 30.0203C13.0049 30.1003 12.745 30.0969 12.5073 30.0107C12.2695 29.9246 12.0678 29.7606 11.9348 29.5455C11.8018 29.3304 11.7454 29.0767 11.7746 28.8254C11.8039 28.5742 11.9171 28.3403 12.0959 28.1614L12.368 27.8893C12.5787 27.679 12.8643 27.5608 13.162 27.5608C13.4598 27.5608 13.7453 27.679 13.9561 27.8893L14.0875 28.0207L15.9464 26.1619L15.815 26.0304C15.25 25.4695 14.521 25.1034 13.7337 24.9852C12.9464 24.867 12.142 25.0029 11.4373 25.3731L10.3724 24.3083L8.51355 26.1724L9.57839 27.2372C9.20996 27.9416 9.07519 28.745 9.1936 29.531C9.312 30.3171 9.67743 31.0451 10.237 31.6097Z" fill="url(#paint3_linear)"/>
<path d="M1.87467 30.8209C1.8747 33.4209 2.64573 35.9626 4.09026 38.1244C5.53479 40.2863 7.58793 41.9712 9.99007 42.9662C12.3922 43.9612 15.0354 44.2216 17.5855 43.7143C20.1356 43.2071 22.478 41.9551 24.3166 40.1166C25.5461 38.8978 26.5228 37.4482 27.1905 35.8509C27.8583 34.2536 28.204 32.5402 28.2078 30.809C28.2116 29.0777 27.8734 27.3628 27.2126 25.7626C26.5519 24.1625 25.5815 22.7086 24.3574 21.4844C23.1332 20.2602 21.6793 19.2899 20.0791 18.6292C18.479 17.9684 16.764 17.6302 15.0328 17.634C13.3016 17.6378 11.5882 17.9835 9.99089 18.6513C8.39363 19.319 6.94399 20.2957 5.72519 21.5252C4.50059 22.7431 3.52971 24.1917 2.86877 25.7873C2.20782 27.3829 1.86994 29.0938 1.87467 30.8209ZM15.0209 20.3039C17.454 20.304 19.8119 21.1478 21.6927 22.6914C23.5735 24.235 24.8609 26.3831 25.3355 28.7695C25.8101 31.1559 25.4425 33.633 24.2955 35.7789C23.1484 37.9247 21.2928 39.6064 19.0449 40.5374C16.7969 41.4685 14.2956 41.5913 11.9673 40.8849C9.63892 40.1785 7.62752 38.6867 6.27579 36.6636C4.92406 34.6404 4.31564 32.2112 4.5542 29.7898C4.79275 27.3683 5.86353 25.1045 7.58407 23.3841C8.55844 22.4045 9.71743 21.6278 10.994 21.0991C12.2705 20.5704 13.6392 20.3001 15.0209 20.3039Z" fill="url(#paint4_linear)"/>
<path d="M70.9396 24.3135L69.8747 25.3784C69.214 25.0305 68.4642 24.8886 67.722 24.9709C66.9799 25.0531 66.2793 25.3558 65.7108 25.8399C65.1423 26.324 64.7318 26.9673 64.5322 27.6868C64.3327 28.4064 64.3532 29.1692 64.5913 29.877L65.4971 32.597C65.577 32.8369 65.5737 33.0968 65.4875 33.3346C65.4013 33.5723 65.2374 33.774 65.0223 33.907C64.8072 34.04 64.5534 34.0964 64.3022 34.0672C64.051 34.038 63.817 33.9248 63.6382 33.7459L63.3661 33.4738C63.1557 33.2631 63.0376 32.9775 63.0376 32.6798C63.0376 32.382 63.1557 32.0965 63.3661 31.8857L63.4975 31.7543L61.6386 29.8954L61.5072 30.0269C60.9467 30.592 60.5808 31.321 60.4626 32.1082C60.3444 32.8954 60.48 33.6997 60.8499 34.4046L59.785 35.4694L61.6439 37.3283L62.7087 36.2634C63.3695 36.6113 64.1193 36.7532 64.8615 36.6709C65.6036 36.5887 66.3042 36.286 66.8727 35.8019C67.4412 35.3178 67.8517 34.6745 68.0513 33.955C68.2508 33.2354 68.2302 32.4726 67.9922 31.7648L67.0799 29.0448C66.9999 28.8049 67.0032 28.545 67.0894 28.3072C67.1756 28.0695 67.3395 27.8678 67.5546 27.7348C67.7698 27.6018 68.0235 27.5454 68.2747 27.5746C68.5259 27.6038 68.7599 27.717 68.9387 27.8959L69.2109 28.168C69.4212 28.3787 69.5393 28.6643 69.5393 28.962C69.5393 29.2598 69.4212 29.5453 69.2109 29.7561L69.0794 29.8875L70.9383 31.7464L71.0697 31.6149C71.6303 31.0498 71.9962 30.3207 72.1144 29.5336C72.2326 28.7464 72.0969 27.9421 71.7271 27.2372L72.7919 26.1724L70.9396 24.3135Z" fill="url(#paint5_linear)"/>
<path d="M66.2911 17.6746C63.2496 17.6746 60.3023 18.7291 57.9512 20.6586C55.6001 22.588 53.9907 25.273 53.3973 28.256C52.8039 31.239 53.2632 34.3355 54.6969 37.0178C56.1306 39.7001 58.45 41.8024 61.2599 42.9663C64.0698 44.1303 67.1964 44.2839 70.1069 43.4011C73.0174 42.5182 75.5317 40.6535 77.2215 38.1246C78.9113 35.5958 79.6719 32.5592 79.3738 29.5324C79.0758 26.5056 77.7374 23.6758 75.5868 21.5252C74.3689 20.3006 72.9203 19.3297 71.3246 18.6687C69.729 18.0078 68.0182 17.6699 66.2911 17.6746ZM73.7279 38.2577C72.0074 39.9782 69.7436 41.049 67.3222 41.2875C64.9008 41.5261 62.4715 40.9177 60.4484 39.566C58.4253 38.2142 56.9334 36.2028 56.2271 33.8745C55.5207 31.5461 55.6435 29.0448 56.5745 26.7969C57.5056 24.5489 59.1873 22.6933 61.3331 21.5463C63.4789 20.3992 65.9561 20.0317 68.3425 20.5063C70.7289 20.9809 72.8769 22.2683 74.4206 24.1491C75.9642 26.0299 76.808 28.3877 76.8081 30.8209C76.8119 32.2025 76.5416 33.5713 76.0129 34.8478C75.4842 36.1243 74.7075 37.2833 73.7279 38.2577Z" fill="url(#paint6_linear)"/>
<path d="M42.628 7.3483V5.84306H39.9987V7.3483C39.2859 7.57003 38.6557 8.00009 38.1894 8.58309C37.7231 9.16609 37.442 9.87534 37.3823 10.6195C37.3227 11.3636 37.4871 12.1086 37.8545 12.7585C38.222 13.4084 38.7755 13.9333 39.4439 14.2658L42.0061 15.5463C42.2331 15.6589 42.4153 15.845 42.5231 16.0742C42.6309 16.3035 42.658 16.5625 42.6 16.8091C42.5419 17.0558 42.4022 17.2755 42.2034 17.4326C42.0047 17.5898 41.7586 17.6751 41.5053 17.6747H41.1214C40.8237 17.6743 40.5384 17.5559 40.3279 17.3454C40.1175 17.135 39.9991 16.8496 39.9987 16.552V16.36H37.3695V16.552C37.3724 17.3479 37.6289 18.1223 38.1016 18.7626C38.5744 19.403 39.2389 19.8761 39.9987 20.1133V21.6185H42.628V20.1133C43.3408 19.8916 43.971 19.4615 44.4373 18.8785C44.9036 18.2955 45.1846 17.5862 45.2443 16.8421C45.304 16.0979 45.1395 15.353 44.7721 14.7031C44.4047 14.0532 43.8511 13.5282 43.1827 13.1957L40.6205 11.9153C40.3936 11.8027 40.2114 11.6166 40.1036 11.3873C39.9958 11.1581 39.9687 10.8991 40.0267 10.6524C40.0847 10.4058 40.2245 10.1861 40.4232 10.0289C40.622 9.8718 40.868 9.78651 41.1214 9.78693H41.5053C41.8029 9.78727 42.0883 9.90567 42.2987 10.1161C42.5092 10.3266 42.6276 10.612 42.628 10.9096V11.1015H45.2572V10.9096C45.2542 10.1136 44.9978 9.33932 44.525 8.69895C44.0523 8.05859 43.3878 7.5855 42.628 7.3483Z" fill="url(#paint7_linear)"/>
<path d="M54.4595 13.7308C54.4595 11.1307 53.6885 8.58902 52.244 6.42714C50.7995 4.26525 48.7463 2.58027 46.3442 1.58526C43.942 0.590256 41.2987 0.329917 38.7486 0.837167C36.1985 1.34442 33.8561 2.59647 32.0175 4.435C30.179 6.27354 28.927 8.61597 28.4197 11.1661C27.9125 13.7162 28.1728 16.3595 29.1678 18.7616C30.1628 21.1638 31.8478 23.2169 34.0097 24.6615C36.1716 26.106 38.7132 26.877 41.3133 26.877C44.7987 26.8732 48.1403 25.4869 50.6049 23.0223C53.0694 20.5578 54.4557 17.2162 54.4595 13.7308ZM41.3133 24.2478C39.2333 24.2478 37.1999 23.6309 35.4704 22.4753C33.7409 21.3197 32.3929 19.6772 31.5969 17.7555C30.8009 15.8337 30.5926 13.7191 30.9984 11.679C31.4042 9.63893 32.4059 7.76499 33.8767 6.29416C35.3475 4.82333 37.2215 3.82169 39.2616 3.41589C41.3017 3.01009 43.4163 3.21836 45.338 4.01437C47.2597 4.81037 48.9022 6.15836 50.0579 7.88787C51.2135 9.61737 51.8303 11.6507 51.8303 13.7308C51.8272 16.5191 50.7181 19.1923 48.7465 21.1639C46.7748 23.1356 44.1016 24.2446 41.3133 24.2478Z" fill="url(#paint8_linear)"/>
<path d="M41.3133 29.5063H38.6841V45.2817H41.3133V29.5063Z" fill="url(#paint9_linear)"/>
<path d="M43.9426 45.2817H46.5718V40.0232C46.5718 39.3259 46.8488 38.6572 47.3419 38.1641C47.835 37.671 48.5037 37.394 49.2011 37.394V34.7647C47.8064 34.7647 46.4689 35.3188 45.4827 36.3049C44.4966 37.2911 43.9426 38.6286 43.9426 40.0232V45.2817Z" fill="url(#paint10_linear)"/>
<path d="M36.0548 45.2817V37.394C36.0548 35.9993 35.5008 34.6618 34.5147 33.6757C33.5285 32.6895 32.191 32.1355 30.7964 32.1355V34.7647C31.4937 34.7647 32.1624 35.0417 32.6555 35.5348C33.1486 36.0279 33.4256 36.6967 33.4256 37.394V45.2817H36.0548Z" fill="url(#paint11_linear)"/>
<path d="M28.572 0.453125C26.7749 2.16501 25.3458 4.2254 24.3721 6.50835C23.3983 8.79131 22.9004 11.2489 22.9087 13.7308C22.9087 14.2067 22.9266 14.6786 22.9626 15.1467L25.5839 14.9442C25.5532 14.5446 25.5379 14.1401 25.5379 13.7308C25.5303 11.6031 25.9567 9.49611 26.7913 7.53884C27.6258 5.58156 28.8509 3.8151 30.3915 2.34749L28.572 0.453125Z" fill="url(#paint12_linear)"/>
<path d="M5.81855 3.21382H3.1893V5.84306H5.81855V3.21382Z" fill="url(#paint13_linear)"/>
<path d="M15.0209 9.78693H12.3917V12.4162H15.0209V9.78693Z" fill="url(#paint14_linear)"/>
<path d="M4.50392 45.2817H1.87468V47.9109H4.50392V45.2817Z" fill="url(#paint15_linear)"/>
<path d="M79.4374 45.2817H76.8081V47.9109H79.4374V45.2817Z" fill="url(#paint16_linear)"/>
<path d="M61.0327 1.8992H58.4034V4.52844H61.0327V1.8992Z" fill="url(#paint17_linear)"/>
<path d="M74.1789 11.1016H71.5496V13.7308H74.1789V11.1016Z" fill="url(#paint18_linear)"/>
<defs>
<linearGradient id="paint0_linear" x1="0.542664" y1="39.2867" x2="79.3927" y2="39.2867" gradientUnits="userSpaceOnUse">
<stop stop-color="#6A5538"/>
<stop offset="0.213542" stop-color="#BC975E"/>
<stop offset="0.375" stop-color="#D9BE85"/>
<stop offset="0.552083" stop-color="#E7D491"/>
<stop offset="0.6735" stop-color="#C5A76C"/>
<stop offset="0.817708" stop-color="#BC975E"/>
<stop offset="1" stop-color="#6A5538"/>
</linearGradient>
<linearGradient id="paint1_linear" x1="0.542664" y1="39.2867" x2="79.3927" y2="39.2867" gradientUnits="userSpaceOnUse">
<stop stop-color="#6A5538"/>
<stop offset="0.213542" stop-color="#BC975E"/>
<stop offset="0.375" stop-color="#D9BE85"/>
<stop offset="0.552083" stop-color="#E7D491"/>
<stop offset="0.6735" stop-color="#C5A76C"/>
<stop offset="0.817708" stop-color="#BC975E"/>
<stop offset="1" stop-color="#6A5538"/>
</linearGradient>
<linearGradient id="paint2_linear" x1="0.542664" y1="39.2867" x2="79.3927" y2="39.2867" gradientUnits="userSpaceOnUse">
<stop stop-color="#6A5538"/>
<stop offset="0.213542" stop-color="#BC975E"/>
<stop offset="0.375" stop-color="#D9BE85"/>
<stop offset="0.552083" stop-color="#E7D491"/>
<stop offset="0.6735" stop-color="#C5A76C"/>
<stop offset="0.817708" stop-color="#BC975E"/>
<stop offset="1" stop-color="#6A5538"/>
</linearGradient>
<linearGradient id="paint3_linear" x1="0.542664" y1="39.2867" x2="79.3927" y2="39.2867" gradientUnits="userSpaceOnUse">
<stop stop-color="#6A5538"/>
<stop offset="0.213542" stop-color="#BC975E"/>
<stop offset="0.375" stop-color="#D9BE85"/>
<stop offset="0.552083" stop-color="#E7D491"/>
<stop offset="0.6735" stop-color="#C5A76C"/>
<stop offset="0.817708" stop-color="#BC975E"/>
<stop offset="1" stop-color="#6A5538"/>
</linearGradient>
<linearGradient id="paint4_linear" x1="0.542664" y1="39.2867" x2="79.3927" y2="39.2867" gradientUnits="userSpaceOnUse">
<stop stop-color="#6A5538"/>
<stop offset="0.213542" stop-color="#BC975E"/>
<stop offset="0.375" stop-color="#D9BE85"/>
<stop offset="0.552083" stop-color="#E7D491"/>
<stop offset="0.6735" stop-color="#C5A76C"/>
<stop offset="0.817708" stop-color="#BC975E"/>
<stop offset="1" stop-color="#6A5538"/>
</linearGradient>
<linearGradient id="paint5_linear" x1="0.542664" y1="39.2867" x2="79.3927" y2="39.2867" gradientUnits="userSpaceOnUse">
<stop stop-color="#6A5538"/>
<stop offset="0.213542" stop-color="#BC975E"/>
<stop offset="0.375" stop-color="#D9BE85"/>
<stop offset="0.552083" stop-color="#E7D491"/>
<stop offset="0.6735" stop-color="#C5A76C"/>
<stop offset="0.817708" stop-color="#BC975E"/>
<stop offset="1" stop-color="#6A5538"/>
</linearGradient>
<linearGradient id="paint6_linear" x1="0.542664" y1="39.2867" x2="79.3927" y2="39.2867" gradientUnits="userSpaceOnUse">
<stop stop-color="#6A5538"/>
<stop offset="0.213542" stop-color="#BC975E"/>
<stop offset="0.375" stop-color="#D9BE85"/>
<stop offset="0.552083" stop-color="#E7D491"/>
<stop offset="0.6735" stop-color="#C5A76C"/>
<stop offset="0.817708" stop-color="#BC975E"/>
<stop offset="1" stop-color="#6A5538"/>
</linearGradient>
<linearGradient id="paint7_linear" x1="0.542664" y1="39.2867" x2="79.3927" y2="39.2867" gradientUnits="userSpaceOnUse">
<stop stop-color="#6A5538"/>
<stop offset="0.213542" stop-color="#BC975E"/>
<stop offset="0.375" stop-color="#D9BE85"/>
<stop offset="0.552083" stop-color="#E7D491"/>
<stop offset="0.6735" stop-color="#C5A76C"/>
<stop offset="0.817708" stop-color="#BC975E"/>
<stop offset="1" stop-color="#6A5538"/>
</linearGradient>
<linearGradient id="paint8_linear" x1="0.542664" y1="39.2867" x2="79.3927" y2="39.2867" gradientUnits="userSpaceOnUse">
<stop stop-color="#6A5538"/>
<stop offset="0.213542" stop-color="#BC975E"/>
<stop offset="0.375" stop-color="#D9BE85"/>
<stop offset="0.552083" stop-color="#E7D491"/>
<stop offset="0.6735" stop-color="#C5A76C"/>
<stop offset="0.817708" stop-color="#BC975E"/>
<stop offset="1" stop-color="#6A5538"/>
</linearGradient>
<linearGradient id="paint9_linear" x1="0.542664" y1="39.2867" x2="79.3927" y2="39.2867" gradientUnits="userSpaceOnUse">
<stop stop-color="#6A5538"/>
<stop offset="0.213542" stop-color="#BC975E"/>
<stop offset="0.375" stop-color="#D9BE85"/>
<stop offset="0.552083" stop-color="#E7D491"/>
<stop offset="0.6735" stop-color="#C5A76C"/>
<stop offset="0.817708" stop-color="#BC975E"/>
<stop offset="1" stop-color="#6A5538"/>
</linearGradient>
<linearGradient id="paint10_linear" x1="0.542664" y1="39.2867" x2="79.3927" y2="39.2867" gradientUnits="userSpaceOnUse">
<stop stop-color="#6A5538"/>
<stop offset="0.213542" stop-color="#BC975E"/>
<stop offset="0.375" stop-color="#D9BE85"/>
<stop offset="0.552083" stop-color="#E7D491"/>
<stop offset="0.6735" stop-color="#C5A76C"/>
<stop offset="0.817708" stop-color="#BC975E"/>
<stop offset="1" stop-color="#6A5538"/>
</linearGradient>
<linearGradient id="paint11_linear" x1="0.542664" y1="39.2867" x2="79.3927" y2="39.2867" gradientUnits="userSpaceOnUse">
<stop stop-color="#6A5538"/>
<stop offset="0.213542" stop-color="#BC975E"/>
<stop offset="0.375" stop-color="#D9BE85"/>
<stop offset="0.552083" stop-color="#E7D491"/>
<stop offset="0.6735" stop-color="#C5A76C"/>
<stop offset="0.817708" stop-color="#BC975E"/>
<stop offset="1" stop-color="#6A5538"/>
</linearGradient>
<linearGradient id="paint12_linear" x1="0.542664" y1="39.2867" x2="79.3927" y2="39.2867" gradientUnits="userSpaceOnUse">
<stop stop-color="#6A5538"/>
<stop offset="0.213542" stop-color="#BC975E"/>
<stop offset="0.375" stop-color="#D9BE85"/>
<stop offset="0.552083" stop-color="#E7D491"/>
<stop offset="0.6735" stop-color="#C5A76C"/>
<stop offset="0.817708" stop-color="#BC975E"/>
<stop offset="1" stop-color="#6A5538"/>
</linearGradient>
<linearGradient id="paint13_linear" x1="0.542664" y1="39.2867" x2="79.3927" y2="39.2867" gradientUnits="userSpaceOnUse">
<stop stop-color="#6A5538"/>
<stop offset="0.213542" stop-color="#BC975E"/>
<stop offset="0.375" stop-color="#D9BE85"/>
<stop offset="0.552083" stop-color="#E7D491"/>
<stop offset="0.6735" stop-color="#C5A76C"/>
<stop offset="0.817708" stop-color="#BC975E"/>
<stop offset="1" stop-color="#6A5538"/>
</linearGradient>
<linearGradient id="paint14_linear" x1="0.542664" y1="39.2867" x2="79.3927" y2="39.2867" gradientUnits="userSpaceOnUse">
<stop stop-color="#6A5538"/>
<stop offset="0.213542" stop-color="#BC975E"/>
<stop offset="0.375" stop-color="#D9BE85"/>
<stop offset="0.552083" stop-color="#E7D491"/>
<stop offset="0.6735" stop-color="#C5A76C"/>
<stop offset="0.817708" stop-color="#BC975E"/>
<stop offset="1" stop-color="#6A5538"/>
</linearGradient>
<linearGradient id="paint15_linear" x1="0.542664" y1="39.2867" x2="79.3927" y2="39.2867" gradientUnits="userSpaceOnUse">
<stop stop-color="#6A5538"/>
<stop offset="0.213542" stop-color="#BC975E"/>
<stop offset="0.375" stop-color="#D9BE85"/>
<stop offset="0.552083" stop-color="#E7D491"/>
<stop offset="0.6735" stop-color="#C5A76C"/>
<stop offset="0.817708" stop-color="#BC975E"/>
<stop offset="1" stop-color="#6A5538"/>
</linearGradient>
<linearGradient id="paint16_linear" x1="0.542664" y1="39.2867" x2="79.3927" y2="39.2867" gradientUnits="userSpaceOnUse">
<stop stop-color="#6A5538"/>
<stop offset="0.213542" stop-color="#BC975E"/>
<stop offset="0.375" stop-color="#D9BE85"/>
<stop offset="0.552083" stop-color="#E7D491"/>
<stop offset="0.6735" stop-color="#C5A76C"/>
<stop offset="0.817708" stop-color="#BC975E"/>
<stop offset="1" stop-color="#6A5538"/>
</linearGradient>
<linearGradient id="paint17_linear" x1="0.542664" y1="39.2867" x2="79.3927" y2="39.2867" gradientUnits="userSpaceOnUse">
<stop stop-color="#6A5538"/>
<stop offset="0.213542" stop-color="#BC975E"/>
<stop offset="0.375" stop-color="#D9BE85"/>
<stop offset="0.552083" stop-color="#E7D491"/>
<stop offset="0.6735" stop-color="#C5A76C"/>
<stop offset="0.817708" stop-color="#BC975E"/>
<stop offset="1" stop-color="#6A5538"/>
</linearGradient>
<linearGradient id="paint18_linear" x1="0.542664" y1="39.2867" x2="79.3927" y2="39.2867" gradientUnits="userSpaceOnUse">
<stop stop-color="#6A5538"/>
<stop offset="0.213542" stop-color="#BC975E"/>
<stop offset="0.375" stop-color="#D9BE85"/>
<stop offset="0.552083" stop-color="#E7D491"/>
<stop offset="0.6735" stop-color="#C5A76C"/>
<stop offset="0.817708" stop-color="#BC975E"/>
<stop offset="1" stop-color="#6A5538"/>
</linearGradient>
</defs>
</svg>
