<svg width="74" height="85" viewBox="0 0 74 85" fill="none" xmlns="http://www.w3.org/2000/svg">
<path d="M32.9993 14.7484C32.3715 14.4859 31.6494 14.7818 31.3862 15.4096L28.2935 22.7967L25.2008 15.4096C24.9383 14.7812 24.2161 14.4859 23.5884 14.7484C22.9606 15.0116 22.6647 15.7331 22.9272 16.3616L27.1567 26.4639C27.3486 26.9222 27.7973 27.2207 28.2935 27.2207C28.7904 27.2207 29.2384 26.9222 29.4303 26.4639L33.6605 16.3616C33.923 15.7331 33.6271 15.0116 32.9993 14.7484Z" fill="url(#paint0_linear)"/>
<path d="M42.5085 27.2207C43.1895 27.2207 43.7409 26.6686 43.7409 25.9882V22.1695H47.4069C49.4789 22.1695 51.1652 20.4832 51.1652 18.4112C51.1652 16.3391 49.4789 14.6528 47.4069 14.6528H42.5085C41.8281 14.6528 41.276 15.2049 41.276 15.8853V25.9882C41.276 26.6686 41.8281 27.2207 42.5085 27.2207ZM43.7409 17.1177H47.4069C48.12 17.1177 48.7003 17.698 48.7003 18.4112C48.7003 19.1243 48.12 19.704 47.4069 19.704H43.7409V17.1177Z" fill="url(#paint1_linear)"/>
<path d="M38.3021 25.9882V15.8853C38.3021 15.2049 37.7501 14.6528 37.0697 14.6528C36.3892 14.6528 35.8372 15.2049 35.8372 15.8853V25.9882C35.8372 26.6686 36.3892 27.2207 37.0697 27.2207C37.7501 27.2207 38.3021 26.6686 38.3021 25.9882Z" fill="url(#paint2_linear)"/>
<path d="M34.461 32.0131L32.7522 37.2722C32.715 37.3865 32.6084 37.4641 32.4884 37.4641H26.9584C24.2938 37.4641 23.2032 40.8688 25.3466 42.4254L29.82 45.676C29.9176 45.7473 29.958 45.8718 29.9208 45.9867L28.212 51.2459C27.3923 53.7705 30.2822 55.8753 32.4332 54.3122L36.9066 51.0623C37.0042 50.991 37.1358 50.991 37.2334 51.0623L41.7068 54.3122C43.8533 55.8721 46.7483 53.7717 45.9273 51.2459L44.2192 45.9867C44.182 45.8718 44.2224 45.7473 44.32 45.676L48.7934 42.4254C50.9413 40.8656 49.8404 37.4641 47.181 37.4641H41.6516C41.5309 37.4641 41.425 37.3865 41.3878 37.2722L39.679 32.0131C38.8574 29.4885 35.2826 29.484 34.461 32.0131ZM37.0697 32.5831C37.2712 32.5831 37.3187 32.7275 37.3341 32.775L39.0423 38.0335C39.4107 39.1671 40.4589 39.9291 41.651 39.9291H47.1803C47.2304 39.9291 47.3825 39.9291 47.4448 40.121C47.5071 40.3129 47.3845 40.4021 47.344 40.4317L42.8706 43.6816C41.9058 44.3826 41.5052 45.6144 41.8743 46.7487L43.5825 52.0078C43.5979 52.0553 43.6447 52.1997 43.4817 52.3178C43.3186 52.4366 43.1954 52.3474 43.1549 52.3178L38.6815 49.0679C37.7174 48.3669 36.4214 48.3669 35.4572 49.0679L30.9838 52.3178C30.9433 52.3474 30.8201 52.4366 30.657 52.3178C30.494 52.1991 30.5409 52.0547 30.5563 52.0072L32.265 46.748C32.6335 45.6144 32.2329 44.382 31.2688 43.6816L26.7947 40.4317C26.7543 40.4021 26.6317 40.3129 26.6939 40.121C26.7562 39.9291 26.9083 39.9291 26.9584 39.9291H32.4878C33.6798 39.9291 34.728 39.1671 35.0965 38.0335L36.8052 32.775C36.8206 32.7275 36.8675 32.5831 37.0697 32.5831Z" fill="url(#paint3_linear)"/>
<path d="M0.866211 38.999V83.248C0.866211 83.9291 1.41761 84.4805 2.09867 84.4805H18.8986C19.5797 84.4805 20.1311 83.9291 20.1311 83.248C20.1311 82.567 19.5797 82.0156 18.8986 82.0156H6.02392L36.9984 60.4392L67.9723 82.0156H24.6501C23.9697 82.0156 23.4176 82.567 23.4176 83.248C23.4176 83.9291 23.9697 84.4805 24.6501 84.4805H71.8981C72.5786 84.4805 73.1306 83.9291 73.1306 83.248V38.999C73.1306 38.5958 72.9329 38.2184 72.6023 37.988L64.0303 32.0163V24.2955C64.0303 23.6151 63.4783 23.063 62.7979 23.063C62.1168 23.063 61.5654 23.6151 61.5654 24.2955V44.6946L59.1005 46.4117V12.2058C59.1005 11.5248 58.5485 10.9734 57.868 10.9734C55.405 10.9734 53.4017 8.97001 53.4017 6.50702C53.4017 5.82595 52.8503 5.27456 52.1692 5.27456H21.8276C21.1466 5.27456 20.5952 5.82595 20.5952 6.50702C20.5952 8.96936 18.5911 10.9734 16.1288 10.9734C15.4477 10.9734 14.8963 11.5248 14.8963 12.2058V24.6652C14.8963 25.3463 15.4477 25.8977 16.1288 25.8977C16.8092 25.8977 17.3612 25.3463 17.3612 24.6652V13.3285C20.1972 12.8169 22.4387 10.5754 22.9503 7.73947H51.0465C51.5575 10.5754 53.7996 12.8169 56.6356 13.3285V48.1288L40.1373 59.6214L37.7026 57.9255C37.2796 57.6309 36.7173 57.6309 36.2942 57.9255L33.8595 59.6214L17.3612 48.1288V30.4167C17.3612 29.7356 16.8092 29.1842 16.1288 29.1842C15.4477 29.1842 14.8963 29.7356 14.8963 30.4167V46.4117L12.4314 44.6946V4.40028C12.4314 3.52344 13.1446 2.80964 14.0221 2.80964H59.9748C60.8516 2.80964 61.5654 3.52344 61.5654 4.40028V18.3797C61.5654 19.0608 62.1168 19.6121 62.7979 19.6121C63.4789 19.6121 64.0303 19.0608 64.0303 18.3797V4.40028C64.0303 2.16389 62.2112 0.344727 59.9748 0.344727H14.0221C11.7857 0.344727 9.9665 2.16389 9.9665 4.40028V32.0163L1.3945 37.988C1.06328 38.2184 0.866211 38.5958 0.866211 38.999ZM9.9665 35.0204V42.9775C8.75843 42.1366 5.46097 39.8392 4.25483 38.999L9.9665 35.0204ZM31.7027 61.1235L3.33113 80.8878V41.3599L31.7027 61.1235ZM70.6657 80.8878L42.2935 61.1235L70.6657 41.3599V80.8878ZM64.0303 35.0204L69.7413 38.999C68.5359 39.8392 65.2377 42.1366 64.0303 42.9775V35.0204Z" fill="url(#paint4_linear)"/>
<defs>
<linearGradient id="paint0_linear" x1="0.850275" y1="42.398" x2="73.0897" y2="42.398" gradientUnits="userSpaceOnUse">
<stop stop-color="#6A5538"/>
<stop offset="0.213542" stop-color="#BC975E"/>
<stop offset="0.375" stop-color="#D9BE85"/>
<stop offset="0.552083" stop-color="#E7D491"/>
<stop offset="0.6735" stop-color="#C5A76C"/>
<stop offset="0.817708" stop-color="#BC975E"/>
<stop offset="1" stop-color="#6A5538"/>
</linearGradient>
<linearGradient id="paint1_linear" x1="0.850275" y1="42.398" x2="73.0897" y2="42.398" gradientUnits="userSpaceOnUse">
<stop stop-color="#6A5538"/>
<stop offset="0.213542" stop-color="#BC975E"/>
<stop offset="0.375" stop-color="#D9BE85"/>
<stop offset="0.552083" stop-color="#E7D491"/>
<stop offset="0.6735" stop-color="#C5A76C"/>
<stop offset="0.817708" stop-color="#BC975E"/>
<stop offset="1" stop-color="#6A5538"/>
</linearGradient>
<linearGradient id="paint2_linear" x1="0.850275" y1="42.398" x2="73.0897" y2="42.398" gradientUnits="userSpaceOnUse">
<stop stop-color="#6A5538"/>
<stop offset="0.213542" stop-color="#BC975E"/>
<stop offset="0.375" stop-color="#D9BE85"/>
<stop offset="0.552083" stop-color="#E7D491"/>
<stop offset="0.6735" stop-color="#C5A76C"/>
<stop offset="0.817708" stop-color="#BC975E"/>
<stop offset="1" stop-color="#6A5538"/>
</linearGradient>
<linearGradient id="paint3_linear" x1="0.850275" y1="42.398" x2="73.0897" y2="42.398" gradientUnits="userSpaceOnUse">
<stop stop-color="#6A5538"/>
<stop offset="0.213542" stop-color="#BC975E"/>
<stop offset="0.375" stop-color="#D9BE85"/>
<stop offset="0.552083" stop-color="#E7D491"/>
<stop offset="0.6735" stop-color="#C5A76C"/>
<stop offset="0.817708" stop-color="#BC975E"/>
<stop offset="1" stop-color="#6A5538"/>
</linearGradient>
<linearGradient id="paint4_linear" x1="0.850275" y1="42.398" x2="73.0897" y2="42.398" gradientUnits="userSpaceOnUse">
<stop stop-color="#6A5538"/>
<stop offset="0.213542" stop-color="#BC975E"/>
<stop offset="0.375" stop-color="#D9BE85"/>
<stop offset="0.552083" stop-color="#E7D491"/>
<stop offset="0.6735" stop-color="#C5A76C"/>
<stop offset="0.817708" stop-color="#BC975E"/>
<stop offset="1" stop-color="#6A5538"/>
</linearGradient>
</defs>
</svg>
