<svg width="159" height="46" viewBox="0 0 159 46" fill="none" xmlns="http://www.w3.org/2000/svg">
<path d="M55.1383 39.8414C54.6231 39.6497 53.9469 39.458 53.1097 39.2344C52.3369 39.0427 51.6929 38.8511 51.2421 38.6913C50.7913 38.5316 50.3727 38.2441 50.0829 37.9246C49.7609 37.5732 49.5999 37.126 49.5999 36.583C49.5999 35.8482 49.8897 35.2732 50.4693 34.794C51.0489 34.3148 51.9183 34.0912 53.0453 34.0912C53.5927 34.0912 54.1401 34.1871 54.7197 34.3468C55.2993 34.5065 55.7823 34.7621 56.2653 35.1135L56.5229 34.6662C56.0721 34.3468 55.5569 34.0593 54.9451 33.8995C54.3333 33.7398 53.6893 33.612 53.0453 33.612C52.1437 33.612 51.4031 33.7398 50.8235 34.0273C50.2117 34.3148 49.7931 34.6662 49.5033 35.1135C49.2135 35.5607 49.0525 36.0718 49.0525 36.6149C49.0525 37.3177 49.2457 37.8608 49.5999 38.276C49.9541 38.6913 50.4049 38.9788 50.9201 39.2025C51.4353 39.3941 52.1115 39.6177 52.9487 39.8094C53.7537 40.0011 54.3655 40.1928 54.8163 40.3525C55.2671 40.5122 55.6535 40.7678 55.9755 41.1192C56.2975 41.4706 56.4585 41.9178 56.4585 42.4609C56.4585 43.1956 56.1687 43.7706 55.5569 44.2179C54.9451 44.6651 54.0757 44.9207 52.9165 44.9207C52.1115 44.9207 51.3709 44.7929 50.6947 44.5054C49.9863 44.2179 49.4389 43.8665 49.0525 43.4192L48.7627 43.8026C49.1813 44.2817 49.7609 44.6651 50.5337 44.9526C51.3065 45.2401 52.1115 45.3998 52.9487 45.3998C53.8503 45.3998 54.6231 45.2721 55.2349 45.0165C55.8467 44.7609 56.2975 44.3776 56.5873 43.9304C56.8771 43.4831 57.0381 42.972 57.0381 42.4289C57.0381 41.7581 56.8771 41.215 56.5229 40.7997C56.0721 40.3205 55.6535 40.033 55.1383 39.8414ZM37.2673 39.6177H43.6429V39.1066H37.2673V34.1551H44.3835V33.612H36.6877V45.2401H44.6089V44.729H37.2673V39.6177ZM1.2355 45.2721H1.8151V33.612H1.2355V45.2721ZM16.8847 44.2179L8.5449 33.612H8.0941V45.2401H8.6737V34.6343L17.0135 45.2401H17.4965V33.612H16.9169V44.2179H16.8847ZM59.7751 34.1551H64.0899V45.2721H64.6373V34.1551H68.9521V33.612H59.7751V34.1551ZM27.1565 44.5373L22.2299 33.612H21.5859L26.8345 45.2401H27.4141L32.6627 33.612H32.0509L27.1565 44.5373ZM117.993 34.1551H122.308V45.2721H122.855V34.1551H127.17V33.612H117.993V34.1551ZM113.195 44.2179L104.855 33.612H104.372V45.2401H104.952V34.6343L113.292 45.2401H113.774V33.612H113.195V44.2179ZM84.4081 33.612L79.0307 42.9081L73.6533 33.612H73.1703V45.2401H73.7177V34.794L78.8697 43.6428H79.1595L84.3115 34.7621L84.3437 45.2401H84.8911L84.8589 33.612H84.4081ZM91.7497 39.6177H98.1253V39.1066H91.7497V34.1551H98.8981V33.612H91.2023V45.2401H99.1235V44.729H91.7819V39.6177H91.7497ZM56.5229 21.3451H54.0113V3.0724H54.1401L56.3297 7.25723L61.7715 17.5755L67.6319 6.7461L69.5961 3.0724H69.6927V21.377H67.2133V22.527H74.2329V21.377H71.7213V1.89043H74.2329V0.740399H69.4995L62.2545 14.0616H62.1901L55.1061 0.740399H50.1151V1.89043H52.6267V21.3451H50.1151V22.4951H56.5229V21.3451ZM142.594 0.740399V1.89043H145.105V21.3451H142.594V22.4951H150.289V21.3451H147.134V12.2087H154.153V14.7644H155.635V8.4392H154.153V10.9948H147.134V1.95432H156.6V5.7558H158.339V0.740399H142.594ZM93.7461 17.288H92.0073V21.2812H82.1541V11.7934H89.1737V14.3491H90.6549V8.02391H89.1737V10.5795H82.1541V1.95432H91.7497V5.7558H93.4885V0.740399H77.6139V1.89043H80.1255V21.3451H77.6139V22.4951H93.7461V17.288ZM106.272 0.740399H97.2881V1.89043H99.7997V21.3451H97.2881V22.4951H106.272C109.299 22.4951 111.649 21.6006 113.388 19.7798C115.127 17.9589 115.964 15.2435 115.964 11.6018C115.964 7.96002 115.095 5.24468 113.388 3.4238C111.649 1.63487 109.299 0.740399 106.272 0.740399ZM113.678 13.1671C113.678 14.381 113.517 15.4991 113.163 16.4894C112.841 17.4797 112.325 18.3422 111.714 19.045C111.07 19.7478 110.265 20.3228 109.331 20.7062C108.365 21.0895 107.302 21.2812 106.079 21.2812H101.828V1.95432H106.079C107.302 1.95432 108.365 2.14599 109.331 2.52933C110.297 2.91267 111.07 3.45574 111.714 4.19048C112.358 4.89328 112.841 5.7558 113.163 6.7461C113.485 7.7364 113.678 8.85449 113.678 10.0365V13.1671ZM38.6519 0.740399H36.3657L28.9275 21.3451H27.1887V22.4951H33.4355V21.3451H30.4087L32.5339 15.3394H41.7109L43.8683 21.3451H40.8415V22.4951H47.7967V21.3451H46.0901L38.6519 0.740399ZM32.9525 14.1574L37.0741 2.46544H37.2351L41.3567 14.1574H32.9525ZM17.8507 21.3451V22.4951H24.8703V21.3451H22.3587V1.89043H24.8703V0.740399H20.1691L12.8919 14.0616H12.7953L5.7435 0.740399H0.752502V1.89043H3.2641V21.3451H0.752502V22.4951H7.1603V21.3451H4.6487V3.0724H4.7775L6.9671 7.25723L12.4089 17.5755L18.2693 6.7461L20.2335 3.0724H20.3301V21.377H17.8507V21.3451ZM136.475 3.29602C135.638 2.33766 134.608 1.60292 133.417 1.0918C132.225 0.580673 130.905 0.357056 129.424 0.357056C127.942 0.357056 126.59 0.612618 125.431 1.0918C124.239 1.60292 123.241 2.33766 122.404 3.29602C121.567 4.25437 120.923 5.43635 120.472 6.84194C120.021 8.24753 119.796 9.81284 119.796 11.6018C119.796 13.3907 120.021 14.988 120.472 16.3616C120.923 17.7672 121.567 18.9172 122.404 19.9075C123.241 20.8659 124.239 21.6006 125.431 22.1118C126.622 22.6229 127.942 22.8465 129.424 22.8465C130.905 22.8465 132.225 22.5909 133.417 22.1118C134.608 21.6006 135.638 20.8659 136.475 19.9075C137.313 18.9492 137.957 17.7672 138.408 16.3616C138.858 14.956 139.084 13.3907 139.084 11.6018C139.084 9.81284 138.858 8.21558 138.408 6.84194C137.924 5.43635 137.313 4.28632 136.475 3.29602ZM136.765 13.0074C136.765 14.3171 136.604 15.4991 136.282 16.5533C135.96 17.6075 135.477 18.5019 134.865 19.2367C134.221 19.9714 133.481 20.5464 132.547 20.9617C131.646 21.377 130.583 21.5687 129.424 21.5687C128.264 21.5687 127.202 21.377 126.3 20.9617C125.399 20.5464 124.626 19.9714 123.982 19.2367C123.338 18.5019 122.887 17.6075 122.565 16.5533C122.243 15.4991 122.082 14.3171 122.082 13.0074V10.1962C122.082 8.88643 122.243 7.70446 122.565 6.65027C122.887 5.59607 123.37 4.70161 123.982 3.96687C124.626 3.23213 125.367 2.65711 126.3 2.24182C127.202 1.82654 128.264 1.63486 129.424 1.63486C130.583 1.63486 131.646 1.82654 132.547 2.24182C133.449 2.65711 134.221 3.23213 134.865 3.96687C135.509 4.70161 135.96 5.59607 136.282 6.65027C136.604 7.70446 136.765 8.88643 136.765 10.1962V13.0074Z" fill="url(#paint0_radial)"/>
<defs>
<radialGradient id="paint0_radial" cx="0" cy="0" r="1" gradientUnits="userSpaceOnUse" gradientTransform="translate(82.9347 21.8325) scale(72.9867 72.4092)">
<stop offset="0.1622" stop-color="#F9E7B8"/>
<stop offset="0.8837" stop-color="#BF9142"/>
</radialGradient>
</defs>
</svg>
