<svg width="212" height="77" viewBox="0 0 212 77" fill="none" xmlns="http://www.w3.org/2000/svg">
<path d="M91.2096 71.0052H97.5381V70.4796H91.2096V65.5019H98.2754V64.9763H90.6566V76.6939H98.5211V76.1684H91.2096V71.0052ZM113.574 65.471H117.844V76.6939H118.397V65.5019H122.668V64.9763H113.574V65.471ZM108.935 71.2216C108.413 71.0361 107.737 70.8197 106.908 70.6033C106.14 70.4178 105.525 70.2322 105.065 70.0467C104.604 69.8612 104.204 69.6139 103.897 69.2738C103.59 68.9337 103.436 68.47 103.436 67.9135C103.436 67.2024 103.713 66.584 104.297 66.1203C104.88 65.6565 105.74 65.4092 106.877 65.4092C107.43 65.4092 107.983 65.5019 108.536 65.6565C109.089 65.842 109.611 66.0893 110.072 66.4294L110.318 65.9657C109.888 65.6256 109.366 65.3783 108.751 65.1927C108.137 65.0072 107.522 64.9145 106.877 64.9145C105.986 64.9145 105.249 65.0382 104.665 65.3164C104.082 65.5947 103.621 65.9657 103.344 66.3985C103.068 66.8623 102.914 67.3569 102.914 67.9135C102.914 68.5936 103.098 69.1501 103.436 69.583C103.805 69.9849 104.235 70.2941 104.727 70.5105C105.249 70.696 105.925 70.9124 106.754 71.1288C107.553 71.3144 108.167 71.4999 108.628 71.6854C109.089 71.8709 109.458 72.1182 109.765 72.4583C110.072 72.7984 110.226 73.2621 110.226 73.8186C110.226 74.5297 109.918 75.1481 109.335 75.6118C108.751 76.0756 107.86 76.292 106.693 76.292C105.894 76.292 105.157 76.1374 104.481 75.8592C103.774 75.5809 103.252 75.2099 102.853 74.7771L102.546 75.179C102.945 75.6737 103.529 76.0447 104.297 76.3539C105.065 76.663 105.863 76.8176 106.693 76.8176C107.584 76.8176 108.352 76.6939 108.966 76.4157C109.581 76.1374 110.041 75.7973 110.318 75.3336C110.625 74.8698 110.748 74.3752 110.748 73.8186C110.748 73.1385 110.564 72.582 110.226 72.18C109.888 71.7781 109.458 71.4071 108.935 71.2216ZM138.028 64.9763L132.682 74.3442L127.337 64.9763H126.876V76.6939H127.429V66.1512L132.56 75.0553H132.867L137.966 66.1203L137.997 76.6939H138.55L138.519 64.9763H138.028ZM171.36 65.471H175.63V76.6939H176.183V65.5019H180.453V64.9763H171.36V65.471ZM145.309 71.0052H151.637V70.4796H145.309V65.5019H152.374V64.9763H144.756V76.6939H152.62V76.1684H145.309V71.0052ZM166.598 75.6428L158.334 64.9763H157.873V76.6939H158.426V66.0275L166.69 76.6939H167.151V64.9763H166.598V75.6428ZM55.42 76.6939H55.973V64.9763H55.42V76.6939ZM70.9647 75.6428L62.7008 64.9763H62.24V76.6939H62.793V66.0275L71.0569 76.6939H71.5177V64.9763H70.9647V75.6428ZM81.164 75.9519L76.2794 64.9763H75.6342L80.8568 76.6939H81.4097L86.6322 64.9763H86.0485L81.164 75.9519ZM189.7 34.9248C188.871 33.9664 187.857 33.2243 186.689 32.6987C185.522 32.1731 184.17 31.9567 182.726 31.9567C181.252 31.9567 179.931 32.2041 178.763 32.6987C177.596 33.1934 176.582 33.9354 175.753 34.9248C174.923 35.8832 174.278 37.089 173.848 38.4803C173.387 39.8715 173.172 41.4792 173.172 43.2724C173.172 45.0656 173.387 46.6733 173.848 48.0646C174.309 49.4559 174.923 50.6616 175.753 51.6201C176.582 52.5785 177.596 53.3205 178.763 53.8461C179.931 54.3717 181.252 54.5881 182.726 54.5881C184.17 54.5881 185.491 54.3408 186.689 53.8461C187.888 53.3514 188.871 52.6094 189.7 51.6201C190.529 50.6616 191.175 49.4559 191.605 48.0646C192.066 46.6733 192.281 45.0656 192.281 43.2724C192.281 41.4792 192.066 39.8715 191.605 38.4803C191.175 37.089 190.529 35.8832 189.7 34.9248ZM190.007 44.6946C190.007 46.0241 189.854 47.1989 189.516 48.281C189.208 49.3631 188.717 50.2597 188.103 51.0017C187.488 51.7437 186.72 52.3312 185.798 52.7331C184.908 53.135 183.863 53.3514 182.696 53.3514C181.528 53.3514 180.484 53.135 179.593 52.7331C178.702 52.3312 177.934 51.7437 177.289 51.0017C176.674 50.2597 176.183 49.3631 175.876 48.281C175.538 47.1989 175.384 46.0241 175.384 44.6946V41.8812C175.384 40.5517 175.538 39.3769 175.876 38.2948C176.183 37.2127 176.674 36.3161 177.289 35.574C177.903 34.832 178.671 34.2446 179.593 33.8427C180.515 33.4408 181.528 33.2243 182.696 33.2243C183.863 33.2243 184.908 33.4408 185.798 33.8427C186.689 34.2446 187.457 34.832 188.103 35.574C188.717 36.3161 189.208 37.2127 189.516 38.2948C189.823 39.3769 190.007 40.5517 190.007 41.8812V44.6946ZM110.349 53.0732H107.829V34.6774H107.952L110.134 38.8822L115.54 49.2704L121.377 38.3566L123.343 34.6465H123.436V53.0732H120.978V54.248H127.951V53.0732H125.463V33.5026H127.951V32.3277H123.251L116.063 45.7458H115.97L108.966 32.3277H104.02V33.5026H106.508V53.0732H104.02V54.248H110.379V53.0732H110.349ZM195.783 32.3277V33.5026H198.271V53.0732H195.783V54.248H203.432V53.0732H200.299V43.8908H207.242V46.4569H208.716V40.088H207.242V42.6541H200.299V33.5644H209.699V37.3982H211.42V32.3587H195.783V32.3277ZM147.275 48.9921H145.554V53.0114H135.785V43.4579H142.728V46.0241H144.203V39.6551H142.728V42.2212H135.785V33.5335H145.309V37.3672H147.029V32.3277H131.269V33.5026H133.758V53.0732H131.269V54.248H147.306V48.9921H147.275ZM71.9478 53.0732V54.248H78.9213V53.0732H76.433V33.5026H78.9213V32.3277H74.2211L67.0324 45.7458H66.9403L59.9053 32.3277H54.9592V33.5026H57.4476V53.0732H54.9592V54.248H61.3184V53.0732H58.83V34.6774H58.9529L61.1341 38.8822L66.5409 49.2704L72.3778 38.3566L74.344 34.6465H74.4361V53.0732H71.9478ZM159.717 32.3277H150.808V33.5026H153.296V53.0732H150.808V54.248H159.717C162.697 54.248 165.062 53.3514 166.782 51.5273C168.503 49.7032 169.363 46.9516 169.363 43.3033C169.363 39.6551 168.503 36.9035 166.782 35.0794C165.093 33.2243 162.727 32.3277 159.717 32.3277ZM167.09 44.8492C167.09 46.0859 166.936 47.1989 166.598 48.1883C166.26 49.1776 165.769 50.0433 165.154 50.7544C164.509 51.4655 163.741 52.022 162.789 52.4239C161.836 52.8259 160.761 53.0114 159.563 53.0114H155.354V33.5644H159.563C160.761 33.5644 161.836 33.7499 162.789 34.1519C163.741 34.5538 164.509 35.0794 165.154 35.8214C165.799 36.5325 166.26 37.3982 166.598 38.4184C166.936 39.4078 167.09 40.5208 167.09 41.7575V44.8492ZM92.592 32.3277H90.3187L82.915 53.0732H81.1947V54.248H87.4002V53.0732H84.4203L86.5401 47.0134H95.6334L97.7838 53.0732H94.8039V54.248H101.685V53.0732H99.965L92.592 32.3277ZM86.9087 45.8386L91.0253 34.0591H91.1789L95.2647 45.8386H86.9087ZM68.1077 18.4768C68.1077 18.5077 68.1077 18.5077 68.1077 18.4768V18.4768ZM58.1542 22.4961C59.0758 22.6506 59.9667 22.8052 60.919 22.898C61.1648 22.9289 61.4106 22.9289 61.6563 22.9289C61.7792 22.9289 61.9021 22.9289 62.025 22.9289C62.1479 22.9289 62.24 22.9289 62.3322 22.9289C62.7316 22.9598 63.1616 23.1144 63.4996 23.3617C63.6532 23.4854 63.8068 23.64 63.8375 23.7637C63.8682 23.8255 63.8068 24.1038 63.7761 24.3202C63.6839 24.7839 63.561 25.2477 63.4689 25.7115C63.2538 26.639 63.008 27.5356 62.793 28.4631L62.4858 29.6689L63.346 28.8032C63.8068 28.3085 64.2676 27.7829 64.667 27.2573C65.097 26.7317 65.4964 26.1752 65.8343 25.5569C66.0187 25.2477 66.1415 24.9385 66.2644 24.5675C66.3259 24.382 66.3566 24.1965 66.3566 24.011V23.7327C66.3566 23.6709 66.3259 23.6091 66.3259 23.5472C66.3873 23.5472 66.418 23.5163 66.4795 23.5163L66.7252 23.4545L66.8481 23.4236L66.9096 23.3927C66.9403 23.3927 67.0017 23.3617 67.0324 23.3308C67.1553 23.2381 67.2168 23.1453 67.2475 23.0526C67.3089 22.9598 67.3397 22.898 67.3704 22.8052C67.4318 22.6506 67.4933 22.4961 67.524 22.3415C67.7083 21.7231 67.8312 21.0739 67.9541 20.4246C68.0155 20.1154 68.0462 19.7753 68.077 19.4662C68.1077 19.157 68.1384 18.8478 68.1384 18.5077C68.1384 18.3532 68.1384 18.1986 68.1691 18.0131C68.292 17.7348 68.3842 17.4256 68.4763 17.1165C68.5685 16.8073 68.6299 16.4672 68.6914 16.158L68.7835 15.6634L68.8142 15.416C68.8142 15.3233 68.845 15.2305 68.845 15.1378C68.845 14.9523 68.8142 14.7668 68.7221 14.5812C68.6299 14.4267 68.5378 14.2412 68.4149 14.1175C68.1691 13.8702 67.8926 13.6537 67.5854 13.4991C67.2782 13.3446 67.0017 13.19 66.6945 13.0663L65.7729 12.7262C65.1585 12.5098 64.5748 12.2625 63.9911 11.9842C62.8237 11.4895 61.6256 10.933 60.5197 10.3147C59.9667 10.0055 59.4137 9.69633 58.8608 9.32532C58.5843 9.13982 58.3385 8.95432 58.0927 8.76881C57.847 8.58331 57.6319 8.36689 57.4169 8.11955C56.9868 7.65579 56.6489 7.1302 56.3109 6.60461C55.973 6.0481 55.6658 5.49159 55.205 4.96599C54.99 4.71866 54.6828 4.4404 54.3141 4.31673C54.1298 4.2549 53.9147 4.22398 53.7304 4.22398L53.2696 4.19306C53.1774 4.19306 53.116 4.19306 53.0238 4.19306L52.7781 4.16215L52.3173 4.10031C52.0101 4.03848 51.7028 3.97664 51.3956 3.91481C50.1361 3.63655 48.9073 3.29646 47.6784 2.92546C46.4496 2.55445 45.2208 2.18344 43.992 1.78152C43.3775 1.59602 42.7631 1.41051 42.118 1.22501C41.9644 1.19409 41.8108 1.13226 41.6265 1.10134C41.4729 1.07042 41.3193 1.00859 41.1349 0.977673L40.8892 0.915838L40.7663 0.884921H40.6434C40.4591 0.854004 40.2748 0.854004 40.1212 0.854004C39.4453 0.854004 38.8002 0.915839 38.155 0.977673C37.5099 1.03951 36.8648 1.13226 36.2196 1.22501C35.5745 1.34868 34.9294 1.47235 34.2842 1.62693C33.6391 1.81244 32.994 1.99794 32.3796 2.33803C32.2874 2.36895 32.226 2.43078 32.1338 2.4617L31.9187 2.61629C31.7959 2.73995 31.6423 2.83271 31.5194 2.98729C31.2736 3.23463 31.0586 3.48197 30.8435 3.76022C30.4442 4.28582 30.0755 4.84233 29.7376 5.39884C29.3997 5.95535 29.0617 6.54277 28.7545 7.09928C28.6009 7.37754 28.4473 7.68671 28.2937 7.96496L28.0479 8.36689L27.8022 8.76881C27.4643 9.2944 27.0956 9.82 26.6962 10.3147C26.5119 10.562 26.2969 10.7784 26.0818 10.9949C25.9897 11.0876 25.8668 11.1804 25.7746 11.2422C25.7439 11.2731 25.6825 11.304 25.6517 11.304C24.3 10.4074 22.9483 9.38716 21.8117 8.2123C21.228 7.59396 20.675 6.9447 20.2449 6.20268C20.2142 6.17177 20.2142 6.14085 20.2142 6.10993C20.3063 6.07901 20.3985 6.0481 20.4907 6.01718C22.7333 5.24425 25.0373 4.68774 27.3721 4.31673C27.3721 4.31673 27.5564 4.28582 27.6179 4.22398C27.6793 4.16215 27.6793 3.97664 27.6793 3.97664C27.6793 3.69839 27.5871 3.38922 27.4643 3.1728C27.3107 2.92546 27.157 2.73995 26.942 2.58537C26.5734 2.2762 26.1433 2.05978 25.7439 1.87427C24.9144 1.53418 24.0235 1.31776 23.1326 1.19409C22.7026 1.13226 22.2417 1.10134 21.7502 1.16318C21.2894 1.22501 20.8286 1.34868 20.3985 1.5651C19.9684 1.78152 19.569 2.09069 19.2926 2.49262C19.139 2.70904 19.0468 2.92546 18.9854 3.1728C18.9546 3.29646 18.9239 3.42013 18.9239 3.5438V3.72931C18.9239 3.79114 18.9239 3.85297 18.9239 3.91481C18.9546 4.56407 19.139 5.18242 19.3847 5.76984C18.586 6.07901 17.7565 6.4191 16.9885 6.79011C15.9133 7.28479 14.8381 7.8413 13.7628 8.39781C11.6738 9.54174 9.64628 10.8403 7.71087 12.2934C6.75853 13.0045 5.80619 13.7465 4.9153 14.5503C4.0244 15.3233 1.78179 17.4875 0.952332 18.3532L2.45764 17.1474C3.2871 16.3126 4.178 15.5088 5.09962 14.7668C6.02124 13.9938 6.97358 13.2827 7.92592 12.6025C9.86132 11.2113 11.8889 9.97458 13.9779 8.86156C15.0224 8.30505 16.0976 7.81038 17.2036 7.34662C18.0023 7.00653 18.8318 6.66644 19.6612 6.38819C19.6919 6.45002 19.7227 6.51186 19.7534 6.57369C20.2142 7.34662 20.7672 8.05772 21.3508 8.70698C21.9345 9.35624 22.5797 9.97458 23.2555 10.562C23.9314 11.1494 24.6072 11.675 25.3752 12.1697L25.4674 12.2315H25.5903C25.8975 12.2315 26.1125 12.1079 26.2661 11.9842C26.4505 11.8605 26.5734 11.7678 26.6962 11.6441C26.942 11.3968 27.1878 11.1494 27.3721 10.8712C27.8022 10.3456 28.1708 9.78908 28.5088 9.23257L28.7545 8.79973L28.8774 8.58331L28.9388 8.49056L29.0003 8.36689C29.1539 8.05772 29.2768 7.77946 29.4304 7.50121C29.7376 6.9447 30.0448 6.38819 30.3827 5.83168C30.7206 5.27517 31.0586 4.74957 31.4272 4.2549C31.6115 4.00756 31.8266 3.76022 32.0109 3.5438C32.1031 3.42013 32.226 3.3583 32.3181 3.23463L32.5024 3.11096C32.5639 3.08004 32.6253 3.01821 32.6868 2.98729C33.209 2.70904 33.7927 2.52353 34.4071 2.33803C35.0215 2.18344 35.6359 2.05978 36.2504 1.93611C37.5099 1.71969 38.7695 1.5651 40.029 1.53418C40.1826 1.53418 40.3362 1.53418 40.4591 1.5651H40.5513L40.6741 1.59602L40.8892 1.62693C41.0428 1.65785 41.1964 1.68877 41.35 1.71969C41.5036 1.7506 41.6572 1.78152 41.8108 1.84335C42.4252 1.99794 43.0396 2.18344 43.654 2.36895C46.1117 3.11096 48.6001 3.91481 51.1499 4.4404C51.4878 4.50224 51.795 4.56407 52.1329 4.59499L52.6245 4.65682L52.8702 4.68774C52.9624 4.68774 53.0238 4.68774 53.116 4.68774L53.6075 4.71866C53.7611 4.71866 53.8533 4.74957 53.9762 4.78049C54.2219 4.87324 54.437 5.05875 54.6213 5.27517C55.0207 5.73892 55.3279 6.29543 55.6965 6.85194C56.0652 7.40845 56.4338 7.96496 56.8946 8.42872C57.1097 8.67606 57.3554 8.89248 57.6319 9.1089C57.9084 9.32532 58.1849 9.51083 58.4614 9.66541C59.0144 10.0364 59.5981 10.3456 60.151 10.6548C61.3184 11.2731 62.4858 11.7987 63.6839 12.2934C64.2983 12.5407 64.882 12.7881 65.4964 13.0045L66.418 13.3446C66.7252 13.4682 67.0017 13.5919 67.2782 13.7465C67.5547 13.9011 67.8005 14.0557 68.0155 14.2721C68.2306 14.4885 68.3534 14.7358 68.3534 15.0141C68.3534 15.0759 68.3534 15.1378 68.3534 15.2305L68.3227 15.4778L68.2306 15.9416C68.1998 16.1889 68.1384 16.4363 68.077 16.6836C68.077 16.6218 68.077 16.529 68.077 16.4672C68.0462 16.158 68.0462 15.8489 67.9541 15.5088C67.9233 15.3542 67.8619 15.1687 67.7697 15.0141C67.6469 14.8595 67.524 14.7358 67.4011 14.6431C67.1553 14.4267 66.8788 14.2721 66.6024 14.1175C66.3259 13.9629 66.0494 13.8392 65.7422 13.7156C65.1585 13.4991 64.5441 13.19 63.8989 13.1591L63.2231 13.1281L63.8375 13.3755C64.4212 13.6228 64.9742 14.0866 65.4043 14.5503C65.8343 15.0141 66.0801 15.6015 66.203 16.2199C66.2337 16.3744 66.2644 16.529 66.2644 16.6836C66.2952 16.8691 66.3259 17.0237 66.3873 17.2092C66.5102 17.5184 66.7252 17.8276 67.0017 18.044C67.1246 18.1367 67.2782 18.2604 67.4625 18.2913C67.4625 18.2913 67.4625 18.2913 67.4625 18.3222V18.3532C67.4318 18.9406 67.3397 19.5898 67.2475 20.2082C67.1246 20.8265 67.0017 21.4449 66.8481 22.0323C66.8174 22.1869 66.756 22.3106 66.6945 22.4651C66.6638 22.527 66.6331 22.5888 66.6024 22.6506C66.5716 22.6816 66.5716 22.7125 66.5409 22.7434H66.5102L66.3873 22.7743L66.1723 22.8361C66.1108 22.8671 66.0801 22.8671 66.0187 22.8671C65.9879 22.8361 65.9879 22.8052 65.9572 22.7743C65.8958 22.6816 65.8651 22.6197 65.7729 22.527C65.7422 22.4961 65.7115 22.4651 65.6807 22.4342L65.5579 22.3415C65.2506 22.0941 64.9127 21.9705 64.6055 21.8777C63.9604 21.6613 63.2845 21.5376 62.6394 21.383C62.3015 21.3212 61.9635 21.2594 61.6256 21.1975C61.2877 21.1666 60.9498 21.1357 60.6118 21.1048C60.4275 21.1048 60.2125 21.1048 59.936 21.1048C59.7517 21.1048 59.5981 21.1048 59.4445 21.1048C59.1065 21.1048 58.7993 21.1357 58.4921 21.1975C58.3999 21.1975 58.2771 21.2285 58.1849 21.2285C56.7103 21.383 55.0207 21.7231 54.0376 22.2796L56.7103 21.9396C57.3247 21.8159 57.9391 21.7231 58.5536 21.6613C58.8608 21.6304 59.168 21.5995 59.4752 21.5995C59.6288 21.5995 59.7824 21.5995 59.936 21.5995C60.0896 21.5995 60.2125 21.6304 60.3661 21.6613C60.9498 21.754 61.5642 21.9705 62.1479 22.1869C62.24 22.2178 62.3322 22.2487 62.4244 22.3106C62.3629 22.3106 62.3015 22.2796 62.24 22.2796C62.1171 22.2796 61.9635 22.2796 61.8407 22.2796C61.7178 22.2796 61.6256 22.3106 61.5027 22.3106C61.2877 22.3106 61.0419 22.3106 60.8269 22.2796C59.9053 22.2178 58.9836 22.0632 58.0313 21.9396H57.9699L57.9391 21.9705C57.3247 22.2487 56.7718 22.527 56.2188 22.8361L54.5291 23.7018L53.669 24.1347C53.3925 24.2893 53.0853 24.4129 52.8088 24.5366C52.2251 24.8149 51.6721 25.0931 51.0884 25.3714C50.5047 25.6496 49.9518 25.9279 49.3988 26.237C48.8458 26.5153 48.2929 26.7936 47.7092 27.0718C47.1562 27.3191 46.5725 27.5356 45.9888 27.7211C45.4358 27.8757 44.8521 27.9993 44.2992 28.0302C44.207 28.0302 44.1148 28.0302 43.992 27.9993L44.6371 28.8341C44.8829 28.9578 44.8829 28.9578 45.1286 29.1123C45.3744 29.2669 45.5894 29.5143 45.7123 29.7925C45.8659 30.1017 45.9274 30.4418 45.9888 30.7819C46.0195 30.9674 46.0195 31.1529 46.0502 31.3384C46.0502 31.5239 46.081 31.7094 46.081 31.9258C46.1731 32.7297 46.3267 33.5026 46.5111 34.2446C46.6954 35.0175 46.9411 35.7595 47.2484 36.5016C47.5556 37.2436 47.9242 37.9547 48.4772 38.573L48.6922 38.7894L48.8151 38.9131C48.8458 38.944 48.9073 38.9749 48.938 39.0059L49.0609 39.0986L49.2145 39.1914C49.3066 39.2532 49.4295 39.2841 49.5217 39.3459C49.7367 39.4078 49.921 39.4696 50.1975 39.5005C50.4126 39.4696 50.6583 39.4078 50.8427 39.3459C51.3342 39.1295 51.5492 38.9131 51.8872 38.7276C52.2251 38.5421 52.563 38.3257 52.8702 38.1711C52.901 38.1711 52.901 38.1402 52.9317 38.1402C52.901 38.202 52.8702 38.2329 52.8395 38.2948C52.6245 38.6039 52.3787 38.8822 52.1329 39.1914C51.6414 39.7788 51.0884 40.3044 50.5355 40.83C50.259 41.0773 49.9825 41.3246 49.6753 41.5411C49.5831 41.3865 49.4602 41.2319 49.3681 41.0773C48.9994 40.5517 48.6615 40.057 48.2929 39.5624C47.5863 38.573 46.849 37.5527 46.2653 36.5016C46.1117 36.2542 45.9888 35.976 45.8659 35.6977C45.8352 35.6359 45.8352 35.574 45.8045 35.5122C45.8045 35.4504 45.7738 35.3885 45.7738 35.3267V35.234V35.1103L45.743 34.8939C45.6816 34.2755 45.6202 33.6572 45.5587 33.0388C45.4666 32.4205 45.3437 31.8021 45.1593 31.1838C44.975 30.5964 44.7293 29.978 44.2992 29.4834L43.3775 28.4013L44.0227 29.6998C44.1763 29.978 44.207 30.349 44.2377 30.72C44.2684 31.091 44.2377 31.493 44.2377 31.864C44.207 32.6369 44.1763 33.4098 44.1763 34.1828C44.1763 34.5847 44.1763 34.9557 44.207 35.3576C44.2377 35.7595 44.2992 36.1306 44.3913 36.5325C44.6064 37.3054 44.9136 38.0165 45.313 38.6967C45.528 39.0368 45.743 39.3459 46.0502 39.6242C46.2038 39.7788 46.3267 39.9025 46.5111 40.0261C46.6647 40.1498 46.849 40.2425 47.0026 40.3662C47.3098 40.5826 47.5863 40.83 47.832 41.1082L48.2007 41.5411C48.3236 41.6957 48.4772 41.8502 48.6615 41.943C48.7537 42.0048 48.8458 42.0357 48.9687 42.0667C48.9994 42.0667 48.9994 42.0667 49.0302 42.0667C49.0609 42.1285 49.1223 42.2212 49.153 42.2831C49.2145 42.4067 49.3066 42.5613 49.3681 42.685C48.3236 43.2415 47.3098 43.8289 46.296 44.3855C45.313 44.942 44.3299 45.4985 43.3775 46.0859L43.3468 45.2202L43.3161 44.4782C43.3161 44.2927 43.2547 44.1072 43.1625 43.9835C43.1318 43.9217 43.0703 43.8599 43.0396 43.798C43.0089 43.7362 42.9475 43.6744 42.9167 43.6434C42.5788 43.2724 42.2102 42.9633 41.9337 42.5923C41.7801 42.4067 41.6879 42.1903 41.5957 41.9739C41.7801 41.6957 41.9337 41.3865 42.0566 41.1082C42.333 40.5517 42.5481 39.9952 42.7324 39.4078C42.9167 38.8204 43.0703 38.2329 43.1318 37.6146C43.1932 36.9962 43.1932 36.3779 43.0703 35.7905L42.9782 35.3576L42.9475 35.7905C42.9167 36.2542 42.7324 36.718 42.5788 37.1508C42.3945 37.6146 42.2102 38.0474 42.0258 38.4803C41.8415 38.9131 41.6572 39.3769 41.4729 39.8406C41.3193 40.3044 41.1349 40.7681 41.1042 41.2937C41.0735 41.572 41.1042 41.8812 41.1964 42.1594C41.1349 42.2522 41.0428 42.3758 40.9506 42.4686C40.8892 42.5304 40.8585 42.5923 40.797 42.6232C40.7663 42.6541 40.7356 42.6541 40.7356 42.685L40.7049 42.7159C40.7049 42.7159 40.7048 42.7159 40.6741 42.7159C40.6741 42.7159 40.6434 42.685 40.6434 42.6541C40.6127 42.5923 40.6127 42.5304 40.6127 42.4686C40.6127 42.1903 40.6434 41.8812 40.6741 41.572C40.7356 40.9846 40.797 40.3662 40.8277 39.7479C40.8277 39.4387 40.8277 39.1604 40.8892 38.8513C40.9506 38.573 41.0121 38.2638 41.0735 37.9856C41.2271 37.3982 41.3807 36.8107 41.565 36.2542C41.7186 35.6668 41.903 35.0794 42.0258 34.4919C42.1487 33.9045 42.2716 33.2862 42.2409 32.6678C42.2409 32.3587 42.2102 32.0495 42.1487 31.7403C42.118 31.5857 42.0566 31.4311 42.0258 31.2766C41.9644 31.122 41.903 30.9983 41.8722 30.8746C41.8415 30.751 41.8108 30.5964 41.8108 30.4727C41.8108 30.3181 41.8108 30.1944 41.8108 30.0399C41.8415 29.7616 41.9337 29.4834 42.0873 29.236C42.333 28.7104 42.7017 28.2467 43.1011 27.7829C43.5004 27.3501 43.9305 26.9172 44.3913 26.5462C45.313 25.7733 46.296 25.124 47.3405 24.5366C48.385 23.9492 49.4602 23.4236 50.5355 22.8361C51.6107 22.2796 52.6859 21.6922 53.6382 20.9193C54.1298 20.5174 54.5599 20.0845 54.8671 19.528C55.0207 19.2498 55.1436 18.9406 55.205 18.6314L55.2664 18.3841L55.2972 18.1367C55.2972 17.9821 55.2972 17.8276 55.3279 17.673C55.3279 17.0855 55.3893 16.4981 55.5429 15.9107C55.6044 15.7252 55.6351 15.5397 55.7272 15.3542C57.079 16.1271 58.3999 16.9928 59.6902 17.8585C61.1648 18.8787 62.6394 19.9299 64.114 20.9502L64.3905 21.1357L64.1754 20.8884C63.5917 20.1773 62.9466 19.4662 62.2707 18.8478C61.5949 18.2295 60.8269 17.6421 60.0589 17.1474C58.7379 16.2817 57.2633 15.6634 55.758 15.2305C55.8501 14.9832 55.973 14.7358 56.1266 14.5194C58.0006 14.6431 59.8131 15.2614 61.3799 16.2508C62.2093 16.7764 62.9773 17.4256 63.6225 18.1367C64.2676 18.8787 64.8513 19.6826 65.2199 20.5792L65.6193 21.5067L65.5886 20.5174C65.5886 19.8681 65.4964 19.2498 65.3121 18.6623C65.1585 18.0749 64.9127 17.4875 64.667 16.931C64.3905 16.3744 64.0833 15.8489 63.7453 15.3233C63.4074 14.8286 63.008 14.3339 62.5472 13.9011C62.0864 13.4682 61.5949 13.0972 61.0112 12.819C60.7347 12.6953 60.4275 12.5716 60.0896 12.5098C59.7824 12.448 59.4445 12.417 59.1372 12.448C59.0758 12.448 59.0144 12.448 58.9836 12.448C58.7379 12.2934 58.5228 12.1697 58.2771 12.0151C57.7548 11.7059 57.2018 11.3968 56.6796 11.1185C56.1266 10.8403 55.6044 10.562 55.0514 10.2838L53.3925 9.47991C52.8395 9.20165 52.2865 8.95432 51.7028 8.70698C51.4264 8.58331 51.1192 8.49056 50.8119 8.36689C50.6583 8.30505 50.5047 8.27414 50.3511 8.24322C50.259 8.24322 50.1975 8.2123 50.0746 8.2123H49.921C49.8596 8.2123 49.8289 8.2123 49.7674 8.24322C49.491 8.05772 49.2452 7.87221 48.9073 7.71763C48.5386 7.56304 48.1392 7.40845 47.6784 7.40845C47.2483 7.40845 46.8797 7.47029 46.5111 7.56304C46.1424 7.65579 45.8045 7.77946 45.4358 7.90313C44.76 8.18139 44.0841 8.52147 43.4697 9.01615C43.1625 9.26349 42.886 9.57266 42.6403 9.91275C42.3945 10.2838 42.2409 10.7166 42.2102 11.2113V11.7369L42.1794 12.2315L42.118 13.2518C42.0258 14.6431 41.903 16.0344 41.8722 17.4256C41.8722 17.7657 41.8415 18.1367 41.8415 18.4768V19.0024C41.8415 19.0952 41.8415 19.157 41.8415 19.2498V19.4662C41.8108 20.0536 41.6265 20.641 41.35 21.1975C41.0735 21.754 40.7049 22.3415 40.3362 22.898C39.9676 23.4545 39.5682 24.0419 39.1688 24.6293C38.4008 25.8042 35.851 29.8544 35.4209 31.5857L37.8786 28.7723C38.5237 28.1539 38.3086 28.4631 38.6773 27.7211C38.8616 27.3501 39.0767 27.0409 39.3224 26.7317C39.5682 26.4225 39.8447 26.1443 40.1212 25.866C40.4284 25.6187 40.7356 25.3404 41.0735 25.124L41.35 24.9385C41.4422 24.8767 41.5343 24.8149 41.6265 24.753C41.8108 24.5984 41.9951 24.4748 42.1487 24.3202C42.4866 24.011 42.7939 23.7018 43.1011 23.3308C43.6848 22.6506 44.1456 21.8468 44.5449 21.0739L44.8214 20.4864C44.9136 20.3009 45.0057 20.1463 45.1286 19.9608C45.3437 19.6208 45.5894 19.2807 45.8659 18.9715C46.3882 18.3532 47.0333 17.7966 47.7092 17.3329C48.385 16.8691 49.153 16.529 49.921 16.3126C50.5662 16.1271 51.242 16.0344 51.9486 16.0034C51.8872 16.1889 51.8257 16.3744 51.7336 16.56C51.58 16.8691 51.3649 17.1783 51.1192 17.4566C50.6583 18.044 50.1361 18.5696 49.5831 19.0952C48.4772 20.1463 47.2791 21.1048 46.081 22.0632C44.8829 23.0217 43.6848 23.9801 42.5174 25.0004C41.35 26.0515 40.3362 27.2882 39.476 28.6177C38.6158 29.9162 37.8786 31.3075 37.2641 32.7606C36.9569 33.4717 36.6497 34.2137 36.4347 34.9557C36.3732 35.1412 36.3118 35.3267 36.2504 35.5122C36.1889 35.6977 36.1275 35.8832 36.0968 36.0996C36.066 36.2542 36.0353 36.3779 36.0046 36.5325C35.6667 36.2542 35.3287 35.976 35.0523 35.6359C34.745 35.2958 34.4993 34.8939 34.315 34.4919C34.1306 34.09 33.977 33.6881 33.9463 33.3171C33.9463 33.2243 33.9463 33.1007 33.9463 32.977C33.9463 32.8533 33.9463 32.7297 33.9463 32.6369C33.9463 32.5132 33.9463 32.4205 33.977 32.2968L34.0078 31.9258C34.0385 31.6476 34.0385 31.4002 34.0385 31.1529V30.7819V30.5964V30.5036V30.4418C34.0692 29.6379 34.4993 28.7723 34.8987 27.8138C35.083 27.3501 35.298 26.8554 35.4516 26.3607C35.6052 25.866 35.7281 25.3404 35.7896 24.8148C35.8203 24.5366 35.851 24.2893 35.851 24.011C35.851 23.7327 35.8817 23.4854 35.8817 23.2381C35.8817 22.8671 35.8817 22.527 35.8817 22.156L35.9739 22.0632C36.5576 21.4449 37.1105 20.7647 37.5714 20.0227C38.0322 19.2807 38.4315 18.4768 38.6466 17.6111C38.7695 17.1783 38.8309 16.7455 38.8616 16.2817C38.8923 15.8489 38.8923 15.3851 38.8923 14.9832V12.5098V11.2731V11.1185V11.0567V10.9949V10.9021V10.8403V10.7784L38.9538 10.5311L39.0459 10.2528C39.2917 9.54174 39.6911 8.83065 40.1212 8.18139C40.5513 7.53212 41.0428 6.91378 41.6265 6.38819C43.0703 4.87324 45.5587 4.56407 45.5587 4.56407C43.439 4.00756 42.1487 4.47132 41.6572 4.68774C41.1657 4.90416 40.7356 5.1515 40.2748 5.42975C39.4146 5.98626 38.5851 6.60461 37.8478 7.3157C37.1105 8.0268 36.404 8.79973 35.851 9.69633C35.2673 10.562 34.8065 11.5514 34.5914 12.6335C34.53 12.9117 34.4993 13.19 34.4686 13.4682C34.4686 13.5919 34.4686 13.7465 34.4378 13.8702V14.2412V15.7561C34.4378 16.7455 34.4686 17.7657 34.4686 18.7551C34.4993 19.7444 34.53 20.7647 34.53 21.754V21.8777C34.4378 22.0014 34.315 22.0941 34.2228 22.2178L33.7927 22.6816L33.3933 23.1762C32.8711 23.8255 32.3796 24.5057 31.888 25.1859C31.0893 26.3607 30.352 27.5974 29.6761 28.8959C29.9833 27.8138 30.3213 26.7626 30.6285 25.6805C30.7514 25.3095 30.8435 24.9076 30.9357 24.5057C30.9971 24.3202 31.0278 24.1038 31.0586 23.8873C31.12 23.7018 31.12 23.4236 31.1507 23.2072C31.1507 22.3724 31.12 21.5995 31.0586 20.7956L30.7821 16.0962C30.7514 15.3233 30.7206 14.5194 30.7206 13.7774C30.7206 13.2827 30.7821 12.7881 30.8742 12.2934C31.1815 12.077 31.5194 11.8915 31.7959 11.6441C32.1952 11.3659 32.5332 11.0258 32.9018 10.7166C33.2397 10.3765 33.6084 10.0364 33.9156 9.66541C34.5607 8.9234 35.1137 8.11955 35.5745 7.25387C35.6974 7.03745 35.8203 6.82103 35.9124 6.60461L36.066 6.26452L36.2196 5.92443C36.3118 5.70801 36.404 5.46067 36.4961 5.24425C36.5268 5.12058 36.5883 4.99691 36.619 4.87324C36.6497 4.74957 36.6805 4.62591 36.7112 4.50224C36.7112 4.50224 36.7419 4.16215 36.4654 3.94573C36.1582 3.72931 35.7896 3.85297 35.7896 3.85297C35.083 4.28582 34.4378 4.71866 33.7927 5.21333C33.1476 5.70801 32.5332 6.2336 31.9495 6.85194C31.888 6.91378 31.7959 7.00653 31.7344 7.09928C31.673 7.19203 31.5808 7.25387 31.5194 7.37754L31.3351 7.65579V8.05772C31.12 8.39781 30.9357 8.76881 30.7821 9.13982C30.4442 9.88183 30.137 10.6548 29.9219 11.4586C29.8605 11.7059 29.799 11.9533 29.7683 12.1697L29.7069 12.2315C29.4918 12.3861 29.2768 12.5407 29.0924 12.6953C27.5871 13.9011 26.3276 15.3851 25.2831 16.931C24.7608 17.7039 24.2693 18.5387 23.8085 19.3734C23.3784 20.2082 22.3032 22.5888 21.9653 23.4854L22.7947 22.0323C23.1941 21.1975 23.6856 20.3937 24.1771 19.5898C24.6687 18.8169 25.1909 18.044 25.7746 17.302C26.8806 15.8489 28.1708 14.5194 29.584 13.4682C29.584 13.6228 29.5533 13.8083 29.5533 13.9629C29.5533 14.7977 29.584 15.5706 29.6147 16.3744C29.7069 17.9512 29.8297 19.528 29.9219 21.0739C29.9526 21.8468 30.0141 22.6506 30.0141 23.3927C30.0141 23.6709 29.9526 24.0419 29.8605 24.4129C29.7683 24.7839 29.6761 25.1549 29.584 25.5259C29.1539 27.01 28.6931 28.5558 28.2937 30.0708C27.495 33.1316 26.4505 37.2745 27.0342 43.4579L28.0787 39.5005C28.0787 39.2532 28.0787 39.0368 28.1094 38.7894C28.1708 37.4291 28.4166 36.0687 28.7545 34.7393C29.1846 33.1934 29.7683 31.6785 30.4749 30.1944C31.1815 28.7413 32.0109 27.3191 32.9325 25.9897C33.3933 25.3095 33.8849 24.6603 34.3764 24.0419L34.6529 23.7018C34.6529 23.8255 34.6529 23.9801 34.6529 24.1038C34.6529 24.3511 34.6222 24.5675 34.5914 24.7839C34.53 25.2477 34.4378 25.7115 34.2842 26.1443C34.1306 26.608 33.977 27.0409 33.7927 27.4737C33.6084 27.9375 33.3933 28.4012 33.209 28.8959C33.0247 29.3906 32.8711 29.9471 32.8711 30.5345V30.6582V30.751V30.9365V31.3075C32.8711 31.5548 32.8711 31.8021 32.8404 32.0186L32.8096 32.3896C32.8096 32.5132 32.7789 32.6678 32.7789 32.7915C32.7789 32.9152 32.7789 33.0698 32.7789 33.1934C32.7789 33.3171 32.7789 33.4408 32.7789 33.5953C32.8096 34.2137 33.0247 34.7702 33.2705 35.2649C33.5162 35.7595 33.8541 36.1924 34.1921 36.5943C34.5607 36.9962 34.9601 37.3672 35.3902 37.6764L35.7281 37.8928L35.9739 38.0165C36.0046 38.0783 36.0046 38.1711 36.0353 38.2329C36.0968 38.4184 36.1889 38.6348 36.2811 38.7894C36.4654 39.1604 36.6497 39.5005 36.8341 39.8406C37.2334 40.5208 37.6328 41.1701 38.0629 41.8193L39.3531 43.7362C39.7525 44.3236 40.1519 44.911 40.4591 45.5294C40.6434 45.8695 40.8585 46.2714 41.1349 46.4878L40.8277 45.5912C40.797 45.4676 40.7356 45.313 40.6741 45.1893C40.6434 45.0965 40.6127 45.0038 40.582 44.8801C40.5205 44.6328 40.4591 44.4164 40.4284 44.169C40.3362 43.6744 40.244 43.2106 40.1826 42.7159C40.1212 42.2212 40.029 41.7266 39.9983 41.2628C39.9676 41.0155 39.9676 40.7991 39.9368 40.4899C39.8754 40.2116 39.814 39.9025 39.6604 39.6551C39.3839 39.1295 38.9538 38.7276 38.5544 38.4184C38.1243 38.0783 37.6942 37.831 37.2641 37.5837L36.7419 37.2745C36.7419 37.2127 36.7726 37.1508 36.7726 37.089C36.8033 36.9035 36.8341 36.718 36.8955 36.5634C36.9262 36.3779 36.9877 36.1924 37.0491 36.0378C37.1105 35.8523 37.172 35.6668 37.2334 35.5122C37.4792 34.8011 37.7557 34.09 38.0629 33.4098C38.6773 32.0186 39.3839 30.6582 40.2133 29.3906C41.0428 28.123 41.9951 26.9481 43.0703 25.9279C44.1763 24.9076 45.4051 23.9492 46.5725 22.9598C47.7706 21.9705 48.9687 21.012 50.0746 19.9299C50.6276 19.4043 51.1806 18.8169 51.6721 18.1986C51.9179 17.8894 52.1637 17.5493 52.348 17.1783C52.5323 16.8073 52.7166 16.4054 52.7166 15.9107V15.5397H52.348C51.4571 15.5397 50.5662 15.6634 49.706 15.8798C48.8458 16.1271 48.0164 16.4981 47.2791 16.9619C46.5111 17.4566 45.8352 18.044 45.2515 18.6932C44.9443 19.0333 44.6678 19.3734 44.4221 19.7444C44.2992 19.9299 44.1763 20.1463 44.0841 20.3319L43.7769 20.8884C43.3775 21.6304 42.9167 22.3106 42.3638 22.9289C42.118 23.2072 41.8415 23.4854 41.5343 23.7327C41.8722 23.2072 42.2409 22.6816 42.5481 22.0632C42.6403 21.9086 42.7017 21.7231 42.7939 21.5376C42.8553 21.3521 42.9167 21.1666 42.9782 20.9811C43.0396 20.7956 43.0703 20.6101 43.1318 20.3937C43.1625 20.2082 43.1932 19.9918 43.1932 19.8063V19.4971C43.1932 19.4043 43.1932 19.3116 43.1932 19.2188V18.6932C43.1932 18.3532 43.2239 18.0131 43.2239 17.673C43.2854 16.3126 43.3775 14.9213 43.439 13.5301C43.4697 13.19 43.4697 12.819 43.4697 12.4789V11.9533V11.4277C43.4697 11.2113 43.5312 10.9949 43.6848 10.7784C43.8384 10.562 44.0227 10.3456 44.2377 10.1601C44.6985 9.75816 45.2515 9.44899 45.8352 9.20165C46.1424 9.07798 46.4189 8.98523 46.7261 8.89248C47.0333 8.79973 47.3405 8.76881 47.617 8.7379C47.832 8.7379 48.1085 8.79973 48.3543 8.9234C48.6308 9.04707 48.8765 9.20165 49.153 9.38716C49.6753 9.75816 50.1975 10.191 50.7198 10.6548C50.9656 10.8712 51.242 11.1185 51.5185 11.3349C51.58 11.3968 51.6721 11.4586 51.7336 11.5204C51.8257 11.5823 51.9179 11.6441 52.0101 11.7059C52.1944 11.7987 52.3787 11.8915 52.5937 11.9533C52.9931 12.077 53.3925 12.1079 53.7611 12.1079C53.9455 12.1079 54.1298 12.077 54.3448 12.077C54.5291 12.046 54.7135 12.0151 54.9285 11.9533L56.2188 11.6132C56.2188 11.6132 51.6107 9.38716 51.1806 9.13982C51.1192 9.1089 51.027 9.04707 50.9655 9.01615C51.795 9.32532 52.8702 9.75816 53.2082 9.88183C54.3448 10.3147 55.4508 10.8712 56.4953 11.4895C57.1404 11.8605 57.7855 12.2625 58.3999 12.6953C58.0006 12.7571 57.6012 12.8499 57.2326 13.0354C57.1097 13.0972 56.9868 13.1591 56.8639 13.2209C55.8501 13.0045 54.8363 12.8499 53.8226 12.7262C52.3173 12.5407 50.7812 12.417 49.2759 12.3552C48.5079 12.3243 47.7399 12.3243 47.0026 12.2934C46.2346 12.2934 44.975 12.2315 44.0841 12.3552L44.7293 12.417C45.1901 12.417 45.6202 12.448 46.081 12.448C47.4327 12.5407 48.7537 12.7571 50.0439 13.0972C51.242 13.4373 52.3787 13.8702 53.4846 14.3957C53.2389 14.3957 52.9931 14.3957 52.7473 14.4267C51.7643 14.4576 50.7505 14.5194 49.7674 14.5812C48.7844 14.6431 47.7706 14.7358 46.7875 14.8904C46.3882 14.9523 45.9581 15.0141 45.5587 15.0759C44.8829 15.1378 44.1763 15.2614 43.439 15.5706L43.8384 15.5088C44.76 15.3233 45.6509 15.1378 46.5725 15.0141C46.7875 14.9832 47.0333 14.9523 47.2484 14.9213C47.5248 14.8904 47.8013 14.8595 48.1085 14.8286C48.5079 14.7977 48.938 14.7668 49.3374 14.7358C51.1806 14.674 53.0546 14.7977 54.8364 15.1996C54.9592 15.2305 55.0821 15.2614 55.205 15.2923C55.1436 15.5088 55.0514 15.7252 55.0207 15.9416C54.8671 16.56 54.8363 17.1783 54.8056 17.7966C54.8056 17.9512 54.8056 18.1058 54.8056 18.2295L54.7749 18.4459L54.7442 18.6623C54.6827 18.9406 54.5906 19.1879 54.437 19.4353C54.1605 19.9299 53.7611 20.3628 53.3003 20.7338C52.3787 21.4758 51.3342 22.0632 50.2897 22.6197C49.2452 23.1762 48.17 23.7327 47.0947 24.3202C46.0502 24.9076 45.0365 25.5878 44.0841 26.3916C43.6233 26.7936 43.1932 27.1955 42.7631 27.6592C42.3638 28.123 41.9951 28.6177 41.7186 29.1742C41.565 29.4524 41.4729 29.7616 41.4421 30.0708C41.4114 30.2254 41.4421 30.38 41.4421 30.5655C41.4421 30.72 41.4729 30.8746 41.5343 31.0292C41.565 31.1838 41.6572 31.3384 41.6879 31.4621C41.7494 31.5857 41.7801 31.7403 41.8108 31.864C41.8722 32.1422 41.903 32.4514 41.903 32.7297C41.9337 33.3171 41.8415 33.9045 41.7186 34.4919C41.5958 35.0794 41.4422 35.6668 41.2578 36.2233C41.1042 36.8107 40.9199 37.3982 40.797 37.9856C40.7356 38.2948 40.6741 38.573 40.6127 38.8822C40.582 39.1914 40.5513 39.5005 40.5513 39.8097C40.5513 40.3971 40.4591 41.0155 40.4284 41.6029C40.3976 41.9121 40.3669 42.2212 40.3976 42.5304C40.3976 42.6232 40.3976 42.685 40.4284 42.7778C40.4284 42.8087 40.4591 42.8705 40.4898 42.9014C40.5205 42.9323 40.6127 42.9942 40.6741 42.9942C40.7048 42.9942 40.7356 42.9942 40.7663 42.9633L40.8277 42.9323C40.8585 42.9014 40.8892 42.8705 40.9199 42.8396C40.9813 42.7778 41.0428 42.7159 41.0735 42.6541C41.1349 42.5923 41.1964 42.4995 41.2271 42.4377C41.2885 42.5923 41.3807 42.7468 41.4729 42.8705C41.7494 43.3034 42.1487 43.6434 42.4252 43.9835C42.5788 44.169 42.671 44.3236 42.671 44.4473V45.1584V46.6115V47.2298L43.1932 46.9207C44.3299 46.3023 45.4973 45.6531 46.6647 45.0347C47.832 44.4164 48.9994 43.798 50.1668 43.2106L50.5355 43.0251L50.3819 42.6232C50.2283 42.2831 50.0746 42.0048 49.921 41.7266C49.921 41.6957 49.8903 41.6957 49.8903 41.6647C50.1975 41.4483 50.5047 41.201 50.8119 40.9227C51.3956 40.3971 51.9486 39.8715 52.4709 39.2841C52.7473 39.0059 52.9931 38.6967 53.2389 38.3875C53.3003 38.2948 53.3618 38.2329 53.4232 38.1402C53.669 37.7383 53.8533 37.1199 53.8533 37.1199C53.8533 37.1199 52.6859 37.8928 51.6721 38.3566C51.3342 38.5421 50.9655 38.7276 50.6583 38.8513C50.3204 38.9749 50.0746 38.8822 49.7674 38.7585C49.706 38.7276 49.6138 38.6967 49.5524 38.6658L49.4602 38.6039L49.3681 38.5112C49.3374 38.4803 49.3066 38.4493 49.2759 38.4184L49.1838 38.3257L48.9994 38.1402C48.5386 37.5837 48.2007 36.9035 47.9242 36.1924C47.6477 35.4813 47.4634 34.7702 47.2791 33.9973C47.1255 33.2553 46.9719 32.4823 46.9104 31.7403C46.8797 31.5548 46.9104 31.3693 46.8797 31.1838C46.8797 30.9983 46.849 30.7819 46.8183 30.5655C46.7568 30.1635 46.6647 29.7307 46.5111 29.3288C46.4189 29.1123 46.2038 28.8341 45.9581 28.5868C46.6954 28.4012 47.3405 28.0921 48.1392 27.752C48.7229 27.5046 49.3066 27.2264 49.8903 26.9172C50.474 26.639 51.027 26.2989 51.5492 25.9588C52.0715 25.6187 52.5937 25.2168 53.116 24.9076C53.3618 24.753 53.669 24.5984 53.9455 24.4438L54.7749 23.9801C55.3279 23.6709 55.8809 23.3617 56.4338 23.0835C57.0482 23.0217 57.6012 22.7125 58.1542 22.4961ZM19.4462 4.03848C19.3847 3.26555 19.907 2.61629 20.6135 2.2762C20.9515 2.09069 21.3508 1.99794 21.7502 1.93611C22.1189 1.90519 22.5489 1.93611 22.9483 1.99794C23.7778 2.12161 24.6072 2.33803 25.3752 2.6472C25.7439 2.80179 26.1125 3.01821 26.389 3.26555C26.5734 3.42013 26.727 3.60564 26.7884 3.79114C24.5458 4.19306 22.3339 4.78049 20.1835 5.55342C20.0606 5.58434 19.9377 5.64617 19.8455 5.67709C19.6305 5.1515 19.4462 4.59499 19.4462 4.03848ZM67.3089 17.9203C67.0939 17.7348 66.8788 17.4875 66.756 17.2092C66.6945 17.0855 66.6638 16.931 66.6331 16.7764C66.6024 16.6218 66.6024 16.4363 66.5409 16.2817C66.418 15.6324 66.1108 14.9832 65.65 14.4885C65.435 14.2412 65.1585 14.0247 64.9127 13.8083C65.1585 13.932 65.4043 14.0557 65.65 14.1484C66.203 14.3957 66.7252 14.7049 67.1553 15.0759C67.2475 15.1687 67.3704 15.2614 67.4318 15.3542C67.4933 15.4469 67.524 15.5706 67.5547 15.7252C67.6161 16.0034 67.6161 16.3126 67.6469 16.5909C67.6469 17.0855 67.6469 17.5493 67.6161 18.044C67.4933 18.0749 67.4011 18.0131 67.3089 17.9203ZM65.8036 23.64L65.8343 23.7637V23.9801C65.8343 24.1038 65.8036 24.2583 65.7729 24.4129C65.6807 24.6912 65.5271 25.0004 65.3735 25.2786C65.0356 25.8351 64.6362 26.3607 64.2062 26.8554C64.0525 27.0409 63.8682 27.2264 63.7146 27.4119C63.8375 26.8863 63.9604 26.3607 64.0525 25.8351C64.1447 25.3714 64.2369 24.9076 64.329 24.4438C64.3598 24.3202 64.3598 24.1965 64.3905 24.0728V23.9801C64.3905 23.9492 64.3905 23.9183 64.3905 23.8564C64.3905 23.7946 64.3905 23.7637 64.3905 23.7018C64.3905 23.6709 64.3598 23.6091 64.3598 23.5782C64.2676 23.2999 64.0833 23.1453 63.9297 22.9907C63.9604 22.9907 63.9911 23.0217 64.0218 23.0217C64.2983 23.1453 64.6055 23.269 64.9127 23.3927C65.0663 23.4545 65.2199 23.5163 65.4043 23.5782C65.4657 23.5782 65.5271 23.6091 65.5886 23.6091H65.7115C65.7115 23.64 65.7422 23.64 65.8036 23.64ZM64.5441 22.4342C64.8513 22.527 65.1278 22.6816 65.3735 22.8671C65.4657 22.9289 65.5271 23.0217 65.5886 23.1144H65.5271C65.4964 23.1144 65.4964 23.1144 65.4964 23.1144C65.3735 23.0835 65.2199 23.0217 65.097 22.9598C64.8206 22.8361 64.5134 22.7125 64.2369 22.5888C63.7453 22.3724 63.2538 22.156 62.7623 21.9705C63.346 22.0941 63.9911 22.2178 64.5441 22.4342ZM48.9073 41.8193C48.6308 41.6338 48.385 41.3246 48.1085 41.0155C47.832 40.7372 47.5556 40.459 47.2176 40.2425C47.0333 40.1189 46.8797 40.0261 46.7261 39.9334C46.5725 39.8097 46.4189 39.7169 46.296 39.5624C46.0195 39.315 45.8045 39.0059 45.5894 38.6658C45.1901 38.0165 44.975 37.2745 44.8829 36.5016C44.8214 36.1306 44.76 35.7595 44.7293 35.3885C44.6985 35.0175 44.6985 34.6156 44.6985 34.2446C44.6985 33.4717 44.7293 32.6987 44.76 31.9258C44.76 31.5857 44.76 31.2766 44.7293 30.9365C44.76 31.0601 44.8214 31.2147 44.8521 31.3384C45.0057 31.9258 45.0979 32.5132 45.1593 33.1316C45.2208 33.7499 45.2515 34.3374 45.2822 34.9557V35.1721V35.2958V35.4195C45.3129 35.605 45.3437 35.7595 45.4051 35.9141C45.528 36.2233 45.6509 36.5325 45.8045 36.8107C46.3882 37.9238 47.064 38.9749 47.7399 39.9952C48.0778 40.5208 48.4157 41.0155 48.7537 41.5411C48.8151 41.6647 48.8765 41.7575 48.9073 41.8193ZM60.0281 17.4566C60.7962 17.9512 61.5335 18.5387 62.24 19.157C62.8237 19.7135 63.3767 20.3009 63.8989 20.9193C62.5165 19.9608 61.1341 18.9715 59.7517 18.044C58.4921 17.1783 57.2326 16.3744 55.9116 15.6015C57.3554 16.0034 58.7686 16.6218 60.0281 17.4566ZM35.7588 13.7465C35.7588 13.5301 35.7896 13.3136 35.851 13.0972C36.0353 12.2006 36.404 11.3659 36.9262 10.562C37.4485 9.75816 38.0629 9.04707 38.7387 8.36689C38.8616 8.24322 38.9845 8.11955 39.1381 7.99588C38.9538 8.27414 38.7695 8.58331 38.6158 8.89248C38.5237 9.07798 38.4315 9.2944 38.3394 9.47991C38.2472 9.69633 38.155 9.88183 38.0936 10.0983L38.0014 10.4383C37.9707 10.562 37.94 10.6857 37.9093 10.7784C37.8786 10.9021 37.8786 11.0258 37.8478 11.1804V11.2731V11.3659V11.5204V12.7571V15.2305C37.8478 15.6634 37.8478 16.0344 37.8171 16.4363C37.7864 16.8073 37.725 17.2092 37.6328 17.5493C37.3256 18.7242 36.7112 19.7753 35.9124 20.7338C35.9124 20.1154 35.8817 19.528 35.851 18.9406C35.8203 17.9512 35.7896 16.9619 35.7896 15.9416L35.7588 14.4576V14.0866C35.7281 13.9629 35.7281 13.8392 35.7588 13.7465ZM31.9495 9.72725C32.1031 9.38716 32.2874 9.04707 32.4717 8.7379L32.6253 8.49056L32.7482 8.27414C32.7789 8.2123 32.8404 8.15047 32.9018 8.05772C32.9632 7.99588 32.994 7.93405 33.0554 7.8413C33.5162 7.3157 34.0999 6.82103 34.7143 6.35727C34.8372 6.26452 34.9601 6.17177 35.083 6.07901L35.0215 6.2336C34.9294 6.45002 34.8372 6.63552 34.7143 6.85194C34.315 7.65579 33.7927 8.39781 33.2397 9.1089C32.9632 9.47991 32.656 9.78908 32.3488 10.1292C32.0724 10.4074 31.7651 10.6857 31.4579 10.933C31.6115 10.5311 31.7651 10.1292 31.9495 9.72725ZM38.0014 39.2223C38.3701 39.4696 38.708 39.7788 38.9231 40.1189C39.0459 40.3044 39.1074 40.4899 39.1688 40.6754C39.1995 40.8609 39.2303 41.1391 39.2917 41.3865C39.3839 41.8812 39.476 42.3758 39.5989 42.8705C39.6296 42.9942 39.6604 43.1178 39.6911 43.2415C39.3531 42.6541 38.9845 42.0976 38.6466 41.5102C38.2472 40.8609 37.8478 40.2116 37.4792 39.5314C37.3256 39.2223 37.1413 38.9131 37.0184 38.6039C37.387 38.8513 37.7249 39.0368 38.0014 39.2223ZM59.0758 13.19C59.2601 13.3136 59.4445 13.4682 59.6288 13.5919C59.936 13.8392 60.2125 14.0866 60.5197 14.3648L60.0896 14.1793C59.9053 14.1175 59.7209 14.0557 59.5366 13.9938C59.168 13.8702 58.7993 13.7774 58.4307 13.6537C58.1849 13.5919 57.9391 13.5301 57.6627 13.4682C58.1235 13.3136 58.615 13.2209 59.0758 13.19ZM56.9561 13.8702C57.3862 13.9938 57.847 14.1175 58.2771 14.2412C58.615 14.3648 58.9836 14.4576 59.3216 14.6122C59.5059 14.674 59.6595 14.7358 59.8438 14.8286L60.3353 15.045C60.9805 15.3542 61.6563 15.7561 62.0864 16.2508L63.5917 17.2401L62.7008 15.7561L62.6701 15.7252C61.8407 14.7358 60.8883 13.9938 59.8745 13.2827C59.8131 13.2518 59.7824 13.2209 59.7209 13.19C59.8131 13.19 59.936 13.2209 60.0281 13.2209C60.3046 13.2827 60.5811 13.3755 60.8269 13.4991C61.3491 13.7465 61.8099 14.0866 62.2093 14.4885C63.0388 15.2923 63.7146 16.3126 64.2369 17.3638C64.4826 17.8894 64.7284 18.4459 64.9127 19.0024C64.9742 19.2188 65.0356 19.4353 65.097 19.6517C64.7591 19.0952 64.3598 18.6005 63.9297 18.1058C63.2538 17.3638 62.4551 16.7145 61.5949 16.1889C59.9974 15.1996 58.1849 14.6122 56.3109 14.4885C56.4953 14.2721 56.7103 14.0557 56.9561 13.8702ZM50.1668 13.0972C49.3988 12.8808 48.6308 12.7262 47.8628 12.6025C48.3543 12.6335 48.8765 12.6644 49.3681 12.6953C50.8734 12.7881 52.3787 12.9736 53.884 13.2209C54.7442 13.3446 55.5737 13.5301 56.4031 13.7156C56.2188 13.9011 56.0345 14.0866 55.8809 14.303C55.8501 14.3648 55.8194 14.3957 55.7887 14.4576C55.5737 14.4576 55.3279 14.4267 55.1128 14.4267H54.3755C54.1912 14.4267 54.0376 14.4267 53.8533 14.4267C52.6245 13.932 51.4264 13.4373 50.1668 13.0972ZM54.9592 15.2305C53.6382 14.9213 52.3173 14.7668 50.9655 14.7358C51.58 14.7049 52.2251 14.674 52.8395 14.674C53.2389 14.674 53.6075 14.674 54.0069 14.674C54.3755 14.8595 54.7442 15.045 55.1128 15.2305C55.1436 15.2614 55.1743 15.2614 55.205 15.2923C55.1128 15.2923 55.0514 15.2614 54.9592 15.2305ZM55.1436 15.1687C54.8364 15.0141 54.5291 14.8595 54.2219 14.7049C54.2527 14.7049 54.2834 14.7049 54.3141 14.7049H55.0514C55.2357 14.7049 55.42 14.7049 55.6044 14.7358C55.5122 14.9213 55.42 15.1068 55.3279 15.3233C55.2972 15.2305 55.2357 15.1996 55.1436 15.1687ZM41.5957 41.5411C41.6265 41.1082 41.7494 40.6135 41.8722 40.1807C42.0258 39.7169 42.1794 39.2532 42.333 38.8204C42.4867 38.3566 42.671 37.9238 42.8246 37.46C42.9167 37.1508 43.0089 36.8417 43.0703 36.5016C43.1011 36.9344 43.1011 37.3672 43.0396 37.8001C42.9782 38.3875 42.8246 38.9749 42.6403 39.5314C42.4559 40.088 42.2102 40.6445 41.9644 41.201C41.8415 41.4174 41.7186 41.6647 41.5957 41.8812C41.5957 41.7575 41.5957 41.6338 41.5957 41.5411Z" fill="url(#paint0_radial)"/>
<defs>
<radialGradient id="paint0_radial" cx="0" cy="0" r="1" gradientUnits="userSpaceOnUse" gradientTransform="translate(109.176 39.5452) scale(95.4802 96.0912)">
<stop offset="0.1622" stop-color="#F9E7B8"/>
<stop offset="0.8837" stop-color="#BF9142"/>
</radialGradient>
</defs>
</svg>
